<svg version="1.1" xmlns="http://www.w3.org/2000/svg" width="600" height="700"><defs><clipPath id="zvmuOhSHQfDh"><path fill="none" stroke="none" d="M 43.5 27.5 L 570.5 27.5 L 570.5 655.5 L 43.5 655.5 L 43.5 27.5 Z"/></clipPath><clipPath id="pqNRBEbtrKyQ"><path fill="none" stroke="none" d="M 43.5 27.5 L 570.5 27.5 L 570.5 655.5 L 43.5 655.5 L 43.5 27.5 Z"/></clipPath><clipPath id="NvRTnZzOCbhr"><path fill="none" stroke="none" d="M 43.5 27.5 L 570.5 27.5 L 570.5 655.5 L 43.5 655.5 L 43.5 27.5 Z"/></clipPath><clipPath id="OEuRIISDJFTd"><path fill="none" stroke="none" d="M 43.5 27.5 L 570.5 27.5 L 570.5 655.5 L 43.5 655.5 L 43.5 27.5 Z"/></clipPath></defs><path fill="rgb(255,255,255)" stroke="none" paint-order="stroke" d="M 0.5 0.5 L 600.5 0.5 L 600.5 700.5 L 0.5 700.5 L 0.5 0.5 Z" fill-opacity="1"/><rect fill="#FFFFFF" stroke="none" x="43" y="27" width="527" height="628" transform="matrix(1, 0, 0, 1, 0.5, 0.5)"/><path fill="rgb(255,255,255)" stroke="none" paint-order="stroke" d="M 43.5 27.5 L 570.5 27.5 L 570.5 655.5 L 43.5 655.5 L 43.5 27.5 Z" fill-opacity="1"/><path fill="none" stroke="rgb(229,229,229)" paint-order="fill" d="M 43.5 27.5 L 570.5 27.5 L 570.5 655.5 L 43.5 655.5 L 43.5 27.5 Z" stroke-opacity="1" stroke-linejoin="bevel" stroke-miterlimit="10"/><path fill="none" stroke="rgb(229,229,229)" paint-order="fill" d="M 87.5 655.5 L 87.5 27.5 M 175.5 655.5 L 175.5 27.5 M 263.5 655.5 L 263.5 27.5 M 350.5 655.5 L 350.5 27.5 M 438.5 655.5 L 438.5 27.5" stroke-opacity="1" stroke-linejoin="bevel" stroke-miterlimit="10" clip-path="url(#zvmuOhSHQfDh)"/><path fill="none" stroke="rgb(229,229,229)" paint-order="fill" d="M 43.5 610.5 L 570.5 610.5 M 43.5 520.5 L 570.5 520.5 M 43.5 431.5 L 570.5 431.5 M 43.5 341.5 L 570.5 341.5 M 43.5 251.5 L 570.5 251.5 M 43.5 72.5 L 570.5 72.5" stroke-opacity="1" stroke-linejoin="bevel" stroke-miterlimit="10" clip-path="url(#pqNRBEbtrKyQ)"/><path fill="rgb(31,119,180)" stroke="rgb(31,119,180)" paint-order="fill" d="M 137.4831085205078 418.93560791015625 L 213.01688385009766 418.93560791015625 L 213.01688385009766 443.49295234680176 L 137.4831085205078 443.49295234680176 L 137.4831085205078 418.93560791015625 Z" fill-opacity="1" clip-path="url(#NvRTnZzOCbhr)" stroke-opacity="1" stroke-linejoin="bevel" stroke-miterlimit="10"/><path fill="rgb(31,119,180)" stroke="rgb(31,119,180)" paint-order="fill" d="M 61.24989318847656 420.4645690917969 L 113.58344268798828 420.4645690917969 L 113.58344268798828 441.9640064239502 L 61.24989318847656 441.9640064239502 L 61.24989318847656 420.4645690917969 Z" fill-opacity="1" clip-path="url(#NvRTnZzOCbhr)" stroke-opacity="1" stroke-linejoin="bevel" stroke-miterlimit="10"/><path fill="rgb(31,119,180)" stroke="rgb(31,119,180)" paint-order="fill" d="M 409.0180969238281 422.48748779296875 L 468.4819030761719 422.48748779296875 L 468.4819030761719 439.9410800933838 L 409.0180969238281 439.9410800933838 L 409.0180969238281 422.48748779296875 Z" fill-opacity="1" clip-path="url(#NvRTnZzOCbhr)" stroke-opacity="1" stroke-linejoin="bevel" stroke-miterlimit="10"/><path fill="rgb(31,119,180)" stroke="rgb(31,119,180)" paint-order="fill" d="M 495.0123291015625 423.33428955078125 L 558.1543159484863 423.33428955078125 L 558.1543159484863 439.0942716598511 L 495.0123291015625 439.0942716598511 L 495.0123291015625 423.33428955078125 Z" fill-opacity="1" clip-path="url(#NvRTnZzOCbhr)" stroke-opacity="1" stroke-linejoin="bevel" stroke-miterlimit="10"/><path fill="rgb(31,119,180)" stroke="rgb(31,119,180)" paint-order="fill" d="M 259.9553527832031 430.626220703125 L 266.2112879753113 430.626220703125 L 266.2112879753113 431.802338719368 L 259.9553527832031 431.802338719368 L 259.9553527832031 430.626220703125 Z" fill-opacity="1" clip-path="url(#NvRTnZzOCbhr)" stroke-opacity="1" stroke-linejoin="bevel" stroke-miterlimit="10"/><path fill="rgb(31,119,180)" stroke="rgb(31,119,180)" paint-order="fill" d="M 314.2574157714844 426.58038330078125 L 387.57592010498047 426.58038330078125 L 387.57592010498047 435.84819316864014 L 314.2574157714844 435.84819316864014 L 314.2574157714844 426.58038330078125 Z" fill-opacity="1" clip-path="url(#NvRTnZzOCbhr)" stroke-opacity="1" stroke-linejoin="bevel" stroke-miterlimit="10"/><path fill="rgb(31,119,180)" stroke="rgb(31,119,180)" paint-order="fill" d="M 171.41543579101562 320.4608154296875 L 179.08457374572754 320.4608154296875 L 179.08457374572754 362.5391960144043 L 171.41543579101562 362.5391960144043 L 171.41543579101562 320.4608154296875 Z" fill-opacity="1" clip-path="url(#NvRTnZzOCbhr)" stroke-opacity="1" stroke-linejoin="bevel" stroke-miterlimit="10"/><path fill="rgb(31,119,180)" stroke="rgb(31,119,180)" paint-order="fill" d="M 87.01586151123047 338.72125244140625 L 87.81746953725815 338.72125244140625 L 87.81746953725815 344.27877473831177 L 87.01586151123047 344.27877473831177 L 87.01586151123047 338.72125244140625 Z" fill-opacity="1" clip-path="url(#NvRTnZzOCbhr)" stroke-opacity="1" stroke-linejoin="bevel" stroke-miterlimit="10"/><path fill="rgb(31,119,180)" stroke="rgb(31,119,180)" paint-order="fill" d="M 438.66986083984375 341.10302734375 L 438.83014065027237 341.10302734375 L 438.83014065027237 341.896959066391 L 438.66986083984375 341.896959066391 L 438.66986083984375 341.10302734375 Z" fill-opacity="1" clip-path="url(#NvRTnZzOCbhr)" stroke-opacity="1" stroke-linejoin="bevel" stroke-miterlimit="10"/><path fill="rgb(31,119,180)" stroke="rgb(31,119,180)" paint-order="fill" d="M 521.7769775390625 321.2547302246094 L 531.3896389007568 321.2547302246094 L 531.3896389007568 361.74524688720703 L 521.7769775390625 361.74524688720703 L 521.7769775390625 321.2547302246094 Z" fill-opacity="1" clip-path="url(#NvRTnZzOCbhr)" stroke-opacity="1" stroke-linejoin="bevel" stroke-miterlimit="10"/><path fill="rgb(31,119,180)" stroke="rgb(31,119,180)" paint-order="fill" d="M 350.7305908203125 341.10302734375 L 351.10276594758034 341.10302734375 L 351.10276594758034 341.896959066391 L 350.7305908203125 341.896959066391 L 350.7305908203125 341.10302734375 Z" fill-opacity="1" clip-path="url(#NvRTnZzOCbhr)" stroke-opacity="1" stroke-linejoin="bevel" stroke-miterlimit="10"/><path fill="rgb(31,119,180)" stroke="rgb(31,119,180)" paint-order="fill" d="M 174.09239196777344 65.89125061035156 L 176.40760350227356 65.89125061035156 L 176.40760350227356 78.82304000854492 L 174.09239196777344 78.82304000854492 L 174.09239196777344 65.89125061035156 Z" fill-opacity="1" clip-path="url(#NvRTnZzOCbhr)" stroke-opacity="1" stroke-linejoin="bevel" stroke-miterlimit="10"/><path fill="rgb(31,119,180)" stroke="rgb(31,119,180)" paint-order="fill" d="M 437.9486083984375 68.31595611572266 L 439.5514065027237 68.31595611572266 L 439.5514065027237 76.39832401275635 L 437.9486083984375 76.39832401275635 L 437.9486083984375 68.31595611572266 Z" fill-opacity="1" clip-path="url(#NvRTnZzOCbhr)" stroke-opacity="1" stroke-linejoin="bevel" stroke-miterlimit="10"/><path fill="rgb(31,119,180)" stroke="rgb(31,119,180)" paint-order="fill" d="M 519.7036743164062 42.85649871826172 L 533.4629735946655 42.85649871826172 L 533.4629735946655 101.85778427124023 L 519.7036743164062 101.85778427124023 L 519.7036743164062 42.85649871826172 Z" fill-opacity="1" clip-path="url(#NvRTnZzOCbhr)" stroke-opacity="1" stroke-linejoin="bevel" stroke-miterlimit="10"/><path fill="rgb(31,119,180)" stroke="rgb(31,119,180)" paint-order="fill" d="M 348.6836242675781 67.50772094726562 L 353.14972591400146 67.50772094726562 L 353.14972591400146 77.20656299591064 L 348.6836242675781 77.20656299591064 L 348.6836242675781 67.50772094726562 Z" fill-opacity="1" clip-path="url(#NvRTnZzOCbhr)" stroke-opacity="1" stroke-linejoin="bevel" stroke-miterlimit="10"/><path fill="rgb(31,119,180)" stroke="rgb(31,119,180)" paint-order="fill" d="M 174.67120361328125 609.7984619140625 L 175.8288093805313 609.7984619140625 L 175.8288093805313 611.4872014522552 L 174.67120361328125 611.4872014522552 L 174.67120361328125 609.7984619140625 Z" fill-opacity="1" clip-path="url(#NvRTnZzOCbhr)" stroke-opacity="1" stroke-linejoin="bevel" stroke-miterlimit="10"/><path fill="rgb(31,119,180)" stroke="rgb(31,119,180)" paint-order="fill" d="M 73.3885269165039 584.7840576171875 L 101.4448070526123 584.7840576171875 L 101.4448070526123 636.5017051696777 L 73.3885269165039 636.5017051696777 L 73.3885269165039 584.7840576171875 Z" fill-opacity="1" clip-path="url(#NvRTnZzOCbhr)" stroke-opacity="1" stroke-linejoin="bevel" stroke-miterlimit="10"/><path fill="rgb(31,119,180)" stroke="rgb(31,119,180)" paint-order="fill" d="M 427.2900085449219 595.5497436523438 L 450.2100200653076 595.5497436523438 L 450.2100200653076 625.7359619140625 L 427.2900085449219 625.7359619140625 L 427.2900085449219 595.5497436523438 Z" fill-opacity="1" clip-path="url(#NvRTnZzOCbhr)" stroke-opacity="1" stroke-linejoin="bevel" stroke-miterlimit="10"/><path fill="rgb(31,119,180)" stroke="rgb(31,119,180)" paint-order="fill" d="M 526.1121215820312 610.1151123046875 L 527.0545393228531 610.1151123046875 L 527.0545393228531 611.1705745458603 L 526.1121215820312 611.1705745458603 L 526.1121215820312 610.1151123046875 Z" fill-opacity="1" clip-path="url(#NvRTnZzOCbhr)" stroke-opacity="1" stroke-linejoin="bevel" stroke-miterlimit="10"/><path fill="rgb(31,119,180)" stroke="rgb(31,119,180)" paint-order="fill" d="M 262.9582214355469 610.5372924804688 L 263.208458840847 610.5372924804688 L 263.208458840847 610.7483849227428 L 262.9582214355469 610.7483849227428 L 262.9582214355469 610.5372924804688 Z" fill-opacity="1" clip-path="url(#NvRTnZzOCbhr)" stroke-opacity="1" stroke-linejoin="bevel" stroke-miterlimit="10"/><path fill="rgb(31,119,180)" stroke="rgb(31,119,180)" paint-order="fill" d="M 346.63665771484375 608.2152709960938 L 355.1966857910156 608.2152709960938 L 355.1966857910156 613.070396900177 L 346.63665771484375 613.070396900177 L 346.63665771484375 608.2152709960938 Z" fill-opacity="1" clip-path="url(#NvRTnZzOCbhr)" stroke-opacity="1" stroke-linejoin="bevel" stroke-miterlimit="10"/><path fill="rgb(31,119,180)" stroke="rgb(31,119,180)" paint-order="fill" d="M 174.81590270996094 251.00558471679688 L 175.68410700559616 251.00558471679688 L 175.68410700559616 252.56583321094513 L 174.81590270996094 252.56583321094513 L 174.81590270996094 251.00558471679688 Z" fill-opacity="1" clip-path="url(#NvRTnZzOCbhr)" stroke-opacity="1" stroke-linejoin="bevel" stroke-miterlimit="10"/><path fill="rgb(31,119,180)" stroke="rgb(31,119,180)" paint-order="fill" d="M 437.54791259765625 249.8354034423828 L 439.9521095752716 249.8354034423828 L 439.9521095752716 253.7360246181488 L 437.54791259765625 253.7360246181488 L 437.54791259765625 249.8354034423828 Z" fill-opacity="1" clip-path="url(#NvRTnZzOCbhr)" stroke-opacity="1" stroke-linejoin="bevel" stroke-miterlimit="10"/><path fill="rgb(31,119,180)" stroke="rgb(31,119,180)" paint-order="fill" d="M 222.66998291015625 209.78903198242188 L 303.49666595458984 209.78903198242188 L 303.49666595458984 293.78240966796875 L 222.66998291015625 293.78240966796875 L 222.66998291015625 209.78903198242188 Z" fill-opacity="1" clip-path="url(#NvRTnZzOCbhr)" stroke-opacity="1" stroke-linejoin="bevel" stroke-miterlimit="10"/><path fill="rgb(31,119,180)" stroke="rgb(31,119,180)" paint-order="fill" d="M 350.7305908203125 251.65570068359375 L 351.10276594758034 251.65570068359375 L 351.10276594758034 251.91574209928513 L 350.7305908203125 251.91574209928513 L 350.7305908203125 251.65570068359375 Z" fill-opacity="1" clip-path="url(#NvRTnZzOCbhr)" stroke-opacity="1" stroke-linejoin="bevel" stroke-miterlimit="10"/><path fill="rgb(31,119,180)" stroke="rgb(31,119,180)" paint-order="fill" d="M 175.1053009033203 519.6649780273438 L 175.39470234513283 519.6649780273438 L 175.39470234513283 522.1921410560608 L 175.1053009033203 522.1921410560608 L 175.1053009033203 519.6649780273438 Z" fill-opacity="1" clip-path="url(#NvRTnZzOCbhr)" stroke-opacity="1" stroke-linejoin="bevel" stroke-miterlimit="10"/><path fill="rgb(31,119,180)" stroke="rgb(31,119,180)" paint-order="fill" d="M 84.09571838378906 484.2846984863281 L 90.73761320114136 484.2846984863281 L 90.73761320114136 557.5724258422852 L 84.09571838378906 557.5724258422852 L 84.09571838378906 484.2846984863281 Z" fill-opacity="1" clip-path="url(#NvRTnZzOCbhr)" stroke-opacity="1" stroke-linejoin="bevel" stroke-miterlimit="10"/><path fill="rgb(31,119,180)" stroke="rgb(31,119,180)" paint-order="fill" d="M 438.18902587890625 516.5060424804688 L 439.31098449230194 516.5060424804688 L 439.31098449230194 525.351113319397 L 438.18902587890625 525.351113319397 L 438.18902587890625 516.5060424804688 Z" fill-opacity="1" clip-path="url(#NvRTnZzOCbhr)" stroke-opacity="1" stroke-linejoin="bevel" stroke-miterlimit="10"/><path fill="rgb(31,119,180)" stroke="rgb(31,119,180)" paint-order="fill" d="M 526.3948364257812 519.6649780273438 L 526.7718035280704 519.6649780273438 L 526.7718035280704 522.1921410560608 L 526.3948364257812 522.1921410560608 L 526.3948364257812 519.6649780273438 Z" fill-opacity="1" clip-path="url(#NvRTnZzOCbhr)" stroke-opacity="1" stroke-linejoin="bevel" stroke-miterlimit="10"/><path fill="rgb(31,119,180)" stroke="rgb(31,119,180)" paint-order="fill" d="M 350.54449462890625 519.6649780273438 L 351.2888448834419 519.6649780273438 L 351.2888448834419 522.1921410560608 L 350.54449462890625 522.1921410560608 L 350.54449462890625 519.6649780273438 Z" fill-opacity="1" clip-path="url(#NvRTnZzOCbhr)" stroke-opacity="1" stroke-linejoin="bevel" stroke-miterlimit="10"/><path fill="rgb(31,119,180)" stroke="rgb(31,119,180)" paint-order="fill" d="M 438.66986083984375 147.11904907226562 L 438.83014065027237 147.11904907226562 L 438.83014065027237 177.02381134033203 L 438.66986083984375 177.02381134033203 L 438.66986083984375 147.11904907226562 Z" fill-opacity="1" clip-path="url(#NvRTnZzOCbhr)" stroke-opacity="1" stroke-linejoin="bevel" stroke-miterlimit="10"/><path fill="rgb(31,119,180)" stroke="rgb(31,119,180)" paint-order="fill" d="M 262.8330993652344 132.1666717529297 L 263.33357417583466 132.1666717529297 L 263.33357417583466 191.9761962890625 L 262.8330993652344 191.9761962890625 L 262.8330993652344 132.1666717529297 Z" fill-opacity="1" clip-path="url(#NvRTnZzOCbhr)" stroke-opacity="1" stroke-linejoin="bevel" stroke-miterlimit="10"/><path fill="none" stroke="rgb(0,0,0)" paint-order="fill" d="M 43.5 655.5 L 570.5 655.5" stroke-opacity="1" stroke-linejoin="bevel" stroke-miterlimit="10"/><path fill="none" stroke="rgb(0,0,0)" paint-order="fill" d="M 87.5 661.5 L 87.5 653.5 M 175.5 661.5 L 175.5 653.5 M 263.5 661.5 L 263.5 653.5 M 350.5 661.5 L 350.5 653.5 M 438.5 661.5 L 438.5 653.5 M 526.5 661.5 L 526.5 653.5" stroke-opacity="1" stroke-linejoin="bevel" stroke-miterlimit="10"/><path fill="none" stroke="rgb(0,0,0)" paint-order="fill" d="" stroke-opacity="1" stroke-linejoin="bevel" stroke-miterlimit="10"/><text fill="rgb(68,68,68)" stroke="none" font-family="helvetica" font-size="11px" font-style="normal" font-weight="normal" text-decoration="normal" x="83.85782623291016" y="673.89013671875" text-anchor="start" dominant-baseline="alphabetic" transform="matrix(1, 0, 0, 1, 0.5, 0.5)" fill-opacity="1">1</text><text fill="none" stroke="rgb(0,0,0)" font-family="helvetica" font-size="11px" font-style="normal" font-weight="normal" text-decoration="normal" x="83.85782623291016" y="673.89013671875" text-anchor="start" dominant-baseline="alphabetic" transform="matrix(1, 0, 0, 1, 0.5, 0.5)" stroke-opacity="0" stroke-linejoin="bevel" stroke-miterlimit="10">1</text><text fill="rgb(68,68,68)" stroke="none" font-family="helvetica" font-size="11px" font-style="normal" font-weight="normal" text-decoration="normal" x="171.691162109375" y="673.89013671875" text-anchor="start" dominant-baseline="alphabetic" transform="matrix(1, 0, 0, 1, 0.5, 0.5)" fill-opacity="1">2</text><text fill="none" stroke="rgb(0,0,0)" font-family="helvetica" font-size="11px" font-style="normal" font-weight="normal" text-decoration="normal" x="171.691162109375" y="673.89013671875" text-anchor="start" dominant-baseline="alphabetic" transform="matrix(1, 0, 0, 1, 0.5, 0.5)" stroke-opacity="0" stroke-linejoin="bevel" stroke-miterlimit="10">2</text><text fill="rgb(68,68,68)" stroke="none" font-family="helvetica" font-size="11px" font-style="normal" font-weight="normal" text-decoration="normal" x="259.5245056152344" y="673.89013671875" text-anchor="start" dominant-baseline="alphabetic" transform="matrix(1, 0, 0, 1, 0.5, 0.5)" fill-opacity="1">3</text><text fill="none" stroke="rgb(0,0,0)" font-family="helvetica" font-size="11px" font-style="normal" font-weight="normal" text-decoration="normal" x="259.5245056152344" y="673.89013671875" text-anchor="start" dominant-baseline="alphabetic" transform="matrix(1, 0, 0, 1, 0.5, 0.5)" stroke-opacity="0" stroke-linejoin="bevel" stroke-miterlimit="10">3</text><text fill="rgb(68,68,68)" stroke="none" font-family="helvetica" font-size="11px" font-style="normal" font-weight="normal" text-decoration="normal" x="347.3578186035156" y="673.89013671875" text-anchor="start" dominant-baseline="alphabetic" transform="matrix(1, 0, 0, 1, 0.5, 0.5)" fill-opacity="1">4</text><text fill="none" stroke="rgb(0,0,0)" font-family="helvetica" font-size="11px" font-style="normal" font-weight="normal" text-decoration="normal" x="347.3578186035156" y="673.89013671875" text-anchor="start" dominant-baseline="alphabetic" transform="matrix(1, 0, 0, 1, 0.5, 0.5)" stroke-opacity="0" stroke-linejoin="bevel" stroke-miterlimit="10">4</text><text fill="rgb(68,68,68)" stroke="none" font-family="helvetica" font-size="11px" font-style="normal" font-weight="normal" text-decoration="normal" x="435.191162109375" y="673.89013671875" text-anchor="start" dominant-baseline="alphabetic" transform="matrix(1, 0, 0, 1, 0.5, 0.5)" fill-opacity="1">5</text><text fill="none" stroke="rgb(0,0,0)" font-family="helvetica" font-size="11px" font-style="normal" font-weight="normal" text-decoration="normal" x="435.191162109375" y="673.89013671875" text-anchor="start" dominant-baseline="alphabetic" transform="matrix(1, 0, 0, 1, 0.5, 0.5)" stroke-opacity="0" stroke-linejoin="bevel" stroke-miterlimit="10">5</text><text fill="rgb(68,68,68)" stroke="none" font-family="helvetica" font-size="11px" font-style="normal" font-weight="normal" text-decoration="normal" x="523.0244750976562" y="673.89013671875" text-anchor="start" dominant-baseline="alphabetic" transform="matrix(1, 0, 0, 1, 0.5, 0.5)" fill-opacity="1">6</text><text fill="none" stroke="rgb(0,0,0)" font-family="helvetica" font-size="11px" font-style="normal" font-weight="normal" text-decoration="normal" x="523.0244750976562" y="673.89013671875" text-anchor="start" dominant-baseline="alphabetic" transform="matrix(1, 0, 0, 1, 0.5, 0.5)" stroke-opacity="0" stroke-linejoin="bevel" stroke-miterlimit="10">6</text><text fill="rgb(68,68,68)" stroke="none" font-family="helvetica" font-size="13px" font-style="italic" font-weight="normal" text-decoration="normal" x="199.56103515625" y="693.89013671875" text-anchor="start" dominant-baseline="alphabetic" transform="matrix(1, 0, 0, 1, 0.5, 0.5)" fill-opacity="1">Coarse module in oviINr connectome</text><text fill="none" stroke="rgb(0,0,0)" font-family="helvetica" font-size="13px" font-style="italic" font-weight="normal" text-decoration="normal" x="199.56103515625" y="693.89013671875" text-anchor="start" dominant-baseline="alphabetic" transform="matrix(1, 0, 0, 1, 0.5, 0.5)" stroke-opacity="0" stroke-linejoin="bevel" stroke-miterlimit="10">Coarse module in oviINr connectome</text><path fill="none" stroke="rgb(0,0,0)" paint-order="fill" d="M 43.5 655.5 L 43.5 27.5" stroke-opacity="1" stroke-linejoin="bevel" stroke-miterlimit="10"/><path fill="none" stroke="rgb(0,0,0)" paint-order="fill" d="M 37.5 610.5 L 45.5 610.5 M 37.5 520.5 L 45.5 520.5 M 37.5 431.5 L 45.5 431.5 M 37.5 341.5 L 45.5 341.5 M 37.5 251.5 L 45.5 251.5 M 37.5 162.5 L 45.5 162.5 M 37.5 72.5 L 45.5 72.5" stroke-opacity="1" stroke-linejoin="bevel" stroke-miterlimit="10"/><path fill="none" stroke="rgb(0,0,0)" paint-order="fill" d="" stroke-opacity="1" stroke-linejoin="bevel" stroke-miterlimit="10"/><text fill="rgb(68,68,68)" stroke="none" font-family="helvetica" font-size="11px" font-style="normal" font-weight="normal" text-decoration="normal" x="25.88232421875" y="614.0879516601562" text-anchor="start" dominant-baseline="alphabetic" transform="matrix(1, 0, 0, 1, 0.5, 0.5)" fill-opacity="1">1</text><text fill="none" stroke="rgb(0,0,0)" font-family="helvetica" font-size="11px" font-style="normal" font-weight="normal" text-decoration="normal" x="25.88232421875" y="614.0879516601562" text-anchor="start" dominant-baseline="alphabetic" transform="matrix(1, 0, 0, 1, 0.5, 0.5)" stroke-opacity="0" stroke-linejoin="bevel" stroke-miterlimit="10">1</text><text fill="rgb(68,68,68)" stroke="none" font-family="helvetica" font-size="11px" font-style="normal" font-weight="normal" text-decoration="normal" x="25.88232421875" y="524.3736572265625" text-anchor="start" dominant-baseline="alphabetic" transform="matrix(1, 0, 0, 1, 0.5, 0.5)" fill-opacity="1">6</text><text fill="none" stroke="rgb(0,0,0)" font-family="helvetica" font-size="11px" font-style="normal" font-weight="normal" text-decoration="normal" x="25.88232421875" y="524.3736572265625" text-anchor="start" dominant-baseline="alphabetic" transform="matrix(1, 0, 0, 1, 0.5, 0.5)" stroke-opacity="0" stroke-linejoin="bevel" stroke-miterlimit="10">6</text><text fill="rgb(68,68,68)" stroke="none" font-family="helvetica" font-size="11px" font-style="normal" font-weight="normal" text-decoration="normal" x="25.88232421875" y="434.65936279296875" text-anchor="start" dominant-baseline="alphabetic" transform="matrix(1, 0, 0, 1, 0.5, 0.5)" fill-opacity="1">3</text><text fill="none" stroke="rgb(0,0,0)" font-family="helvetica" font-size="11px" font-style="normal" font-weight="normal" text-decoration="normal" x="25.88232421875" y="434.65936279296875" text-anchor="start" dominant-baseline="alphabetic" transform="matrix(1, 0, 0, 1, 0.5, 0.5)" stroke-opacity="0" stroke-linejoin="bevel" stroke-miterlimit="10">3</text><text fill="rgb(68,68,68)" stroke="none" font-family="helvetica" font-size="11px" font-style="normal" font-weight="normal" text-decoration="normal" x="25.88232421875" y="344.945068359375" text-anchor="start" dominant-baseline="alphabetic" transform="matrix(1, 0, 0, 1, 0.5, 0.5)" fill-opacity="1">4</text><text fill="none" stroke="rgb(0,0,0)" font-family="helvetica" font-size="11px" font-style="normal" font-weight="normal" text-decoration="normal" x="25.88232421875" y="344.945068359375" text-anchor="start" dominant-baseline="alphabetic" transform="matrix(1, 0, 0, 1, 0.5, 0.5)" stroke-opacity="0" stroke-linejoin="bevel" stroke-miterlimit="10">4</text><text fill="rgb(68,68,68)" stroke="none" font-family="helvetica" font-size="11px" font-style="normal" font-weight="normal" text-decoration="normal" x="25.88232421875" y="255.2307891845703" text-anchor="start" dominant-baseline="alphabetic" transform="matrix(1, 0, 0, 1, 0.5, 0.5)" fill-opacity="1">2</text><text fill="none" stroke="rgb(0,0,0)" font-family="helvetica" font-size="11px" font-style="normal" font-weight="normal" text-decoration="normal" x="25.88232421875" y="255.2307891845703" text-anchor="start" dominant-baseline="alphabetic" transform="matrix(1, 0, 0, 1, 0.5, 0.5)" stroke-opacity="0" stroke-linejoin="bevel" stroke-miterlimit="10">2</text><text fill="rgb(68,68,68)" stroke="none" font-family="helvetica" font-size="11px" font-style="normal" font-weight="normal" text-decoration="normal" x="25.88232421875" y="165.51649475097656" text-anchor="start" dominant-baseline="alphabetic" transform="matrix(1, 0, 0, 1, 0.5, 0.5)" fill-opacity="1">7</text><text fill="none" stroke="rgb(0,0,0)" font-family="helvetica" font-size="11px" font-style="normal" font-weight="normal" text-decoration="normal" x="25.88232421875" y="165.51649475097656" text-anchor="start" dominant-baseline="alphabetic" transform="matrix(1, 0, 0, 1, 0.5, 0.5)" stroke-opacity="0" stroke-linejoin="bevel" stroke-miterlimit="10">7</text><text fill="rgb(68,68,68)" stroke="none" font-family="helvetica" font-size="11px" font-style="normal" font-weight="normal" text-decoration="normal" x="25.88232421875" y="75.80220794677734" text-anchor="start" dominant-baseline="alphabetic" transform="matrix(1, 0, 0, 1, 0.5, 0.5)" fill-opacity="1">5</text><text fill="none" stroke="rgb(0,0,0)" font-family="helvetica" font-size="11px" font-style="normal" font-weight="normal" text-decoration="normal" x="25.88232421875" y="75.80220794677734" text-anchor="start" dominant-baseline="alphabetic" transform="matrix(1, 0, 0, 1, 0.5, 0.5)" stroke-opacity="0" stroke-linejoin="bevel" stroke-miterlimit="10">5</text><text fill="rgb(68,68,68)" stroke="none" font-family="helvetica" font-size="13px" font-style="italic" font-weight="normal" text-decoration="normal" x="-105.32568359375" y="338" text-anchor="start" dominant-baseline="alphabetic" transform="matrix(6.123233995736766e-17, -1, 1, 6.123233995736766e-17, -322.61767578125, 359.38232421875)" fill-opacity="1">Coarse module in whole brain connectome</text><text fill="none" stroke="rgb(0,0,0)" font-family="helvetica" font-size="13px" font-style="italic" font-weight="normal" text-decoration="normal" x="-105.32568359375" y="338" text-anchor="start" dominant-baseline="alphabetic" transform="matrix(6.123233995736766e-17, -1, 1, 6.123233995736766e-17, -322.61767578125, 359.38232421875)" stroke-opacity="0" stroke-linejoin="bevel" stroke-miterlimit="10">Coarse module in whole brain connectome</text><text fill="rgb(68,68,68)" stroke="none" font-family="helvetica" font-size="13px" font-style="normal" font-weight="bold" text-decoration="normal" x="43" y="19" text-anchor="start" dominant-baseline="alphabetic" transform="matrix(1, 0, 0, 1, 0.5, 0.5)" fill-opacity="1">Joint marginal distribution of coarse modules</text><text fill="none" stroke="rgb(0,0,0)" font-family="helvetica" font-size="13px" font-style="normal" font-weight="bold" text-decoration="normal" x="43" y="19" text-anchor="start" dominant-baseline="alphabetic" transform="matrix(1, 0, 0, 1, 0.5, 0.5)" stroke-opacity="0" stroke-miterlimit="10" stroke-dasharray="">Joint marginal distribution of coarse modules</text></svg>