<?xml version="1.0" encoding="UTF-8"?>
<svg xmlns="http://www.w3.org/2000/svg" xmlns:xlink="http://www.w3.org/1999/xlink" version="1.1" viewBox="0 0 700 600">
  <defs>
    <style>
      .cls-1, .cls-2, .cls-3 {
        fill: none;
      }

      .cls-4 {
        font-family: Helvetica, Helvetica;
        font-size: 16.5px;
      }

      .cls-5 {
        fill: #9df9f6;
      }

      .cls-6 {
        fill: #6fedf8;
      }

      .cls-7 {
        fill: #00004e;
      }

      .cls-8 {
        font-family: Helvetica-Oblique, Helvetica;
        font-size: 19.5px;
        font-style: oblique;
      }

      .cls-9 {
        fill: #76eff7;
      }

      .cls-10 {
        fill: #2e68fc;
      }

      .cls-11 {
        fill: #a6fbf6;
      }

      .cls-12 {
        fill: #28cafb;
      }

      .cls-13 {
        fill: #2429f3;
      }

      .cls-14 {
        fill: #a3faf6;
      }

      .cls-15 {
        font-family: Helvetica-Bold, Helvetica;
        font-size: 18px;
        font-weight: 700;
      }

      .cls-16 {
        fill: #adfdf5;
      }

      .cls-17 {
        fill: #2b73fd;
      }

      .cls-18 {
        clip-path: url(#clippath-17);
      }

      .cls-19 {
        clip-path: url(#clippath-19);
      }

      .cls-20 {
        clip-path: url(#clippath-11);
      }

      .cls-21 {
        clip-path: url(#clippath-16);
      }

      .cls-22 {
        clip-path: url(#clippath-18);
      }

      .cls-23 {
        clip-path: url(#clippath-10);
      }

      .cls-24 {
        clip-path: url(#clippath-15);
      }

      .cls-25 {
        clip-path: url(#clippath-13);
      }

      .cls-26 {
        clip-path: url(#clippath-14);
      }

      .cls-27 {
        clip-path: url(#clippath-12);
      }

      .cls-28 {
        clip-path: url(#clippath-61);
      }

      .cls-29 {
        clip-path: url(#clippath-67);
      }

      .cls-30 {
        clip-path: url(#clippath-68);
      }

      .cls-31 {
        clip-path: url(#clippath-60);
      }

      .cls-32 {
        clip-path: url(#clippath-65);
      }

      .cls-33 {
        clip-path: url(#clippath-62);
      }

      .cls-34 {
        clip-path: url(#clippath-64);
      }

      .cls-35 {
        clip-path: url(#clippath-66);
      }

      .cls-36 {
        clip-path: url(#clippath-63);
      }

      .cls-37 {
        clip-path: url(#clippath-76);
      }

      .cls-38 {
        clip-path: url(#clippath-78);
      }

      .cls-39 {
        clip-path: url(#clippath-75);
      }

      .cls-40 {
        clip-path: url(#clippath-79);
      }

      .cls-41 {
        clip-path: url(#clippath-50);
      }

      .cls-42 {
        clip-path: url(#clippath-55);
      }

      .cls-43 {
        clip-path: url(#clippath-52);
      }

      .cls-44 {
        clip-path: url(#clippath-57);
      }

      .cls-45 {
        clip-path: url(#clippath-54);
      }

      .cls-46 {
        clip-path: url(#clippath-56);
      }

      .cls-47 {
        clip-path: url(#clippath-53);
      }

      .cls-48 {
        clip-path: url(#clippath-70);
      }

      .cls-49 {
        clip-path: url(#clippath-77);
      }

      .cls-50 {
        clip-path: url(#clippath-74);
      }

      .cls-51 {
        clip-path: url(#clippath-71);
      }

      .cls-52 {
        clip-path: url(#clippath-73);
      }

      .cls-53 {
        clip-path: url(#clippath-72);
      }

      .cls-54 {
        clip-path: url(#clippath-51);
      }

      .cls-55 {
        clip-path: url(#clippath-58);
      }

      .cls-56 {
        clip-path: url(#clippath-59);
      }

      .cls-57 {
        clip-path: url(#clippath-31);
      }

      .cls-58 {
        clip-path: url(#clippath-32);
      }

      .cls-59 {
        clip-path: url(#clippath-33);
      }

      .cls-60 {
        clip-path: url(#clippath-34);
      }

      .cls-61 {
        clip-path: url(#clippath-35);
      }

      .cls-62 {
        clip-path: url(#clippath-39);
      }

      .cls-63 {
        clip-path: url(#clippath-30);
      }

      .cls-64 {
        clip-path: url(#clippath-36);
      }

      .cls-65 {
        clip-path: url(#clippath-37);
      }

      .cls-66 {
        clip-path: url(#clippath-38);
      }

      .cls-67 {
        clip-path: url(#clippath-27);
      }

      .cls-68 {
        clip-path: url(#clippath-29);
      }

      .cls-69 {
        clip-path: url(#clippath-26);
      }

      .cls-70 {
        clip-path: url(#clippath-28);
      }

      .cls-71 {
        clip-path: url(#clippath-20);
      }

      .cls-72 {
        clip-path: url(#clippath-21);
      }

      .cls-73 {
        clip-path: url(#clippath-22);
      }

      .cls-74 {
        clip-path: url(#clippath-23);
      }

      .cls-75 {
        clip-path: url(#clippath-24);
      }

      .cls-76 {
        clip-path: url(#clippath-25);
      }

      .cls-77 {
        clip-path: url(#clippath-69);
      }

      .cls-78 {
        clip-path: url(#clippath-41);
      }

      .cls-79 {
        clip-path: url(#clippath-42);
      }

      .cls-80 {
        clip-path: url(#clippath-43);
      }

      .cls-81 {
        clip-path: url(#clippath-44);
      }

      .cls-82 {
        clip-path: url(#clippath-45);
      }

      .cls-83 {
        clip-path: url(#clippath-49);
      }

      .cls-84 {
        clip-path: url(#clippath-40);
      }

      .cls-85 {
        clip-path: url(#clippath-46);
      }

      .cls-86 {
        clip-path: url(#clippath-47);
      }

      .cls-87 {
        clip-path: url(#clippath-48);
      }

      .cls-88 {
        clip-path: url(#clippath-90);
      }

      .cls-89 {
        clip-path: url(#clippath-95);
      }

      .cls-90 {
        clip-path: url(#clippath-93);
      }

      .cls-91 {
        clip-path: url(#clippath-99);
      }

      .cls-92 {
        clip-path: url(#clippath-94);
      }

      .cls-93 {
        clip-path: url(#clippath-96);
      }

      .cls-94 {
        clip-path: url(#clippath-85);
      }

      .cls-95 {
        clip-path: url(#clippath-86);
      }

      .cls-96 {
        clip-path: url(#clippath-87);
      }

      .cls-97 {
        clip-path: url(#clippath-80);
      }

      .cls-98 {
        clip-path: url(#clippath-89);
      }

      .cls-99 {
        clip-path: url(#clippath-81);
      }

      .cls-100 {
        clip-path: url(#clippath-82);
      }

      .cls-101 {
        clip-path: url(#clippath-83);
      }

      .cls-102 {
        clip-path: url(#clippath-84);
      }

      .cls-103 {
        clip-path: url(#clippath-88);
      }

      .cls-104 {
        clip-path: url(#clippath-92);
      }

      .cls-105 {
        clip-path: url(#clippath-97);
      }

      .cls-106 {
        clip-path: url(#clippath-91);
      }

      .cls-107 {
        clip-path: url(#clippath-98);
      }

      .cls-108 {
        fill: #28c8fb;
      }

      .cls-109 {
        clip-path: url(#clippath-1);
      }

      .cls-110 {
        clip-path: url(#clippath-3);
      }

      .cls-111 {
        clip-path: url(#clippath-4);
      }

      .cls-112 {
        clip-path: url(#clippath-2);
      }

      .cls-113 {
        clip-path: url(#clippath-7);
      }

      .cls-114 {
        clip-path: url(#clippath-6);
      }

      .cls-115 {
        clip-path: url(#clippath-9);
      }

      .cls-116 {
        clip-path: url(#clippath-8);
      }

      .cls-117 {
        clip-path: url(#clippath-5);
      }

      .cls-118 {
        fill: #9af8f6;
      }

      .cls-119 {
        fill: #3bdff9;
      }

      .cls-120 {
        clip-path: url(#clippath-102);
      }

      .cls-121 {
        clip-path: url(#clippath-101);
      }

      .cls-122 {
        clip-path: url(#clippath-104);
      }

      .cls-123 {
        clip-path: url(#clippath-109);
      }

      .cls-124 {
        clip-path: url(#clippath-106);
      }

      .cls-125 {
        clip-path: url(#clippath-103);
      }

      .cls-126 {
        clip-path: url(#clippath-105);
      }

      .cls-127 {
        clip-path: url(#clippath-100);
      }

      .cls-128 {
        clip-path: url(#clippath-108);
      }

      .cls-129 {
        clip-path: url(#clippath-107);
      }

      .cls-130 {
        clip-path: url(#clippath-118);
      }

      .cls-131 {
        clip-path: url(#clippath-114);
      }

      .cls-132 {
        clip-path: url(#clippath-119);
      }

      .cls-133 {
        clip-path: url(#clippath-111);
      }

      .cls-134 {
        clip-path: url(#clippath-110);
      }

      .cls-135 {
        clip-path: url(#clippath-113);
      }

      .cls-136 {
        clip-path: url(#clippath-112);
      }

      .cls-137 {
        clip-path: url(#clippath-117);
      }

      .cls-138 {
        clip-path: url(#clippath-115);
      }

      .cls-139 {
        clip-path: url(#clippath-116);
      }

      .cls-140 {
        clip-path: url(#clippath-120);
      }

      .cls-141 {
        fill: #42e1f9;
      }

      .cls-142 {
        fill: #fff;
      }

      .cls-143 {
        fill: #35a3fc;
      }

      .cls-144 {
        fill: #a0faf6;
      }

      .cls-145 {
        fill: #97f7f6;
      }

      .cls-146 {
        fill: #79f0f7;
      }

      .cls-147 {
        fill: #b0fef5;
      }

      .cls-148 {
        fill: #30dbfa;
      }

      .cls-2 {
        stroke: #e5e5e5;
      }

      .cls-2, .cls-3 {
        stroke-linejoin: bevel;
      }

      .cls-3 {
        stroke: #000;
      }

      .cls-149 {
        fill: #5ee9f8;
      }

      .cls-150 {
        fill: #359bfc;
      }

      .cls-151 {
        fill: #90f6f6;
      }

      .cls-152 {
        fill: #b3fef5;
      }

      .cls-153 {
        fill: #30b4fc;
      }

      .cls-154 {
        fill: #93f7f6;
      }

      .cls-155 {
        fill: #2bd6fa;
      }

      .cls-156 {
        fill: #0b0fd3;
      }

      .cls-157 {
        fill: #a9fcf5;
      }

      .cls-158 {
        fill: #87f3f7;
      }

      .cls-159 {
        clip-path: url(#clippath);
      }
    </style>
    <clipPath id="clippath">
      <rect class="cls-1" x="107.5" y="149.5" width="453" height="441"/>
    </clipPath>
    <clipPath id="clippath-1">
      <rect class="cls-1" x="107.5" y="149.5" width="453" height="441"/>
    </clipPath>
    <clipPath id="clippath-2">
      <rect class="cls-1" x="107.5" y="149.5" width="453" height="441"/>
    </clipPath>
    <clipPath id="clippath-3">
      <rect class="cls-1" x="107.5" y="149.5" width="453" height="441"/>
    </clipPath>
    <clipPath id="clippath-4">
      <rect class="cls-1" x="107.5" y="149.5" width="453" height="441"/>
    </clipPath>
    <clipPath id="clippath-5">
      <rect class="cls-1" x="107.5" y="149.5" width="453" height="441"/>
    </clipPath>
    <clipPath id="clippath-6">
      <rect class="cls-1" x="107.5" y="149.5" width="453" height="441"/>
    </clipPath>
    <clipPath id="clippath-7">
      <rect class="cls-1" x="107.5" y="149.5" width="453" height="441"/>
    </clipPath>
    <clipPath id="clippath-8">
      <rect class="cls-1" x="107.5" y="149.5" width="453" height="441"/>
    </clipPath>
    <clipPath id="clippath-9">
      <rect class="cls-1" x="107.5" y="149.5" width="453" height="441"/>
    </clipPath>
    <clipPath id="clippath-10">
      <rect class="cls-1" x="107.5" y="149.5" width="453" height="441"/>
    </clipPath>
    <clipPath id="clippath-11">
      <rect class="cls-1" x="107.5" y="149.5" width="453" height="441"/>
    </clipPath>
    <clipPath id="clippath-12">
      <rect class="cls-1" x="107.5" y="149.5" width="453" height="441"/>
    </clipPath>
    <clipPath id="clippath-13">
      <rect class="cls-1" x="107.5" y="149.5" width="453" height="441"/>
    </clipPath>
    <clipPath id="clippath-14">
      <rect class="cls-1" x="107.5" y="149.5" width="453" height="441"/>
    </clipPath>
    <clipPath id="clippath-15">
      <rect class="cls-1" x="107.5" y="149.5" width="453" height="441"/>
    </clipPath>
    <clipPath id="clippath-16">
      <rect class="cls-1" x="107.5" y="149.5" width="453" height="441"/>
    </clipPath>
    <clipPath id="clippath-17">
      <rect class="cls-1" x="107.5" y="149.5" width="453" height="441"/>
    </clipPath>
    <clipPath id="clippath-18">
      <rect class="cls-1" x="107.5" y="149.5" width="453" height="441"/>
    </clipPath>
    <clipPath id="clippath-19">
      <rect class="cls-1" x="107.5" y="149.5" width="453" height="441"/>
    </clipPath>
    <clipPath id="clippath-20">
      <rect class="cls-1" x="107.5" y="149.5" width="453" height="441"/>
    </clipPath>
    <clipPath id="clippath-21">
      <rect class="cls-1" x="107.5" y="149.5" width="453" height="441"/>
    </clipPath>
    <clipPath id="clippath-22">
      <rect class="cls-1" x="107.5" y="149.5" width="453" height="441"/>
    </clipPath>
    <clipPath id="clippath-23">
      <rect class="cls-1" x="107.5" y="149.5" width="453" height="441"/>
    </clipPath>
    <clipPath id="clippath-24">
      <rect class="cls-1" x="107.5" y="149.5" width="453" height="441"/>
    </clipPath>
    <clipPath id="clippath-25">
      <rect class="cls-1" x="107.5" y="149.5" width="453" height="441"/>
    </clipPath>
    <clipPath id="clippath-26">
      <rect class="cls-1" x="107.5" y="149.5" width="453" height="441"/>
    </clipPath>
    <clipPath id="clippath-27">
      <rect class="cls-1" x="107.5" y="149.5" width="453" height="441"/>
    </clipPath>
    <clipPath id="clippath-28">
      <rect class="cls-1" x="107.5" y="149.5" width="453" height="441"/>
    </clipPath>
    <clipPath id="clippath-29">
      <rect class="cls-1" x="107.5" y="149.5" width="453" height="441"/>
    </clipPath>
    <clipPath id="clippath-30">
      <rect class="cls-1" x="107.5" y="149.5" width="453" height="441"/>
    </clipPath>
    <clipPath id="clippath-31">
      <rect class="cls-1" x="107.5" y="149.5" width="453" height="441"/>
    </clipPath>
    <clipPath id="clippath-32">
      <rect class="cls-1" x="107.5" y="149.5" width="453" height="441"/>
    </clipPath>
    <clipPath id="clippath-33">
      <rect class="cls-1" x="107.5" y="149.5" width="453" height="441"/>
    </clipPath>
    <clipPath id="clippath-34">
      <rect class="cls-1" x="107.5" y="149.5" width="453" height="441"/>
    </clipPath>
    <clipPath id="clippath-35">
      <rect class="cls-1" x="107.5" y="149.5" width="453" height="441"/>
    </clipPath>
    <clipPath id="clippath-36">
      <rect class="cls-1" x="107.5" y="149.5" width="453" height="441"/>
    </clipPath>
    <clipPath id="clippath-37">
      <rect class="cls-1" x="107.5" y="149.5" width="453" height="441"/>
    </clipPath>
    <clipPath id="clippath-38">
      <rect class="cls-1" x="107.5" y="149.5" width="453" height="441"/>
    </clipPath>
    <clipPath id="clippath-39">
      <rect class="cls-1" x="107.5" y="149.5" width="453" height="441"/>
    </clipPath>
    <clipPath id="clippath-40">
      <rect class="cls-1" x="107.5" y="149.5" width="453" height="441"/>
    </clipPath>
    <clipPath id="clippath-41">
      <rect class="cls-1" x="107.5" y="149.5" width="453" height="441"/>
    </clipPath>
    <clipPath id="clippath-42">
      <rect class="cls-1" x="107.5" y="149.5" width="453" height="441"/>
    </clipPath>
    <clipPath id="clippath-43">
      <rect class="cls-1" x="107.5" y="149.5" width="453" height="441"/>
    </clipPath>
    <clipPath id="clippath-44">
      <rect class="cls-1" x="107.5" y="149.5" width="453" height="441"/>
    </clipPath>
    <clipPath id="clippath-45">
      <rect class="cls-1" x="107.5" y="149.5" width="453" height="441"/>
    </clipPath>
    <clipPath id="clippath-46">
      <rect class="cls-1" x="107.5" y="149.5" width="453" height="441"/>
    </clipPath>
    <clipPath id="clippath-47">
      <rect class="cls-1" x="107.5" y="149.5" width="453" height="441"/>
    </clipPath>
    <clipPath id="clippath-48">
      <rect class="cls-1" x="107.5" y="149.5" width="453" height="441"/>
    </clipPath>
    <clipPath id="clippath-49">
      <rect class="cls-1" x="107.5" y="149.5" width="453" height="441"/>
    </clipPath>
    <clipPath id="clippath-50">
      <rect class="cls-1" x="107.5" y="149.5" width="453" height="441"/>
    </clipPath>
    <clipPath id="clippath-51">
      <rect class="cls-1" x="107.5" y="149.5" width="453" height="441"/>
    </clipPath>
    <clipPath id="clippath-52">
      <rect class="cls-1" x="107.5" y="149.5" width="453" height="441"/>
    </clipPath>
    <clipPath id="clippath-53">
      <rect class="cls-1" x="107.5" y="149.5" width="453" height="441"/>
    </clipPath>
    <clipPath id="clippath-54">
      <rect class="cls-1" x="107.5" y="149.5" width="453" height="441"/>
    </clipPath>
    <clipPath id="clippath-55">
      <rect class="cls-1" x="107.5" y="149.5" width="453" height="441"/>
    </clipPath>
    <clipPath id="clippath-56">
      <rect class="cls-1" x="107.5" y="149.5" width="453" height="441"/>
    </clipPath>
    <clipPath id="clippath-57">
      <rect class="cls-1" x="107.5" y="149.5" width="453" height="441"/>
    </clipPath>
    <clipPath id="clippath-58">
      <rect class="cls-1" x="107.5" y="149.5" width="453" height="441"/>
    </clipPath>
    <clipPath id="clippath-59">
      <rect class="cls-1" x="107.5" y="149.5" width="453" height="441"/>
    </clipPath>
    <clipPath id="clippath-60">
      <rect class="cls-1" x="107.5" y="149.5" width="453" height="441"/>
    </clipPath>
    <clipPath id="clippath-61">
      <rect class="cls-1" x="107.5" y="149.5" width="453" height="441"/>
    </clipPath>
    <clipPath id="clippath-62">
      <rect class="cls-1" x="107.5" y="149.5" width="453" height="441"/>
    </clipPath>
    <clipPath id="clippath-63">
      <rect class="cls-1" x="107.5" y="149.5" width="453" height="441"/>
    </clipPath>
    <clipPath id="clippath-64">
      <rect class="cls-1" x="107.5" y="149.5" width="453" height="441"/>
    </clipPath>
    <clipPath id="clippath-65">
      <rect class="cls-1" x="107.5" y="149.5" width="453" height="441"/>
    </clipPath>
    <clipPath id="clippath-66">
      <rect class="cls-1" x="107.5" y="149.5" width="453" height="441"/>
    </clipPath>
    <clipPath id="clippath-67">
      <rect class="cls-1" x="107.5" y="149.5" width="453" height="441"/>
    </clipPath>
    <clipPath id="clippath-68">
      <rect class="cls-1" x="107.5" y="149.5" width="453" height="441"/>
    </clipPath>
    <clipPath id="clippath-69">
      <rect class="cls-1" x="107.5" y="149.5" width="453" height="441"/>
    </clipPath>
    <clipPath id="clippath-70">
      <rect class="cls-1" x="107.5" y="149.5" width="453" height="441"/>
    </clipPath>
    <clipPath id="clippath-71">
      <rect class="cls-1" x="107.5" y="149.5" width="453" height="441"/>
    </clipPath>
    <clipPath id="clippath-72">
      <rect class="cls-1" x="107.5" y="149.5" width="453" height="441"/>
    </clipPath>
    <clipPath id="clippath-73">
      <rect class="cls-1" x="107.5" y="149.5" width="453" height="441"/>
    </clipPath>
    <clipPath id="clippath-74">
      <rect class="cls-1" x="107.5" y="149.5" width="453" height="441"/>
    </clipPath>
    <clipPath id="clippath-75">
      <rect class="cls-1" x="107.5" y="149.5" width="453" height="441"/>
    </clipPath>
    <clipPath id="clippath-76">
      <rect class="cls-1" x="107.5" y="149.5" width="453" height="441"/>
    </clipPath>
    <clipPath id="clippath-77">
      <rect class="cls-1" x="107.5" y="149.5" width="453" height="441"/>
    </clipPath>
    <clipPath id="clippath-78">
      <rect class="cls-1" x="107.5" y="149.5" width="453" height="441"/>
    </clipPath>
    <clipPath id="clippath-79">
      <rect class="cls-1" x="107.5" y="149.5" width="453" height="441"/>
    </clipPath>
    <clipPath id="clippath-80">
      <rect class="cls-1" x="107.5" y="149.5" width="453" height="441"/>
    </clipPath>
    <clipPath id="clippath-81">
      <rect class="cls-1" x="107.5" y="149.5" width="453" height="441"/>
    </clipPath>
    <clipPath id="clippath-82">
      <rect class="cls-1" x="107.5" y="149.5" width="453" height="441"/>
    </clipPath>
    <clipPath id="clippath-83">
      <rect class="cls-1" x="107.5" y="149.5" width="453" height="441"/>
    </clipPath>
    <clipPath id="clippath-84">
      <rect class="cls-1" x="107.5" y="149.5" width="453" height="441"/>
    </clipPath>
    <clipPath id="clippath-85">
      <rect class="cls-1" x="107.5" y="149.5" width="453" height="441"/>
    </clipPath>
    <clipPath id="clippath-86">
      <rect class="cls-1" x="107.5" y="149.5" width="453" height="441"/>
    </clipPath>
    <clipPath id="clippath-87">
      <rect class="cls-1" x="107.5" y="149.5" width="453" height="441"/>
    </clipPath>
    <clipPath id="clippath-88">
      <rect class="cls-1" x="107.5" y="149.5" width="453" height="441"/>
    </clipPath>
    <clipPath id="clippath-89">
      <rect class="cls-1" x="107.5" y="149.5" width="453" height="441"/>
    </clipPath>
    <clipPath id="clippath-90">
      <rect class="cls-1" x="107.5" y="149.5" width="453" height="441"/>
    </clipPath>
    <clipPath id="clippath-91">
      <rect class="cls-1" x="107.5" y="149.5" width="453" height="441"/>
    </clipPath>
    <clipPath id="clippath-92">
      <rect class="cls-1" x="107.5" y="149.5" width="453" height="441"/>
    </clipPath>
    <clipPath id="clippath-93">
      <rect class="cls-1" x="107.5" y="149.5" width="453" height="441"/>
    </clipPath>
    <clipPath id="clippath-94">
      <rect class="cls-1" x="107.5" y="149.5" width="453" height="441"/>
    </clipPath>
    <clipPath id="clippath-95">
      <rect class="cls-1" x="107.5" y="149.5" width="453" height="441"/>
    </clipPath>
    <clipPath id="clippath-96">
      <rect class="cls-1" x="107.5" y="149.5" width="453" height="441"/>
    </clipPath>
    <clipPath id="clippath-97">
      <rect class="cls-1" x="107.5" y="149.5" width="453" height="441"/>
    </clipPath>
    <clipPath id="clippath-98">
      <rect class="cls-1" x="107.5" y="149.5" width="453" height="441"/>
    </clipPath>
    <clipPath id="clippath-99">
      <rect class="cls-1" x="107.5" y="149.5" width="453" height="441"/>
    </clipPath>
    <clipPath id="clippath-100">
      <rect class="cls-1" x="107.5" y="149.5" width="453" height="441"/>
    </clipPath>
    <clipPath id="clippath-101">
      <rect class="cls-1" x="107.5" y="149.5" width="453" height="441"/>
    </clipPath>
    <clipPath id="clippath-102">
      <rect class="cls-1" x="107.5" y="149.5" width="453" height="441"/>
    </clipPath>
    <clipPath id="clippath-103">
      <rect class="cls-1" x="107.5" y="149.5" width="453" height="441"/>
    </clipPath>
    <clipPath id="clippath-104">
      <rect class="cls-1" x="107.5" y="149.5" width="453" height="441"/>
    </clipPath>
    <clipPath id="clippath-105">
      <rect class="cls-1" x="107.5" y="149.5" width="453" height="441"/>
    </clipPath>
    <clipPath id="clippath-106">
      <rect class="cls-1" x="107.5" y="149.5" width="453" height="441"/>
    </clipPath>
    <clipPath id="clippath-107">
      <rect class="cls-1" x="107.5" y="149.5" width="453" height="441"/>
    </clipPath>
    <clipPath id="clippath-108">
      <rect class="cls-1" x="107.5" y="149.5" width="453" height="441"/>
    </clipPath>
    <clipPath id="clippath-109">
      <rect class="cls-1" x="107.5" y="149.5" width="453" height="441"/>
    </clipPath>
    <clipPath id="clippath-110">
      <rect class="cls-1" x="107.5" y="149.5" width="453" height="441"/>
    </clipPath>
    <clipPath id="clippath-111">
      <rect class="cls-1" x="107.5" y="149.5" width="453" height="441"/>
    </clipPath>
    <clipPath id="clippath-112">
      <rect class="cls-1" x="107.5" y="149.5" width="453" height="441"/>
    </clipPath>
    <clipPath id="clippath-113">
      <rect class="cls-1" x="107.5" y="149.5" width="453" height="441"/>
    </clipPath>
    <clipPath id="clippath-114">
      <rect class="cls-1" x="107.5" y="149.5" width="453" height="441"/>
    </clipPath>
    <clipPath id="clippath-115">
      <rect class="cls-1" x="107.5" y="149.5" width="453" height="441"/>
    </clipPath>
    <clipPath id="clippath-116">
      <rect class="cls-1" x="107.5" y="149.5" width="453" height="441"/>
    </clipPath>
    <clipPath id="clippath-117">
      <rect class="cls-1" x="107.5" y="149.5" width="453" height="441"/>
    </clipPath>
    <clipPath id="clippath-118">
      <rect class="cls-1" x="107.5" y="149.5" width="453" height="441"/>
    </clipPath>
    <clipPath id="clippath-119">
      <rect class="cls-1" x="107.5" y="149.5" width="453" height="441"/>
    </clipPath>
    <clipPath id="clippath-120">
      <rect class="cls-1" x="107.5" y="149.5" width="453" height="441"/>
    </clipPath>
  </defs>
  <!-- Generator: Adobe Illustrator 28.6.0, SVG Export Plug-In . SVG Version: 1.2.0 Build 709)  -->
  <g>
    <g id="Layer_1">
      <rect class="cls-142" x="107.5" y="149.5" width="453" height="441"/>
      <path class="cls-142" d="M107.5,149.5h453v441H107.5V149.5Z"/>
      <path class="cls-2" d="M107.5,149.5h453v441H107.5V149.5Z"/>
      <g class="cls-159">
        <path class="cls-118" d="M107.5,149.5h41.2v40.1h-41.2v-40.1Z"/>
      </g>
      <g class="cls-109">
        <path class="cls-147" d="M107.5,189.6h41.2v40.1h-41.2v-40.1Z"/>
      </g>
      <g class="cls-112">
        <path class="cls-11" d="M107.5,229.7h41.2v40.1h-41.2v-40.1Z"/>
      </g>
      <g class="cls-110">
        <path class="cls-152" d="M107.5,269.8h41.2v40.1h-41.2v-40.1Z"/>
      </g>
      <g class="cls-111">
        <path class="cls-152" d="M107.5,309.9h41.2v40.1h-41.2v-40.1Z"/>
      </g>
      <g class="cls-117">
        <path class="cls-152" d="M107.5,350h41.2v40.1h-41.2v-40.1Z"/>
      </g>
      <g class="cls-114">
        <path class="cls-152" d="M107.5,390h41.2v40.1h-41.2v-40.1Z"/>
      </g>
      <g class="cls-113">
        <path class="cls-152" d="M107.5,430.1h41.2v40.1h-41.2v-40.1Z"/>
      </g>
      <g class="cls-116">
        <path class="cls-152" d="M107.5,470.2h41.2v40.1h-41.2v-40.1Z"/>
      </g>
      <g class="cls-115">
        <path class="cls-152" d="M107.5,510.3h41.2v40.1h-41.2v-40.1Z"/>
      </g>
      <g class="cls-23">
        <path class="cls-152" d="M107.5,550.4h41.2v40.1h-41.2v-40.1Z"/>
      </g>
      <g class="cls-20">
        <path class="cls-156" d="M148.7,149.5h41.2v40.1h-41.2v-40.1Z"/>
      </g>
      <g class="cls-27">
        <path class="cls-141" d="M148.7,189.6h41.2v40.1h-41.2v-40.1Z"/>
      </g>
      <g class="cls-25">
        <path class="cls-147" d="M148.7,229.7h41.2v40.1h-41.2v-40.1Z"/>
      </g>
      <g class="cls-26">
        <path class="cls-147" d="M148.7,269.8h41.2v40.1h-41.2v-40.1Z"/>
      </g>
      <g class="cls-24">
        <path class="cls-157" d="M148.7,309.9h41.2v40.1h-41.2v-40.1Z"/>
      </g>
      <g class="cls-21">
        <path class="cls-152" d="M148.7,350h41.2v40.1h-41.2v-40.1Z"/>
      </g>
      <g class="cls-18">
        <path class="cls-152" d="M148.7,390h41.2v40.1h-41.2v-40.1Z"/>
      </g>
      <g class="cls-22">
        <path class="cls-152" d="M148.7,430.1h41.2v40.1h-41.2v-40.1Z"/>
      </g>
      <g class="cls-19">
        <path class="cls-147" d="M148.7,470.2h41.2v40.1h-41.2v-40.1Z"/>
      </g>
      <g class="cls-71">
        <path class="cls-152" d="M148.7,510.3h41.2v40.1h-41.2v-40.1Z"/>
      </g>
      <g class="cls-72">
        <path class="cls-152" d="M148.7,550.4h41.2v40.1h-41.2v-40.1Z"/>
      </g>
      <g class="cls-73">
        <path class="cls-10" d="M189.9,149.5h41.2v40.1h-41.2v-40.1Z"/>
      </g>
      <g class="cls-74">
        <path class="cls-148" d="M189.9,189.6h41.2v40.1h-41.2v-40.1Z"/>
      </g>
      <g class="cls-75">
        <path class="cls-11" d="M189.9,229.7h41.2v40.1h-41.2v-40.1Z"/>
      </g>
      <g class="cls-76">
        <path class="cls-5" d="M189.9,269.8h41.2v40.1h-41.2v-40.1Z"/>
      </g>
      <g class="cls-69">
        <path class="cls-11" d="M189.9,309.9h41.2v40.1h-41.2v-40.1Z"/>
      </g>
      <g class="cls-67">
        <path class="cls-152" d="M189.9,350h41.2v40.1h-41.2v-40.1Z"/>
      </g>
      <g class="cls-70">
        <path class="cls-11" d="M189.9,390h41.2v40.1h-41.2v-40.1Z"/>
      </g>
      <g class="cls-68">
        <path class="cls-147" d="M189.9,430.1h41.2v40.1h-41.2v-40.1Z"/>
      </g>
      <g class="cls-63">
        <path class="cls-152" d="M189.9,470.2h41.2v40.1h-41.2v-40.1Z"/>
      </g>
      <g class="cls-57">
        <path class="cls-152" d="M189.9,510.3h41.2v40.1h-41.2v-40.1Z"/>
      </g>
      <g class="cls-58">
        <path class="cls-152" d="M189.9,550.4h41.2v40.1h-41.2v-40.1Z"/>
      </g>
      <g class="cls-59">
        <path class="cls-141" d="M231,149.5h41.2v40.1h-41.2v-40.1Z"/>
      </g>
      <g class="cls-60">
        <path class="cls-155" d="M231,189.6h41.2v40.1h-41.2v-40.1Z"/>
      </g>
      <g class="cls-61">
        <path class="cls-157" d="M231,229.7h41.2v40.1h-41.2v-40.1Z"/>
      </g>
      <g class="cls-64">
        <path class="cls-11" d="M231,269.8h41.2v40.1h-41.2v-40.1Z"/>
      </g>
      <g class="cls-65">
        <path class="cls-118" d="M231,309.9h41.2v40.1h-41.2v-40.1Z"/>
      </g>
      <g class="cls-66">
        <path class="cls-11" d="M231,350h41.2v40.1h-41.2v-40.1Z"/>
      </g>
      <g class="cls-62">
        <path class="cls-17" d="M231,390h41.2v40.1h-41.2v-40.1Z"/>
      </g>
      <g class="cls-84">
        <path class="cls-152" d="M231,430.1h41.2v40.1h-41.2v-40.1Z"/>
      </g>
      <g class="cls-78">
        <path class="cls-152" d="M231,470.2h41.2v40.1h-41.2v-40.1Z"/>
      </g>
      <g class="cls-79">
        <path class="cls-152" d="M231,510.3h41.2v40.1h-41.2v-40.1Z"/>
      </g>
      <g class="cls-80">
        <path class="cls-152" d="M231,550.4h41.2v40.1h-41.2v-40.1Z"/>
      </g>
      <g class="cls-81">
        <path class="cls-157" d="M272.2,149.5h41.2v40.1h-41.2v-40.1Z"/>
      </g>
      <g class="cls-82">
        <path class="cls-119" d="M272.2,189.6h41.2v40.1h-41.2v-40.1Z"/>
      </g>
      <g class="cls-85">
        <path class="cls-152" d="M272.2,229.7h41.2v40.1h-41.2v-40.1Z"/>
      </g>
      <g class="cls-86">
        <path class="cls-9" d="M272.2,269.8h41.2v40.1h-41.2v-40.1Z"/>
      </g>
      <g class="cls-87">
        <path class="cls-151" d="M272.2,309.9h41.2v40.1h-41.2v-40.1Z"/>
      </g>
      <g class="cls-83">
        <path class="cls-11" d="M272.2,350h41.2v40.1h-41.2v-40.1Z"/>
      </g>
      <g class="cls-41">
        <path class="cls-155" d="M272.2,390h41.2v40.1h-41.2v-40.1Z"/>
      </g>
      <g class="cls-54">
        <path class="cls-16" d="M272.2,430.1h41.2v40.1h-41.2v-40.1Z"/>
      </g>
      <g class="cls-43">
        <path class="cls-152" d="M272.2,470.2h41.2v40.1h-41.2v-40.1Z"/>
      </g>
      <g class="cls-47">
        <path class="cls-147" d="M272.2,510.3h41.2v40.1h-41.2v-40.1Z"/>
      </g>
      <g class="cls-45">
        <path class="cls-152" d="M272.2,550.4h41.2v40.1h-41.2v-40.1Z"/>
      </g>
      <g class="cls-42">
        <path class="cls-11" d="M313.4,149.5h41.2v40.1h-41.2v-40.1Z"/>
      </g>
      <g class="cls-46">
        <path class="cls-5" d="M313.4,189.6h41.2v40.1h-41.2v-40.1Z"/>
      </g>
      <g class="cls-44">
        <path class="cls-152" d="M313.4,229.7h41.2v40.1h-41.2v-40.1Z"/>
      </g>
      <g class="cls-55">
        <path class="cls-145" d="M313.4,269.8h41.2v40.1h-41.2v-40.1Z"/>
      </g>
      <g class="cls-56">
        <path class="cls-154" d="M313.4,309.9h41.2v40.1h-41.2v-40.1Z"/>
      </g>
      <g class="cls-31">
        <path class="cls-152" d="M313.4,350h41.2v40.1h-41.2v-40.1Z"/>
      </g>
      <g class="cls-28">
        <path class="cls-149" d="M313.4,390h41.2v40.1h-41.2v-40.1Z"/>
      </g>
      <g class="cls-33">
        <path class="cls-152" d="M313.4,430.1h41.2v40.1h-41.2v-40.1Z"/>
      </g>
      <g class="cls-36">
        <path class="cls-152" d="M313.4,470.2h41.2v40.1h-41.2v-40.1Z"/>
      </g>
      <g class="cls-34">
        <path class="cls-152" d="M313.4,510.3h41.2v40.1h-41.2v-40.1Z"/>
      </g>
      <g class="cls-32">
        <path class="cls-152" d="M313.4,550.4h41.2v40.1h-41.2v-40.1Z"/>
      </g>
      <g class="cls-35">
        <path class="cls-152" d="M354.6,149.5h41.2v40.1h-41.2v-40.1Z"/>
      </g>
      <g class="cls-29">
        <path class="cls-146" d="M354.6,189.6h41.2v40.1h-41.2v-40.1Z"/>
      </g>
      <g class="cls-30">
        <path class="cls-158" d="M354.6,229.7h41.2v40.1h-41.2v-40.1Z"/>
      </g>
      <g class="cls-77">
        <path class="cls-14" d="M354.6,269.8h41.2v40.1h-41.2v-40.1Z"/>
      </g>
      <g class="cls-48">
        <path class="cls-143" d="M354.6,309.9h41.2v40.1h-41.2v-40.1Z"/>
      </g>
      <g class="cls-51">
        <path class="cls-153" d="M354.6,350h41.2v40.1h-41.2v-40.1Z"/>
      </g>
      <g class="cls-53">
        <path class="cls-144" d="M354.6,390h41.2v40.1h-41.2v-40.1Z"/>
      </g>
      <g class="cls-52">
        <path class="cls-13" d="M354.6,430.1h41.2v40.1h-41.2v-40.1Z"/>
      </g>
      <g class="cls-50">
        <path class="cls-152" d="M354.6,470.2h41.2v40.1h-41.2v-40.1Z"/>
      </g>
      <g class="cls-39">
        <path class="cls-152" d="M354.6,510.3h41.2v40.1h-41.2v-40.1Z"/>
      </g>
      <g class="cls-37">
        <path class="cls-152" d="M354.6,550.4h41.2v40.1h-41.2v-40.1Z"/>
      </g>
      <g class="cls-49">
        <path class="cls-152" d="M395.8,149.5h41.2v40.1h-41.2v-40.1Z"/>
      </g>
      <g class="cls-38">
        <path class="cls-152" d="M395.8,189.6h41.2v40.1h-41.2v-40.1Z"/>
      </g>
      <g class="cls-40">
        <path class="cls-152" d="M395.8,229.7h41.2v40.1h-41.2v-40.1Z"/>
      </g>
      <g class="cls-97">
        <path class="cls-152" d="M395.8,269.8h41.2v40.1h-41.2v-40.1Z"/>
      </g>
      <g class="cls-99">
        <path class="cls-147" d="M395.8,309.9h41.2v40.1h-41.2v-40.1Z"/>
      </g>
      <g class="cls-100">
        <path class="cls-152" d="M395.8,350h41.2v40.1h-41.2v-40.1Z"/>
      </g>
      <g class="cls-101">
        <path class="cls-7" d="M395.8,390h41.2v40.1h-41.2v-40.1Z"/>
      </g>
      <g class="cls-102">
        <path class="cls-152" d="M395.8,430.1h41.2v40.1h-41.2v-40.1Z"/>
      </g>
      <g class="cls-94">
        <path class="cls-152" d="M395.8,470.2h41.2v40.1h-41.2v-40.1Z"/>
      </g>
      <g class="cls-95">
        <path class="cls-147" d="M395.8,510.3h41.2v40.1h-41.2v-40.1Z"/>
      </g>
      <g class="cls-96">
        <path class="cls-147" d="M395.8,550.4h41.2v40.1h-41.2v-40.1Z"/>
      </g>
      <g class="cls-103">
        <path class="cls-152" d="M437,149.5h41.2v40.1h-41.2v-40.1Z"/>
      </g>
      <g class="cls-98">
        <path class="cls-152" d="M437,189.6h41.2v40.1h-41.2v-40.1Z"/>
      </g>
      <g class="cls-88">
        <path class="cls-152" d="M437,229.7h41.2v40.1h-41.2v-40.1Z"/>
      </g>
      <g class="cls-106">
        <path class="cls-152" d="M437,269.8h41.2v40.1h-41.2v-40.1Z"/>
      </g>
      <g class="cls-104">
        <path class="cls-152" d="M437,309.9h41.2v40.1h-41.2v-40.1Z"/>
      </g>
      <g class="cls-90">
        <path class="cls-152" d="M437,350h41.2v40.1h-41.2v-40.1Z"/>
      </g>
      <g class="cls-92">
        <path class="cls-146" d="M437,390h41.2v40.1h-41.2v-40.1Z"/>
      </g>
      <g class="cls-89">
        <path class="cls-6" d="M437,430.1h41.2v40.1h-41.2v-40.1Z"/>
      </g>
      <g class="cls-93">
        <path class="cls-152" d="M437,470.2h41.2v40.1h-41.2v-40.1Z"/>
      </g>
      <g class="cls-105">
        <path class="cls-152" d="M437,510.3h41.2v40.1h-41.2v-40.1Z"/>
      </g>
      <g class="cls-107">
        <path class="cls-152" d="M437,550.4h41.2v40.1h-41.2v-40.1Z"/>
      </g>
      <g class="cls-91">
        <path class="cls-152" d="M478.1,149.5h41.2v40.1h-41.2v-40.1Z"/>
      </g>
      <g class="cls-127">
        <path class="cls-157" d="M478.1,189.6h41.2v40.1h-41.2v-40.1Z"/>
      </g>
      <g class="cls-121">
        <path class="cls-152" d="M478.1,229.7h41.2v40.1h-41.2v-40.1Z"/>
      </g>
      <g class="cls-120">
        <path class="cls-152" d="M478.1,269.8h41.2v40.1h-41.2v-40.1Z"/>
      </g>
      <g class="cls-125">
        <path class="cls-147" d="M478.1,309.9h41.2v40.1h-41.2v-40.1Z"/>
      </g>
      <g class="cls-122">
        <path class="cls-152" d="M478.1,350h41.2v40.1h-41.2v-40.1Z"/>
      </g>
      <g class="cls-126">
        <path class="cls-149" d="M478.1,390h41.2v40.1h-41.2v-40.1Z"/>
      </g>
      <g class="cls-124">
        <path class="cls-108" d="M478.1,430.1h41.2v40.1h-41.2v-40.1Z"/>
      </g>
      <g class="cls-129">
        <path class="cls-152" d="M478.1,470.2h41.2v40.1h-41.2v-40.1Z"/>
      </g>
      <g class="cls-128">
        <path class="cls-152" d="M478.1,510.3h41.2v40.1h-41.2v-40.1Z"/>
      </g>
      <g class="cls-123">
        <path class="cls-152" d="M478.1,550.4h41.2v40.1h-41.2v-40.1Z"/>
      </g>
      <g class="cls-134">
        <path class="cls-152" d="M519.3,149.5h41.2v40.1h-41.2v-40.1Z"/>
      </g>
      <g class="cls-133">
        <path class="cls-152" d="M519.3,189.6h41.2v40.1h-41.2v-40.1Z"/>
      </g>
      <g class="cls-136">
        <path class="cls-152" d="M519.3,229.7h41.2v40.1h-41.2v-40.1Z"/>
      </g>
      <g class="cls-135">
        <path class="cls-152" d="M519.3,269.8h41.2v40.1h-41.2v-40.1Z"/>
      </g>
      <g class="cls-131">
        <path class="cls-152" d="M519.3,309.9h41.2v40.1h-41.2v-40.1Z"/>
      </g>
      <g class="cls-138">
        <path class="cls-152" d="M519.3,350h41.2v40.1h-41.2v-40.1Z"/>
      </g>
      <g class="cls-139">
        <path class="cls-12" d="M519.3,390h41.2v40.1h-41.2v-40.1Z"/>
      </g>
      <g class="cls-137">
        <path class="cls-150" d="M519.3,430.1h41.2v40.1h-41.2v-40.1Z"/>
      </g>
      <g class="cls-130">
        <path class="cls-152" d="M519.3,470.2h41.2v40.1h-41.2v-40.1Z"/>
      </g>
      <g class="cls-132">
        <path class="cls-152" d="M519.3,510.3h41.2v40.1h-41.2v-40.1Z"/>
      </g>
      <g class="cls-140">
        <path class="cls-152" d="M519.3,550.4h41.2v40.1h-41.2v-40.1Z"/>
      </g>
      <path class="cls-3" d="M107.5,149.5h453"/>
      <path class="cls-3" d="M128.5,143.5v8M169.5,143.5v8M210.5,143.5v8M251.5,143.5v8M292.5,143.5v8M334.5,143.5v8M375.5,143.5v8M416.5,143.5v8M457.5,143.5v8M498.5,143.5v8M539.5,143.5v8M0,0"/>
      <text class="cls-4" transform="translate(133.3 141.5) rotate(-60)"><tspan x="0" y="0">SAG</tspan></text>
      <text class="cls-4" transform="translate(133.3 141.5) rotate(-60)"><tspan x="0" y="0">SAG</tspan></text>
      <text class="cls-4" transform="translate(174.5 141.5) rotate(-60)"><tspan x="0" y="0">pC1a</tspan></text>
      <text class="cls-4" transform="translate(174.5 141.5) rotate(-60)"><tspan x="0" y="0">pC1a</tspan></text>
      <text class="cls-4" transform="translate(215.7 141.5) rotate(-60)"><tspan x="0" y="0">pC1b</tspan></text>
      <text class="cls-4" transform="translate(215.7 141.5) rotate(-60)"><tspan x="0" y="0">pC1b</tspan></text>
      <text class="cls-4" transform="translate(256.8 141.5) rotate(-60)"><tspan x="0" y="0">pC1c</tspan></text>
      <text class="cls-4" transform="translate(256.8 141.5) rotate(-60)"><tspan x="0" y="0">pC1c</tspan></text>
      <text class="cls-4" transform="translate(298 141.5) rotate(-60)"><tspan x="0" y="0">pC1d</tspan></text>
      <text class="cls-4" transform="translate(298 141.5) rotate(-60)"><tspan x="0" y="0">pC1d</tspan></text>
      <text class="cls-4" transform="translate(339.2 141.5) rotate(-60)"><tspan x="0" y="0">pC1e</tspan></text>
      <text class="cls-4" transform="translate(339.2 141.5) rotate(-60)"><tspan x="0" y="0">pC1e</tspan></text>
      <text class="cls-4" transform="translate(380.4 141.5) rotate(-60)"><tspan x="0" y="0">oviIN</tspan></text>
      <text class="cls-4" transform="translate(380.4 141.5) rotate(-60)"><tspan x="0" y="0">oviIN</tspan></text>
      <text class="cls-4" transform="translate(421.6 141.5) rotate(-60)"><tspan x="0" y="0">SMP550</tspan></text>
      <text class="cls-4" transform="translate(421.6 141.5) rotate(-60)"><tspan x="0" y="0">SMP550</tspan></text>
      <text class="cls-4" transform="translate(462.7 141.5) rotate(-60)"><tspan x="0" y="0">SLP410</tspan></text>
      <text class="cls-4" transform="translate(462.7 141.5) rotate(-60)"><tspan x="0" y="0">SLP410</tspan></text>
      <text class="cls-4" transform="translate(503.9 141.5) rotate(-60)"><tspan x="0" y="0">oviDNa</tspan></text>
      <text class="cls-4" transform="translate(503.9 141.5) rotate(-60)"><tspan x="0" y="0">oviDNa</tspan></text>
      <text class="cls-4" transform="translate(545.1 141.5) rotate(-60)"><tspan x="0" y="0">oviDNb</tspan></text>
      <text class="cls-4" transform="translate(545.1 141.5) rotate(-60)"><tspan x="0" y="0">oviDNb</tspan></text>
      <text class="cls-8" transform="translate(279.8 61.7)"><tspan x="0" y="0">postsynaptic</tspan></text>
      <text class="cls-8" transform="translate(279.8 61.7)"><tspan x="0" y="0">postsynaptic</tspan></text>
      <path class="cls-3" d="M107.5,590.5V149.5"/>
      <path class="cls-3" d="M101.5,570.5h8M101.5,530.5h8M101.5,490.5h8M101.5,450.5h8M101.5,410.5h8M101.5,370.5h8M101.5,329.5h8M101.5,289.5h8M101.5,249.5h8M101.5,209.5h8M101.5,169.5h8M0,0"/>
      <text class="cls-4" transform="translate(42.4 576.5)"><tspan x="0" y="0">oviDNb</tspan></text>
      <text class="cls-4" transform="translate(42.4 576.5)"><tspan x="0" y="0">oviDNb</tspan></text>
      <text class="cls-4" transform="translate(42.4 536.4)"><tspan x="0" y="0">oviDNa</tspan></text>
      <text class="cls-4" transform="translate(42.4 536.4)"><tspan x="0" y="0">oviDNa</tspan></text>
      <text class="cls-4" transform="translate(37.8 496.3)"><tspan x="0" y="0">SLP410</tspan></text>
      <text class="cls-4" transform="translate(37.8 496.3)"><tspan x="0" y="0">SLP410</tspan></text>
      <text class="cls-4" transform="translate(33.2 456.2)"><tspan x="0" y="0">SMP550</tspan></text>
      <text class="cls-4" transform="translate(33.2 456.2)"><tspan x="0" y="0">SMP550</tspan></text>
      <text class="cls-4" transform="translate(58.9 416.1)"><tspan x="0" y="0">oviIN</tspan></text>
      <text class="cls-4" transform="translate(58.9 416.1)"><tspan x="0" y="0">oviIN</tspan></text>
      <text class="cls-4" transform="translate(57.1 376)"><tspan x="0" y="0">pC1e</tspan></text>
      <text class="cls-4" transform="translate(57.1 376)"><tspan x="0" y="0">pC1e</tspan></text>
      <text class="cls-4" transform="translate(57.1 335.9)"><tspan x="0" y="0">pC1d</tspan></text>
      <text class="cls-4" transform="translate(57.1 335.9)"><tspan x="0" y="0">pC1d</tspan></text>
      <text class="cls-4" transform="translate(58 295.8)"><tspan x="0" y="0">pC1c</tspan></text>
      <text class="cls-4" transform="translate(58 295.8)"><tspan x="0" y="0">pC1c</tspan></text>
      <text class="cls-4" transform="translate(57.1 255.7)"><tspan x="0" y="0">pC1b</tspan></text>
      <text class="cls-4" transform="translate(57.1 255.7)"><tspan x="0" y="0">pC1b</tspan></text>
      <text class="cls-4" transform="translate(57.1 215.6)"><tspan x="0" y="0">pC1a</tspan></text>
      <text class="cls-4" transform="translate(57.1 215.6)"><tspan x="0" y="0">pC1a</tspan></text>
      <text class="cls-4" transform="translate(61.7 175.5)"><tspan x="0" y="0">SAG</tspan></text>
      <text class="cls-4" transform="translate(61.7 175.5)"><tspan x="0" y="0">SAG</tspan></text>
      <text class="cls-8" transform="translate(21.2 419.9) rotate(-90)"><tspan x="0" y="0">presynaptic</tspan></text>
      <text class="cls-8" transform="translate(21.2 419.9) rotate(-90)"><tspan x="0" y="0">presynaptic</tspan></text>
      <path class="cls-3" d="M596.5,159.5h25v421h-25V159.5Z"/>
      <text class="cls-8" transform="translate(591.5 580.5) rotate(-90)"><tspan x="0" y="0">synapse count</tspan></text>
      <text class="cls-8" transform="translate(591.5 580.5) rotate(-90)"><tspan x="0" y="0">synapse count</tspan></text>
      <path class="cls-3" d="M621.5,580.5h-5M621.5,517.5h-5M621.5,454.5h-5M621.5,391.5h-5M621.5,328.5h-5M621.5,265.5h-5M621.5,202.5h-5"/>
      <text class="cls-4" transform="translate(629.5 586.4)"><tspan x="0" y="0">0</tspan></text>
      <text class="cls-4" transform="translate(629.5 586.4)"><tspan x="0" y="0">0</tspan></text>
      <text class="cls-4" transform="translate(629.5 523.5)"><tspan x="0" y="0">100</tspan></text>
      <text class="cls-4" transform="translate(629.5 523.5)"><tspan x="0" y="0">100</tspan></text>
      <text class="cls-4" transform="translate(629.5 460.6)"><tspan x="0" y="0">200</tspan></text>
      <text class="cls-4" transform="translate(629.5 460.6)"><tspan x="0" y="0">200</tspan></text>
      <text class="cls-4" transform="translate(629.5 397.6)"><tspan x="0" y="0">300</tspan></text>
      <text class="cls-4" transform="translate(629.5 397.6)"><tspan x="0" y="0">300</tspan></text>
      <text class="cls-4" transform="translate(629.5 334.7)"><tspan x="0" y="0">400</tspan></text>
      <text class="cls-4" transform="translate(629.5 334.7)"><tspan x="0" y="0">400</tspan></text>
      <text class="cls-4" transform="translate(629.5 271.8)"><tspan x="0" y="0">500</tspan></text>
      <text class="cls-4" transform="translate(629.5 271.8)"><tspan x="0" y="0">500</tspan></text>
      <text class="cls-4" transform="translate(629.5 208.8)"><tspan x="0" y="0">600</tspan></text>
      <text class="cls-4" transform="translate(629.5 208.8)"><tspan x="0" y="0">600</tspan></text>
      <text class="cls-15" transform="translate(107.5 29.5)"><tspan x="0" y="0">Connectivity among oviposition cell types</tspan></text>
      <text class="cls-15" transform="translate(107.5 29.5)"><tspan x="0" y="0">Connectivity among oviposition cell types</tspan></text>
    </g>
  </g>
</svg>