<?xml version="1.0" encoding="UTF-8"?>
<svg xmlns="http://www.w3.org/2000/svg" xmlns:xlink="http://www.w3.org/1999/xlink" version="1.1" viewBox="0 0 504 432">
  <defs>
    <style>
      .cls-1 {
        fill: #1aa4d6;
      }

      .cls-1, .cls-2, .cls-3, .cls-4 {
        stroke-width: 0px;
      }

      .cls-5 {
        clip-path: url(#clippath);
      }

      .cls-2, .cls-6 {
        fill: none;
      }

      .cls-7 {
        clip-path: url(#clippath-1);
      }

      .cls-8 {
        clip-path: url(#clippath-4);
      }

      .cls-9 {
        clip-path: url(#clippath-3);
      }

      .cls-10 {
        clip-path: url(#clippath-2);
      }

      .cls-11 {
        clip-path: url(#clippath-7);
      }

      .cls-12 {
        clip-path: url(#clippath-8);
      }

      .cls-13 {
        clip-path: url(#clippath-6);
      }

      .cls-14 {
        clip-path: url(#clippath-5);
      }

      .cls-15 {
        clip-path: url(#clippath-9);
      }

      .cls-3, .cls-16 {
        fill: #000;
      }

      .cls-17 {
        clip-path: url(#clippath-10);
      }

      .cls-18 {
        fill: #36c;
        font-family: MyriadPro-Regular, 'Myriad Pro';
        font-size: 12px;
      }

      .cls-16 {
        stroke-linejoin: round;
      }

      .cls-16, .cls-6 {
        stroke: #000;
        stroke-width: .8px;
      }

      .cls-4 {
        fill: #fff;
      }

      .cls-6 {
        stroke-linecap: square;
      }
    </style>
    <clipPath id="clippath">
      <rect class="cls-2" x="82.9" y="30.5" width="410.3" height="301.9"/>
    </clipPath>
    <clipPath id="clippath-1">
      <rect class="cls-2" x="82.9" y="30.5" width="410.3" height="301.9"/>
    </clipPath>
    <clipPath id="clippath-2">
      <rect class="cls-2" x="82.9" y="30.5" width="410.3" height="301.9"/>
    </clipPath>
    <clipPath id="clippath-3">
      <rect class="cls-2" x="82.9" y="30.5" width="410.3" height="301.9"/>
    </clipPath>
    <clipPath id="clippath-4">
      <rect class="cls-2" x="82.9" y="30.5" width="410.3" height="301.9"/>
    </clipPath>
    <clipPath id="clippath-5">
      <rect class="cls-2" x="82.9" y="30.5" width="410.3" height="301.9"/>
    </clipPath>
    <clipPath id="clippath-6">
      <rect class="cls-2" x="82.9" y="30.5" width="410.3" height="301.9"/>
    </clipPath>
    <clipPath id="clippath-7">
      <rect class="cls-2" x="82.9" y="30.5" width="410.3" height="301.9"/>
    </clipPath>
    <clipPath id="clippath-8">
      <rect class="cls-2" x="82.9" y="30.5" width="410.3" height="301.9"/>
    </clipPath>
    <clipPath id="clippath-9">
      <rect class="cls-2" x="82.9" y="30.5" width="410.3" height="301.9"/>
    </clipPath>
    <clipPath id="clippath-10">
      <rect class="cls-2" x="82.9" y="30.5" width="410.3" height="301.9"/>
    </clipPath>
  </defs>
  <g id="Layer_1" data-name="Layer 1">
    <g id="figure_1" data-name="figure 1">
      <g id="axes_1" data-name="axes 1">
        <g id="patch_2" data-name="patch 2">
          <path class="cls-4" d="M82.9,332.4h410.3V30.5H82.9v301.9Z"/>
        </g>
        <g id="patch_3" data-name="patch 3">
          <g class="cls-5">
            <path class="cls-1" d="M92.2,332.4h18.6v-8.4h-18.6v8.4Z"/>
          </g>
        </g>
        <g id="patch_4" data-name="patch 4">
          <g class="cls-7">
            <path class="cls-1" d="M129.5,332.4h18.6v-5.5h-18.6v5.5Z"/>
          </g>
        </g>
        <g id="patch_5" data-name="patch 5">
          <g class="cls-10">
            <path class="cls-1" d="M166.8,332.4h18.6v-49.6h-18.6v49.6Z"/>
          </g>
        </g>
        <g id="patch_6" data-name="patch 6">
          <g class="cls-9">
            <path class="cls-1" d="M204.1,332.4h18.6v-6.3h-18.6v6.3Z"/>
          </g>
        </g>
        <g id="patch_7" data-name="patch 7">
          <g class="cls-8">
            <path class="cls-1" d="M241.4,332.4h18.6v-5.9h-18.6v5.9Z"/>
          </g>
        </g>
        <g id="patch_8" data-name="patch 8">
          <g class="cls-14">
            <path class="cls-1" d="M278.7,332.4h18.6V44.9h-18.6v287.6Z"/>
          </g>
        </g>
        <g id="patch_9" data-name="patch 9">
          <g class="cls-13">
            <path class="cls-1" d="M316,332.4h18.6v-21.8h-18.6v21.8Z"/>
          </g>
        </g>
        <g id="patch_10" data-name="patch 10">
          <g class="cls-11">
            <path class="cls-1" d="M353.3,332.4h18.6v-26.9h-18.6v26.9Z"/>
          </g>
        </g>
        <g id="patch_11" data-name="patch 11">
          <g class="cls-12">
            <path class="cls-1" d="M390.6,332.4h18.6v-29.8h-18.6v29.8Z"/>
          </g>
        </g>
        <g id="patch_12" data-name="patch 12">
          <g class="cls-15">
            <path class="cls-1" d="M427.9,332.4h18.6v-46.7h-18.6v46.7Z"/>
          </g>
        </g>
        <g id="patch_13" data-name="patch 13">
          <g class="cls-17">
            <path class="cls-1" d="M465.2,332.4h18.6v-28.7h-18.6v28.7Z"/>
          </g>
        </g>
        <g id="matplotlib.axis_1" data-name="matplotlib.axis 1">
          <g id="xtick_1" data-name="xtick 1">
            <g id="line2d_1" data-name="line2d 1">
              <path id="m06a910f4f4" class="cls-16" d="M101.6,332.4v3.5"/>
            </g>
            <g id="text_1" data-name="text 1">
              <g>
                <path id="DejaVuSans-53" class="cls-3" d="M77.1,355.4l1,1c-.5.2-1,.4-1.4.7-.4.2-.8.5-1.1.8-.5.5-.8,1-.9,1.5,0,.5,0,.9.4,1.3s.7.5,1,.4c.4,0,.8-.3,1.5-.7l.7-.5c.9-.6,1.6-.9,2.3-.9s1.3.3,1.9.9,1,1.5.9,2.3c-.1.8-.6,1.7-1.5,2.6s-.7.7-1.2,1c-.5.3-1,.6-1.5.9l-1-1c.6-.2,1.2-.4,1.7-.7.5-.3.9-.6,1.3-1,.6-.6.9-1.1,1-1.6,0-.5,0-1-.5-1.4s-.7-.5-1.2-.5-.9.2-1.5.6l-.7.5c-.9.6-1.6.9-2.3.9-.6,0-1.2-.3-1.8-.8s-.9-1.4-.8-2.2c0-.8.5-1.6,1.3-2.4s.7-.7,1.1-.9c.4-.3.9-.6,1.4-.8Z"/>
                <path id="DejaVuSans-41" class="cls-3" d="M82.4,351.6l2.3,4.9,2.7-2.7-4.9-2.3ZM80.8,351.2l1.1-1.1,10,4.5-1,1-2.5-1.2-3.3,3.3,1.2,2.5-1,1-4.5-10Z"/>
                <path id="DejaVuSans-47" class="cls-3" d="M96.7,347.7l-1.9-1.9-1.6,1.6-.8-.8,2.6-2.6,3.1,3.1c-.1.6-.3,1.3-.6,1.9-.3.6-.7,1.1-1.2,1.7-1.1,1.1-2.3,1.7-3.6,1.7-1.3,0-2.5-.6-3.7-1.8s-1.8-2.4-1.8-3.7c0-1.3.5-2.5,1.7-3.6s1-.9,1.5-1.2c.5-.3,1.1-.5,1.7-.7l1,1c-.7,0-1.3.2-1.8.5s-1.1.6-1.5,1c-.9.9-1.3,1.8-1.3,2.7,0,.9.6,1.9,1.5,2.9s1.9,1.5,2.9,1.5c.9,0,1.8-.4,2.7-1.3s.6-.7.8-1c.2-.3.4-.7.5-1Z"/>
              </g>
            </g>
          </g>
          <g id="xtick_2" data-name="xtick 2">
            <g id="line2d_2" data-name="line2d 2">
              <path id="m06a910f4f4-2" data-name="m06a910f4f4" class="cls-16" d="M138.9,332.4v3.5"/>
            </g>
            <g id="text_2" data-name="text 2">
              <g>
                <path id="DejaVuSans-53-2" data-name="DejaVuSans-53" class="cls-3" d="M86.3,383l1,1c-.5.2-1,.4-1.4.7-.4.2-.8.5-1.1.8-.5.5-.8,1-.9,1.5,0,.5,0,.9.4,1.3s.7.5,1,.4c.4,0,.8-.3,1.5-.7l.7-.5c.9-.6,1.6-.9,2.3-.9s1.3.3,1.9.9,1,1.5.9,2.3c-.1.8-.6,1.7-1.5,2.6s-.7.7-1.2,1c-.5.3-1,.6-1.5.9l-1-1c.6-.2,1.2-.4,1.7-.7.5-.3.9-.6,1.3-1,.6-.6.9-1.1,1-1.6,0-.5,0-1-.5-1.4s-.7-.5-1.2-.5-.9.2-1.5.6l-.7.5c-.9.6-1.6.9-2.3.9-.6,0-1.2-.3-1.8-.8s-.9-1.4-.8-2.2c0-.8.5-1.6,1.3-2.4s.7-.7,1.1-.9c.4-.3.9-.6,1.4-.8Z"/>
                <path id="DejaVuSans-4c" class="cls-3" d="M88.1,380.8l1-1,6.4,6.4,3.5-3.5.8.8-4.5,4.5-7.2-7.2Z"/>
                <path id="DejaVuSans-50" class="cls-3" d="M95.4,375.1l2.7,2.7,1.2-1.2c.5-.5.7-.9.7-1.4,0-.5-.2-.9-.6-1.4s-.9-.6-1.4-.6c-.5,0-1,.2-1.4.7l-1.2,1.2ZM93.6,375.3l2.2-2.2c.8-.8,1.6-1.2,2.4-1.3.8,0,1.5.3,2.2,1s1,1.5,1,2.2c0,.8-.5,1.6-1.3,2.4l-1.2,1.2,2.9,2.9-1,1-7.2-7.2Z"/>
                <path id="DejaVuSans-34" class="cls-3" d="M103.2,367.4l1.4,6.3,2.5-2.5-3.9-3.9ZM102.1,366.8l1.2-1.2,4.7,4.7,1-1,.8.8-1,1,1.7,1.7-1,1-1.7-1.7-3.3,3.3-.9-.9-1.6-7.6Z"/>
                <path id="DejaVuSans-31" class="cls-3" d="M112.5,369.1l1.6-1.6-5.5-5.5-1.4,2.1-.9-.9,1.4-2.1,1-1,6.4,6.4,1.6-1.6.8.8-4.2,4.2-.8-.8Z"/>
                <path id="DejaVuSans-30" class="cls-3" d="M115,355.2c-.5.5-.6,1.1-.4,1.9.2.7.9,1.6,1.9,2.6s1.9,1.6,2.6,1.8c.7.2,1.4.1,1.9-.4s.6-1.1.4-1.9c-.2-.7-.9-1.6-1.8-2.6s-1.9-1.6-2.6-1.8c-.7-.2-1.4-.1-1.9.4ZM114.2,354.4c.8-.8,1.7-1.1,2.8-.9,1.1.2,2.2.9,3.4,2.1s1.9,2.4,2.1,3.4c.2,1.1,0,2-.9,2.8s-1.7,1.1-2.8.9c-1.1-.2-2.2-.9-3.4-2.1s-1.9-2.4-2.1-3.4c-.2-1.1,0-2,.9-2.8Z"/>
                <path id="DejaVuSans-5f" class="cls-3" d="M131.4,355.2l.7.7-5.1,5.1-.7-.7,5.1-5.1Z"/>
                <path id="DejaVuSans-52" class="cls-3" d="M130.7,345.9c.3-.1.6-.2,1.1-.2s.9.2,1.6.4l3,1-1.1,1.1-2.8-.9c-.7-.2-1.3-.3-1.7-.3s-.8.3-1.2.7l-1.1,1.1,3.1,3.1-1,1-7.2-7.2,2.2-2.2c.8-.8,1.6-1.3,2.4-1.3.8,0,1.5.3,2.2,1s.7.9.8,1.4c0,.5,0,1-.3,1.5ZM125.2,345.3l2.6,2.6,1.2-1.2c.5-.5.7-.9.7-1.4s-.2-.9-.6-1.3-.9-.6-1.3-.6-.9.3-1.4.7l-1.2,1.2Z"/>
              </g>
            </g>
          </g>
          <g id="xtick_3" data-name="xtick 3">
            <g id="line2d_3" data-name="line2d 3">
              <path id="m06a910f4f4-3" data-name="m06a910f4f4" class="cls-16" d="M176.2,332.4v3.5"/>
            </g>
            <g id="text_3" data-name="text 3">
              <g>
                <path id="DejaVuSans-53-3" data-name="DejaVuSans-53" class="cls-3" d="M120.6,386l1,1c-.5.2-1,.4-1.4.7-.4.2-.8.5-1.1.8-.5.5-.8,1-.9,1.5,0,.5,0,.9.4,1.3s.7.5,1,.4c.4,0,.8-.3,1.5-.7l.7-.5c.9-.6,1.6-.9,2.3-.9s1.3.3,1.9.9,1,1.5.9,2.3c-.1.8-.6,1.7-1.5,2.6s-.7.7-1.2,1c-.5.3-1,.6-1.5.9l-1-1c.6-.2,1.2-.4,1.7-.7.5-.3.9-.6,1.3-1,.6-.6.9-1.1,1-1.6,0-.5,0-1-.5-1.4s-.7-.5-1.2-.5-.9.2-1.5.6l-.7.5c-.9.6-1.6.9-2.3.9-.6,0-1.2-.3-1.8-.8s-.9-1.4-.8-2.2c0-.8.5-1.6,1.3-2.4s.7-.7,1.1-.9c.4-.3.9-.6,1.4-.8Z"/>
                <path id="DejaVuSans-4d" class="cls-3" d="M122.3,383.8l1.5-1.5,6.8,3.1-3.1-6.8,1.5-1.5,7.2,7.2-1,1-6.3-6.3,3.1,6.8-1,1-6.8-3.1,6.3,6.3-.9.9-7.2-7.2Z"/>
                <path id="DejaVuSans-50-2" data-name="DejaVuSans-50" class="cls-3" d="M132.7,375.1l2.7,2.7,1.2-1.2c.5-.5.7-.9.7-1.4,0-.5-.2-.9-.6-1.4s-.9-.6-1.4-.6c-.5,0-1,.2-1.4.7l-1.2,1.2ZM130.9,375.3l2.2-2.2c.8-.8,1.6-1.2,2.4-1.3.8,0,1.5.3,2.2,1s1,1.5,1,2.2c0,.8-.5,1.6-1.3,2.4l-1.2,1.2,2.9,2.9-1,1-7.2-7.2Z"/>
                <path id="DejaVuSans-35" class="cls-3" d="M137,369.2l3.8-3.8.8.8-2.9,2.9,1.8,1.8c0-.2.2-.4.3-.5.1-.2.2-.3.4-.5.8-.8,1.7-1.2,2.6-1.3.9,0,1.7.3,2.5,1.1s1.1,1.6,1.1,2.5c0,.9-.5,1.8-1.4,2.7s-.6.6-1,.8c-.4.3-.8.5-1.2.7l-1-1c.4-.1.9-.3,1.3-.5s.8-.5,1.1-.9c.6-.6.9-1.1.9-1.8,0-.6-.2-1.2-.7-1.7s-1.1-.7-1.7-.7c-.6,0-1.2.3-1.8.9s-.5.6-.7.9c-.2.3-.4.7-.5,1.1l-3.6-3.6Z"/>
                <path id="DejaVuSans-35-2" data-name="DejaVuSans-35" class="cls-3" d="M143.2,362.9l3.8-3.8.8.8-2.9,2.9,1.8,1.8c0-.2.2-.4.3-.5.1-.2.2-.3.4-.5.8-.8,1.7-1.2,2.6-1.3.9,0,1.7.3,2.5,1.1s1.1,1.6,1.1,2.5c0,.9-.5,1.8-1.4,2.7s-.6.6-1,.8c-.4.3-.8.5-1.2.7l-1-1c.4-.1.9-.3,1.3-.5s.8-.5,1.1-.9c.6-.6.9-1.1.9-1.8,0-.6-.2-1.2-.7-1.7s-1.1-.7-1.7-.7c-.6,0-1.2.3-1.8.9s-.5.6-.7.9c-.2.3-.4.7-.5,1.1l-3.6-3.6Z"/>
                <path id="DejaVuSans-30-2" data-name="DejaVuSans-30" class="cls-3" d="M152.3,355.2c-.5.5-.6,1.1-.4,1.9.2.7.9,1.6,1.9,2.6s1.9,1.6,2.6,1.8c.7.2,1.4.1,1.9-.4s.6-1.1.4-1.9c-.2-.7-.9-1.6-1.8-2.6s-1.9-1.6-2.6-1.8c-.7-.2-1.4-.1-1.9.4ZM151.5,354.4c.8-.8,1.7-1.1,2.8-.9,1.1.2,2.2.9,3.4,2.1s1.9,2.4,2.1,3.4c.2,1.1,0,2-.9,2.8s-1.7,1.1-2.8.9c-1.1-.2-2.2-.9-3.4-2.1s-1.9-2.4-2.1-3.4c-.2-1.1,0-2,.9-2.8Z"/>
                <path id="DejaVuSans-5f-2" data-name="DejaVuSans-5f" class="cls-3" d="M168.7,355.2l.7.7-5.1,5.1-.7-.7,5.1-5.1Z"/>
                <path id="DejaVuSans-52-2" data-name="DejaVuSans-52" class="cls-3" d="M168,345.9c.3-.1.6-.2,1.1-.2s.9.2,1.6.4l3,1-1.1,1.1-2.8-.9c-.7-.2-1.3-.3-1.7-.3s-.8.3-1.2.7l-1.1,1.1,3.1,3.1-1,1-7.2-7.2,2.2-2.2c.8-.8,1.6-1.3,2.4-1.3.8,0,1.5.3,2.2,1s.7.9.8,1.4c0,.5,0,1-.3,1.5ZM162.5,345.3l2.6,2.6,1.2-1.2c.5-.5.7-.9.7-1.4s-.2-.9-.6-1.3-.9-.6-1.3-.6-.9.3-1.4.7l-1.2,1.2Z"/>
              </g>
            </g>
          </g>
          <g id="xtick_4" data-name="xtick 4">
            <g id="line2d_4" data-name="line2d 4">
              <path id="m06a910f4f4-4" data-name="m06a910f4f4" class="cls-16" d="M213.5,332.4v3.5"/>
            </g>
            <g id="text_4" data-name="text 4">
              <g>
                <path id="DejaVuSans-6f" class="cls-3" d="M161.8,386.7c-.5.5-.7,1-.6,1.7s.5,1.3,1.1,1.9,1.3,1,1.9,1.1c.6,0,1.2,0,1.7-.6s.7-1,.6-1.7c0-.7-.5-1.3-1.1-1.9s-1.3-1-1.9-1.1c-.7,0-1.2,0-1.7.6ZM161,386c.8-.8,1.6-1.1,2.6-1.1.9,0,1.9.5,2.8,1.4s1.4,1.8,1.4,2.8c0,.9-.3,1.8-1.1,2.6s-1.6,1.1-2.6,1.1c-.9,0-1.9-.5-2.7-1.4s-1.4-1.8-1.4-2.7c0-.9.3-1.8,1.1-2.6Z"/>
                <path id="DejaVuSans-76" class="cls-3" d="M164.5,382.8l.9-.9,6.2,2.9-2.9-6.2.9-.9,3.4,7.4-1.2,1.2-7.4-3.4Z"/>
                <path id="DejaVuSans-69" class="cls-3" d="M171,376.3l.9-.9,5.4,5.4-.9.9-5.4-5.4ZM168.9,374.2l.9-.9,1.1,1.1-.9.9-1.1-1.1Z"/>
                <path id="DejaVuSans-44" class="cls-3" d="M173.7,371.5l5.6,5.6,1.2-1.2c1-1,1.5-2,1.5-2.9,0-.9-.5-1.9-1.4-2.8s-1.9-1.4-2.8-1.4-1.9.5-2.9,1.5l-1.2,1.2ZM172,371.7l2-2c1.4-1.4,2.7-2.1,4-2.2,1.2,0,2.5.5,3.7,1.7s1.8,2.5,1.8,3.7c0,1.2-.8,2.6-2.2,3.9l-2,2-7.2-7.2Z"/>
                <path id="DejaVuSans-4e" class="cls-3" d="M179.6,364.1l1.3-1.3,9.2,2.8-6-6,.9-.9,7.2,7.2-1.3,1.3-9.2-2.8,6,6-.9.9-7.2-7.2Z"/>
                <path id="DejaVuSans-61" class="cls-3" d="M193.9,358.7c-.7.7-1.1,1.3-1.2,1.7s0,.9.4,1.3.7.5,1.1.4c.4,0,.8-.2,1.1-.6s.7-1.1.7-1.7-.4-1.3-.9-1.8l-.2-.2-.9.9ZM195.3,356.6l3.1,3.1-.9.9-.8-.8c.1.5.1,1,0,1.5-.1.5-.4.9-.9,1.3s-1.2.8-1.8.9c-.6,0-1.2-.2-1.7-.8s-.9-1.3-.8-2c0-.7.6-1.5,1.4-2.3l1.2-1.2h0c-.4-.5-.9-.7-1.4-.6s-1,.3-1.5.8-.6.6-.8,1c-.2.4-.4.8-.5,1.2l-.8-.8c.2-.5.4-.9.7-1.2.2-.4.5-.7.8-1,.8-.8,1.6-1.2,2.4-1.1.8,0,1.6.4,2.4,1.3Z"/>
                <path id="DejaVuSans-5f-3" data-name="DejaVuSans-5f" class="cls-3" d="M206,355.4l.7.7-5.1,5.1-.7-.7,5.1-5.1Z"/>
                <path id="DejaVuSans-52-3" data-name="DejaVuSans-52" class="cls-3" d="M205.3,346c.3-.1.6-.2,1.1-.2s.9.2,1.6.4l3,1-1.1,1.1-2.8-.9c-.7-.2-1.3-.3-1.7-.3s-.8.3-1.2.7l-1.1,1.1,3.1,3.1-1,1-7.2-7.2,2.2-2.2c.8-.8,1.6-1.3,2.4-1.3.8,0,1.5.3,2.2,1s.7.9.8,1.4c0,.5,0,1-.3,1.5ZM199.8,345.5l2.6,2.6,1.2-1.2c.5-.5.7-.9.7-1.4s-.2-.9-.6-1.3-.9-.6-1.3-.6-.9.3-1.4.7l-1.2,1.2Z"/>
              </g>
            </g>
          </g>
          <g id="xtick_5" data-name="xtick 5">
            <g id="line2d_5" data-name="line2d 5">
              <path id="m06a910f4f4-5" data-name="m06a910f4f4" class="cls-16" d="M250.8,332.4v3.5"/>
            </g>
            <g id="text_5" data-name="text 5">
              <g>
                <path id="DejaVuSans-6f-2" data-name="DejaVuSans-6f" class="cls-3" d="M198.9,386.9c-.5.5-.7,1-.6,1.7s.5,1.3,1.1,1.9,1.3,1,1.9,1.1c.6,0,1.2,0,1.7-.6s.7-1,.6-1.7c0-.7-.5-1.3-1.1-1.9s-1.3-1-1.9-1.1c-.7,0-1.2,0-1.7.6ZM198.1,386.2c.8-.8,1.6-1.1,2.6-1.1.9,0,1.9.5,2.8,1.4s1.4,1.8,1.4,2.8c0,.9-.3,1.8-1.1,2.6s-1.6,1.1-2.6,1.1c-.9,0-1.9-.5-2.7-1.4s-1.4-1.8-1.4-2.7c0-.9.3-1.8,1.1-2.6Z"/>
                <path id="DejaVuSans-76-2" data-name="DejaVuSans-76" class="cls-3" d="M201.6,383l.9-.9,6.2,2.9-2.9-6.2.9-.9,3.4,7.4-1.2,1.2-7.4-3.4Z"/>
                <path id="DejaVuSans-69-2" data-name="DejaVuSans-69" class="cls-3" d="M208,376.5l.9-.9,5.4,5.4-.9.9-5.4-5.4ZM205.9,374.4l.9-.9,1.1,1.1-.9.9-1.1-1.1Z"/>
                <path id="DejaVuSans-44-2" data-name="DejaVuSans-44" class="cls-3" d="M210.8,371.7l5.6,5.6,1.2-1.2c1-1,1.5-2,1.5-2.9,0-.9-.5-1.9-1.4-2.8s-1.9-1.4-2.8-1.4-1.9.5-2.9,1.5l-1.2,1.2ZM209,371.9l2-2c1.4-1.4,2.7-2.1,4-2.2,1.2,0,2.5.5,3.7,1.7s1.8,2.5,1.8,3.7c0,1.2-.8,2.6-2.2,3.9l-2,2-7.2-7.2Z"/>
                <path id="DejaVuSans-4e-2" data-name="DejaVuSans-4e" class="cls-3" d="M216.7,364.3l1.3-1.3,9.2,2.8-6-6,.9-.9,7.2,7.2-1.3,1.3-9.2-2.8,6,6-.9.9-7.2-7.2Z"/>
                <path id="DejaVuSans-62" class="cls-3" d="M232.4,357.5c-.7-.7-1.3-1-1.9-1.1s-1.2,0-1.7.6-.7,1-.6,1.7.5,1.3,1.1,1.9,1.3,1,1.9,1.1c.6.1,1.2,0,1.7-.6s.7-1,.6-1.7c-.1-.6-.5-1.3-1.1-1.9ZM227.5,358.7c-.1-.5-.1-1,0-1.4.1-.4.4-.9.8-1.3.7-.7,1.5-.9,2.4-.8.9.1,1.8.6,2.7,1.4s1.3,1.7,1.4,2.7c.1.9-.2,1.7-.8,2.4s-.8.7-1.3.8c-.4.1-.9.1-1.4,0l.8.8-.9.9-7.5-7.5.9-.9,2.9,2.9Z"/>
                <path id="DejaVuSans-5f-4" data-name="DejaVuSans-5f" class="cls-3" d="M243.3,355.4l.7.7-5.1,5.1-.7-.7,5.1-5.1Z"/>
                <path id="DejaVuSans-52-4" data-name="DejaVuSans-52" class="cls-3" d="M242.6,346c.3-.1.6-.2,1.1-.2s.9.2,1.6.4l3,1-1.1,1.1-2.8-.9c-.7-.2-1.3-.3-1.7-.3s-.8.3-1.2.7l-1.1,1.1,3.1,3.1-1,1-7.2-7.2,2.2-2.2c.8-.8,1.6-1.3,2.4-1.3.8,0,1.5.3,2.2,1s.7.9.8,1.4c0,.5,0,1-.3,1.5ZM237.1,345.5l2.6,2.6,1.2-1.2c.5-.5.7-.9.7-1.4s-.2-.9-.6-1.3-.9-.6-1.3-.6-.9.3-1.4.7l-1.2,1.2Z"/>
              </g>
            </g>
          </g>
          <g id="xtick_6" data-name="xtick 6">
            <g id="line2d_6" data-name="line2d 6">
              <path id="m06a910f4f4-6" data-name="m06a910f4f4" class="cls-16" d="M288.1,332.4v3.5"/>
            </g>
            <g id="text_6" data-name="text 6">
              <g>
                <path id="DejaVuSans-6f-3" data-name="DejaVuSans-6f" class="cls-3" d="M247.1,375.9c-.5.5-.7,1-.6,1.7s.5,1.3,1.1,1.9,1.3,1,1.9,1.1c.6,0,1.2,0,1.7-.6s.7-1,.6-1.7c0-.7-.5-1.3-1.1-1.9s-1.3-1-1.9-1.1c-.7,0-1.2,0-1.7.6ZM246.4,375.2c.8-.8,1.6-1.1,2.6-1.1.9,0,1.9.5,2.8,1.4s1.4,1.8,1.4,2.8c0,.9-.3,1.8-1.1,2.6s-1.6,1.1-2.6,1.1c-.9,0-1.9-.5-2.7-1.4s-1.4-1.8-1.4-2.7c0-.9.3-1.8,1.1-2.6Z"/>
                <path id="DejaVuSans-76-3" data-name="DejaVuSans-76" class="cls-3" d="M249.8,372l.9-.9,6.2,2.9-2.9-6.2.9-.9,3.4,7.4-1.2,1.2-7.4-3.4Z"/>
                <path id="DejaVuSans-69-3" data-name="DejaVuSans-69" class="cls-3" d="M256.3,365.5l.9-.9,5.4,5.4-.9.9-5.4-5.4ZM254.2,363.4l.9-.9,1.1,1.1-.9.9-1.1-1.1Z"/>
                <path id="DejaVuSans-49" class="cls-3" d="M257.3,360.9l1-1,7.2,7.2-1,1-7.2-7.2Z"/>
                <path id="DejaVuSans-4e-3" data-name="DejaVuSans-4e" class="cls-3" d="M260.2,358l1.3-1.3,9.2,2.8-6-6,.9-.9,7.2,7.2-1.3,1.3-9.2-2.8,6,6-.9.9-7.2-7.2Z"/>
                <path id="DejaVuSans-5f-5" data-name="DejaVuSans-5f" class="cls-3" d="M280.6,355.4l.7.7-5.1,5.1-.7-.7,5.1-5.1Z"/>
                <path id="DejaVuSans-52-5" data-name="DejaVuSans-52" class="cls-3" d="M279.8,346c.3-.1.6-.2,1.1-.2s.9.2,1.6.4l3,1-1.1,1.1-2.8-.9c-.7-.2-1.3-.3-1.7-.3s-.8.3-1.2.7l-1.1,1.1,3.1,3.1-1,1-7.2-7.2,2.2-2.2c.8-.8,1.6-1.3,2.4-1.3.8,0,1.5.3,2.2,1s.7.9.8,1.4c0,.5,0,1-.3,1.5ZM274.4,345.5l2.6,2.6,1.2-1.2c.5-.5.7-.9.7-1.4s-.2-.9-.6-1.3-.9-.6-1.3-.6-.9.3-1.4.7l-1.2,1.2Z"/>
              </g>
            </g>
          </g>
          <g id="xtick_7" data-name="xtick 7">
            <g id="line2d_7" data-name="line2d 7">
              <path id="m06a910f4f4-7" data-name="m06a910f4f4" class="cls-16" d="M325.4,332.4v3.5"/>
            </g>
            <g id="text_7" data-name="text 7">
              <g>
                <path id="DejaVuSans-70" class="cls-3" d="M286.6,381.6l2.9,2.9-.9.9-7.5-7.5.9-.9.8.8c-.1-.5-.1-1,0-1.4.1-.4.4-.9.8-1.3.7-.7,1.5-.9,2.4-.8.9.1,1.8.6,2.7,1.4s1.3,1.7,1.4,2.7c.1.9-.2,1.7-.8,2.4s-.8.7-1.3.8c-.4.1-.9.1-1.4,0ZM287.7,376.6c-.7-.7-1.3-1-1.9-1.1s-1.2,0-1.7.6-.7,1-.6,1.7.5,1.3,1.1,1.9,1.3,1,1.9,1.1c.6.1,1.2,0,1.7-.6s.7-1,.6-1.7c-.1-.6-.5-1.3-1.1-1.9Z"/>
                <path id="DejaVuSans-43" class="cls-3" d="M291.6,364.8l1,1c-.6,0-1.2.1-1.7.4-.5.2-1,.5-1.4,1-.8.8-1.2,1.7-1.1,2.7s.6,1.9,1.5,2.8,1.9,1.5,2.8,1.5,1.8-.3,2.7-1.1.7-.9,1-1.4.3-1.1.4-1.7l1,1c-.1.6-.3,1.1-.6,1.6-.3.5-.6,1-1,1.4-1.1,1.1-2.3,1.6-3.6,1.6-1.3,0-2.5-.6-3.7-1.8s-1.8-2.4-1.8-3.7c0-1.3.5-2.5,1.6-3.6s.9-.8,1.4-1c.5-.3,1-.5,1.6-.6Z"/>
                <path id="DejaVuSans-31-2" data-name="DejaVuSans-31" class="cls-3" d="M299.2,368.9l1.6-1.6-5.5-5.5-1.4,2.1-.9-.9,1.4-2.1,1-1,6.4,6.4,1.6-1.6.8.8-4.2,4.2-.8-.8Z"/>
                <path id="DejaVuSans-61-2" data-name="DejaVuSans-61" class="cls-3" d="M305.8,358.5c-.7.7-1.1,1.3-1.2,1.7s0,.9.4,1.3.7.5,1.1.4c.4,0,.8-.2,1.1-.6s.7-1.1.7-1.7-.4-1.3-.9-1.8l-.2-.2-.9.9ZM307.2,356.4l3.1,3.1-.9.9-.8-.8c.1.5.1,1,0,1.5-.1.5-.4.9-.9,1.3s-1.2.8-1.8.9c-.6,0-1.2-.2-1.7-.8s-.9-1.3-.8-2c0-.7.6-1.5,1.4-2.3l1.2-1.2h0c-.4-.5-.9-.7-1.4-.6s-1,.3-1.5.8-.6.6-.8,1c-.2.4-.4.8-.5,1.2l-.8-.8c.2-.5.4-.9.7-1.2.2-.4.5-.7.8-1,.8-.8,1.6-1.2,2.4-1.1.8,0,1.6.4,2.4,1.3Z"/>
                <path id="DejaVuSans-5f-6" data-name="DejaVuSans-5f" class="cls-3" d="M317.9,355.2l.7.7-5.1,5.1-.7-.7,5.1-5.1Z"/>
                <path id="DejaVuSans-52-6" data-name="DejaVuSans-52" class="cls-3" d="M317.1,345.9c.3-.1.6-.2,1.1-.2s.9.2,1.6.4l3,1-1.1,1.1-2.8-.9c-.7-.2-1.3-.3-1.7-.3s-.8.3-1.2.7l-1.1,1.1,3.1,3.1-1,1-7.2-7.2,2.2-2.2c.8-.8,1.6-1.3,2.4-1.3.8,0,1.5.3,2.2,1s.7.9.8,1.4c0,.5,0,1-.3,1.5ZM311.7,345.3l2.6,2.6,1.2-1.2c.5-.5.7-.9.7-1.4s-.2-.9-.6-1.3-.9-.6-1.3-.6-.9.3-1.4.7l-1.2,1.2Z"/>
              </g>
            </g>
          </g>
          <g id="xtick_8" data-name="xtick 8">
            <g id="line2d_8" data-name="line2d 8">
              <path id="m06a910f4f4-8" data-name="m06a910f4f4" class="cls-16" d="M362.7,332.4v3.5"/>
            </g>
            <g id="text_8" data-name="text 8">
              <g>
                <path id="DejaVuSans-70-2" data-name="DejaVuSans-70" class="cls-3" d="M323.7,381.9l2.9,2.9-.9.9-7.5-7.5.9-.9.8.8c-.1-.5-.1-1,0-1.4.1-.4.4-.9.8-1.3.7-.7,1.5-.9,2.4-.8.9.1,1.8.6,2.7,1.4s1.3,1.7,1.4,2.7c.1.9-.2,1.7-.8,2.4s-.8.7-1.3.8c-.4.1-.9.1-1.4,0ZM324.8,377c-.7-.7-1.3-1-1.9-1.1s-1.2,0-1.7.6-.7,1-.6,1.7.5,1.3,1.1,1.9,1.3,1,1.9,1.1c.6.1,1.2,0,1.7-.6s.7-1,.6-1.7c-.1-.6-.5-1.3-1.1-1.9Z"/>
                <path id="DejaVuSans-43-2" data-name="DejaVuSans-43" class="cls-3" d="M328.7,365.2l1,1c-.6,0-1.2.1-1.7.4-.5.2-1,.5-1.4,1-.8.8-1.2,1.7-1.1,2.7s.6,1.9,1.5,2.8,1.9,1.5,2.8,1.5,1.8-.3,2.7-1.1.7-.9,1-1.4.3-1.1.4-1.7l1,1c-.1.6-.3,1.1-.6,1.6-.3.5-.6,1-1,1.4-1.1,1.1-2.3,1.6-3.6,1.6-1.3,0-2.5-.6-3.7-1.8s-1.8-2.4-1.8-3.7c0-1.3.5-2.5,1.6-3.6s.9-.8,1.4-1c.5-.3,1-.5,1.6-.6Z"/>
                <path id="DejaVuSans-31-3" data-name="DejaVuSans-31" class="cls-3" d="M336.3,369.3l1.6-1.6-5.5-5.5-1.4,2.1-.9-.9,1.4-2.1,1-1,6.4,6.4,1.6-1.6.8.8-4.2,4.2-.8-.8Z"/>
                <path id="DejaVuSans-62-2" data-name="DejaVuSans-62" class="cls-3" d="M344.3,357.5c-.7-.7-1.3-1-1.9-1.1s-1.2,0-1.7.6-.7,1-.6,1.7.5,1.3,1.1,1.9,1.3,1,1.9,1.1c.6.1,1.2,0,1.7-.6s.7-1,.6-1.7c-.1-.6-.5-1.3-1.1-1.9ZM339.4,358.7c-.1-.5-.1-1,0-1.4.1-.4.4-.9.8-1.3.7-.7,1.5-.9,2.4-.8.9.1,1.8.6,2.7,1.4s1.3,1.7,1.4,2.7c.1.9-.2,1.7-.8,2.4s-.8.7-1.3.8c-.4.1-.9.1-1.4,0l.8.8-.9.9-7.5-7.5.9-.9,2.9,2.9Z"/>
                <path id="DejaVuSans-5f-7" data-name="DejaVuSans-5f" class="cls-3" d="M355.2,355.4l.7.7-5.1,5.1-.7-.7,5.1-5.1Z"/>
                <path id="DejaVuSans-52-7" data-name="DejaVuSans-52" class="cls-3" d="M354.4,346c.3-.1.6-.2,1.1-.2s.9.2,1.6.4l3,1-1.1,1.1-2.8-.9c-.7-.2-1.3-.3-1.7-.3s-.8.3-1.2.7l-1.1,1.1,3.1,3.1-1,1-7.2-7.2,2.2-2.2c.8-.8,1.6-1.3,2.4-1.3.8,0,1.5.3,2.2,1s.7.9.8,1.4c0,.5,0,1-.3,1.5ZM349,345.5l2.6,2.6,1.2-1.2c.5-.5.7-.9.7-1.4s-.2-.9-.6-1.3-.9-.6-1.3-.6-.9.3-1.4.7l-1.2,1.2Z"/>
              </g>
            </g>
          </g>
          <g id="xtick_9" data-name="xtick 9">
            <g id="line2d_9" data-name="line2d 9">
              <path id="m06a910f4f4-9" data-name="m06a910f4f4" class="cls-16" d="M400,332.4v3.5"/>
            </g>
            <g id="text_9" data-name="text 9">
              <g>
                <path id="DejaVuSans-70-3" data-name="DejaVuSans-70" class="cls-3" d="M361.8,380.9l2.9,2.9-.9.9-7.5-7.5.9-.9.8.8c-.1-.5-.1-1,0-1.4.1-.4.4-.9.8-1.3.7-.7,1.5-.9,2.4-.8.9.1,1.8.6,2.7,1.4s1.3,1.7,1.4,2.7c.1.9-.2,1.7-.8,2.4s-.8.7-1.3.8c-.4.1-.9.1-1.4,0ZM363,376c-.7-.7-1.3-1-1.9-1.1s-1.2,0-1.7.6-.7,1-.6,1.7.5,1.3,1.1,1.9,1.3,1,1.9,1.1c.6.1,1.2,0,1.7-.6s.7-1,.6-1.7c-.1-.6-.5-1.3-1.1-1.9Z"/>
                <path id="DejaVuSans-43-3" data-name="DejaVuSans-43" class="cls-3" d="M366.9,364.2l1,1c-.6,0-1.2.1-1.7.4-.5.2-1,.5-1.4,1-.8.8-1.2,1.7-1.1,2.7s.6,1.9,1.5,2.8,1.9,1.5,2.8,1.5,1.8-.3,2.7-1.1.7-.9,1-1.4.3-1.1.4-1.7l1,1c-.1.6-.3,1.1-.6,1.6-.3.5-.6,1-1,1.4-1.1,1.1-2.3,1.6-3.6,1.6-1.3,0-2.5-.6-3.7-1.8s-1.8-2.4-1.8-3.7c0-1.3.5-2.5,1.6-3.6s.9-.8,1.4-1c.5-.3,1-.5,1.6-.6Z"/>
                <path id="DejaVuSans-31-4" data-name="DejaVuSans-31" class="cls-3" d="M374.5,368.3l1.6-1.6-5.5-5.5-1.4,2.1-.9-.9,1.4-2.1,1-1,6.4,6.4,1.6-1.6.8.8-4.2,4.2-.8-.8Z"/>
                <path id="DejaVuSans-63" class="cls-3" d="M380,354l.8.8c-.4.1-.7.3-1.1.4s-.6.4-.9.7c-.6.6-.8,1.2-.8,1.9,0,.7.4,1.4,1.1,2s1.3,1,2,1.1c.7,0,1.3-.2,1.9-.8s.5-.5.7-.9.3-.7.4-1.1l.8.8c-.1.4-.3.7-.5,1-.2.3-.5.6-.8.9-.8.8-1.7,1.2-2.7,1.2-1,0-1.9-.5-2.8-1.4s-1.3-1.8-1.4-2.8c0-1,.4-1.9,1.2-2.8s.6-.5.9-.7c.3-.2.7-.4,1-.5Z"/>
                <path id="DejaVuSans-5f-8" data-name="DejaVuSans-5f" class="cls-3" d="M392.5,355.2l.7.7-5.1,5.1-.7-.7,5.1-5.1Z"/>
                <path id="DejaVuSans-52-8" data-name="DejaVuSans-52" class="cls-3" d="M391.7,345.9c.3-.1.6-.2,1.1-.2s.9.2,1.6.4l3,1-1.1,1.1-2.8-.9c-.7-.2-1.3-.3-1.7-.3s-.8.3-1.2.7l-1.1,1.1,3.1,3.1-1,1-7.2-7.2,2.2-2.2c.8-.8,1.6-1.3,2.4-1.3.8,0,1.5.3,2.2,1s.7.9.8,1.4c0,.5,0,1-.3,1.5ZM386.3,345.3l2.6,2.6,1.2-1.2c.5-.5.7-.9.7-1.4s-.2-.9-.6-1.3-.9-.6-1.3-.6-.9.3-1.4.7l-1.2,1.2Z"/>
              </g>
            </g>
          </g>
          <g id="xtick_10" data-name="xtick 10">
            <g id="line2d_10" data-name="line2d 10">
              <path id="m06a910f4f4-10" data-name="m06a910f4f4" class="cls-16" d="M437.3,332.4v3.5"/>
            </g>
            <g id="text_10" data-name="text 10">
              <g>
                <path id="DejaVuSans-70-4" data-name="DejaVuSans-70" class="cls-3" d="M398.3,381.9l2.9,2.9-.9.9-7.5-7.5.9-.9.8.8c-.1-.5-.1-1,0-1.4.1-.4.4-.9.8-1.3.7-.7,1.5-.9,2.4-.8.9.1,1.8.6,2.7,1.4s1.3,1.7,1.4,2.7c.1.9-.2,1.7-.8,2.4s-.8.7-1.3.8c-.4.1-.9.1-1.4,0ZM399.4,377c-.7-.7-1.3-1-1.9-1.1s-1.2,0-1.7.6-.7,1-.6,1.7.5,1.3,1.1,1.9,1.3,1,1.9,1.1c.6.1,1.2,0,1.7-.6s.7-1,.6-1.7c-.1-.6-.5-1.3-1.1-1.9Z"/>
                <path id="DejaVuSans-43-4" data-name="DejaVuSans-43" class="cls-3" d="M403.3,365.2l1,1c-.6,0-1.2.1-1.7.4-.5.2-1,.5-1.4,1-.8.8-1.2,1.7-1.1,2.7s.6,1.9,1.5,2.8,1.9,1.5,2.8,1.5,1.8-.3,2.7-1.1.7-.9,1-1.4.3-1.1.4-1.7l1,1c-.1.6-.3,1.1-.6,1.6-.3.5-.6,1-1,1.4-1.1,1.1-2.3,1.6-3.6,1.6-1.3,0-2.5-.6-3.7-1.8s-1.8-2.4-1.8-3.7c0-1.3.5-2.5,1.6-3.6s.9-.8,1.4-1c.5-.3,1-.5,1.6-.6Z"/>
                <path id="DejaVuSans-31-5" data-name="DejaVuSans-31" class="cls-3" d="M410.9,369.3l1.6-1.6-5.5-5.5-1.4,2.1-.9-.9,1.4-2.1,1-1,6.4,6.4,1.6-1.6.8.8-4.2,4.2-.8-.8Z"/>
                <path id="DejaVuSans-64" class="cls-3" d="M416.7,356l-2.9-2.9.9-.9,7.5,7.5-.9.9-.8-.8c.1.5.1,1,0,1.4-.1.4-.4.9-.8,1.3-.7.7-1.4.9-2.4.8-.9-.1-1.8-.6-2.7-1.4s-1.3-1.7-1.4-2.7c-.1-.9.2-1.7.8-2.4s.8-.7,1.3-.8c.4-.1.9-.1,1.4,0ZM415.6,360.9c.7.7,1.3,1,1.9,1.1.6.1,1.2,0,1.7-.6s.7-1,.6-1.7c-.1-.6-.5-1.3-1.1-1.9s-1.3-1-1.9-1.1c-.6-.1-1.2,0-1.7.6s-.7,1-.6,1.7.5,1.3,1.1,1.9Z"/>
                <path id="DejaVuSans-5f-9" data-name="DejaVuSans-5f" class="cls-3" d="M429.8,355.4l.7.7-5.1,5.1-.7-.7,5.1-5.1Z"/>
                <path id="DejaVuSans-52-9" data-name="DejaVuSans-52" class="cls-3" d="M429,346c.3-.1.6-.2,1.1-.2s.9.2,1.6.4l3,1-1.1,1.1-2.8-.9c-.7-.2-1.3-.3-1.7-.3s-.8.3-1.2.7l-1.1,1.1,3.1,3.1-1,1-7.2-7.2,2.2-2.2c.8-.8,1.6-1.3,2.4-1.3.8,0,1.5.3,2.2,1s.7.9.8,1.4c0,.5,0,1-.3,1.5ZM423.6,345.5l2.6,2.6,1.2-1.2c.5-.5.7-.9.7-1.4s-.2-.9-.6-1.3-.9-.6-1.3-.6-.9.3-1.4.7l-1.2,1.2Z"/>
              </g>
            </g>
          </g>
          <g id="xtick_11" data-name="xtick 11">
            <g id="line2d_11" data-name="line2d 11">
              <path id="m06a910f4f4-11" data-name="m06a910f4f4" class="cls-16" d="M474.6,332.4v3.5"/>
            </g>
            <g id="text_11" data-name="text 11">
              <g>
                <path id="DejaVuSans-70-5" data-name="DejaVuSans-70" class="cls-3" d="M435.8,381.6l2.9,2.9-.9.9-7.5-7.5.9-.9.8.8c-.1-.5-.1-1,0-1.4.1-.4.4-.9.8-1.3.7-.7,1.5-.9,2.4-.8.9.1,1.8.6,2.7,1.4s1.3,1.7,1.4,2.7c.1.9-.2,1.7-.8,2.4s-.8.7-1.3.8c-.4.1-.9.1-1.4,0ZM436.9,376.7c-.7-.7-1.3-1-1.9-1.1s-1.2,0-1.7.6-.7,1-.6,1.7.5,1.3,1.1,1.9,1.3,1,1.9,1.1c.6.1,1.2,0,1.7-.6s.7-1,.6-1.7c-.1-.6-.5-1.3-1.1-1.9Z"/>
                <path id="DejaVuSans-43-5" data-name="DejaVuSans-43" class="cls-3" d="M440.8,364.9l1,1c-.6,0-1.2.1-1.7.4-.5.2-1,.5-1.4,1-.8.8-1.2,1.7-1.1,2.7s.6,1.9,1.5,2.8,1.9,1.5,2.8,1.5,1.8-.3,2.7-1.1.7-.9,1-1.4.3-1.1.4-1.7l1,1c-.1.6-.3,1.1-.6,1.6-.3.5-.6,1-1,1.4-1.1,1.1-2.3,1.6-3.6,1.6-1.3,0-2.5-.6-3.7-1.8s-1.8-2.4-1.8-3.7c0-1.3.5-2.5,1.6-3.6s.9-.8,1.4-1c.5-.3,1-.5,1.6-.6Z"/>
                <path id="DejaVuSans-31-6" data-name="DejaVuSans-31" class="cls-3" d="M448.4,368.9l1.6-1.6-5.5-5.5-1.4,2.1-.9-.9,1.4-2.1,1-1,6.4,6.4,1.6-1.6.8.8-4.2,4.2-.8-.8Z"/>
                <path id="DejaVuSans-65" class="cls-3" d="M456.9,356.2l.4.4-4.1,4.1c.7.6,1.3.9,2,.8.7,0,1.3-.3,1.9-.9s.6-.7.9-1.1.4-.8.6-1.3l.8.8c-.2.5-.4.9-.7,1.3s-.6.8-.9,1.1c-.9.9-1.8,1.3-2.8,1.3-1,0-1.9-.4-2.8-1.3s-1.3-1.8-1.4-2.8c0-1,.3-1.9,1.2-2.7s1.5-1.1,2.4-1c.9,0,1.7.5,2.5,1.3ZM455.8,356.8c-.5-.5-1-.7-1.6-.8-.6,0-1.1.2-1.5.6s-.8,1-.8,1.6.2,1.1.7,1.7l3.2-3.2Z"/>
                <path id="DejaVuSans-5f-10" data-name="DejaVuSans-5f" class="cls-3" d="M467.1,355.2l.7.7-5.1,5.1-.7-.7,5.1-5.1Z"/>
                <path id="DejaVuSans-52-10" data-name="DejaVuSans-52" class="cls-3" d="M466.3,345.9c.3-.1.6-.2,1.1-.2s.9.2,1.6.4l3,1-1.1,1.1-2.8-.9c-.7-.2-1.3-.3-1.7-.3s-.8.3-1.2.7l-1.1,1.1,3.1,3.1-1,1-7.2-7.2,2.2-2.2c.8-.8,1.6-1.3,2.4-1.3.8,0,1.5.3,2.2,1s.7.9.8,1.4c0,.5,0,1-.3,1.5ZM460.9,345.3l2.6,2.6,1.2-1.2c.5-.5.7-.9.7-1.4s-.2-.9-.6-1.3-.9-.6-1.3-.6-.9.3-1.4.7l-1.2,1.2Z"/>
              </g>
            </g>
          </g>
          <g id="text_12" data-name="text 12">
            <g>
              <path id="DejaVuSans-6f-4" data-name="DejaVuSans-6f" class="cls-3" d="M212.7,409c-.8,0-1.4.3-1.8.9s-.7,1.4-.7,2.5.2,1.9.7,2.5c.4.6,1.1.9,1.8.9s1.4-.3,1.8-.9c.4-.6.7-1.4.7-2.5s-.2-1.9-.7-2.5c-.4-.6-1.1-.9-1.8-.9ZM212.7,407.8c1.2,0,2.2.4,2.9,1.2.7.8,1.1,1.9,1.1,3.4s-.4,2.6-1.1,3.4c-.7.8-1.7,1.2-2.9,1.2s-2.2-.4-2.9-1.2c-.7-.8-1.1-1.9-1.1-3.4s.4-2.6,1.1-3.4c.7-.8,1.7-1.2,2.9-1.2Z"/>
              <path id="DejaVuSans-76-4" data-name="DejaVuSans-76" class="cls-3" d="M218.1,408h1.5l2.7,7.3,2.7-7.3h1.5l-3.3,8.7h-2l-3.3-8.7Z"/>
              <path id="DejaVuSans-69-4" data-name="DejaVuSans-69" class="cls-3" d="M228.6,408h1.4v8.7h-1.4v-8.7ZM228.6,404.6h1.4v1.8h-1.4v-1.8Z"/>
              <path id="DejaVuSans-70-6" data-name="DejaVuSans-70" class="cls-3" d="M234.4,415.5v4.6h-1.4v-12.1h1.4v1.3c.3-.5.7-.9,1.1-1.2.5-.3,1-.4,1.7-.4,1.1,0,1.9.4,2.6,1.3.7.8,1,2,1,3.3s-.3,2.5-1,3.3c-.7.8-1.5,1.3-2.6,1.3s-1.2-.1-1.7-.4c-.5-.3-.8-.6-1.1-1.2ZM239.3,412.4c0-1.1-.2-1.9-.7-2.5s-1-.9-1.8-.9-1.4.3-1.8.9-.7,1.4-.7,2.5.2,1.9.7,2.5c.4.6,1,.9,1.8.9s1.4-.3,1.8-.9c.4-.6.7-1.4.7-2.5Z"/>
              <path id="DejaVuSans-6f-5" data-name="DejaVuSans-6f" class="cls-3" d="M246.5,409c-.8,0-1.4.3-1.8.9s-.7,1.4-.7,2.5.2,1.9.7,2.5c.4.6,1.1.9,1.8.9s1.4-.3,1.8-.9c.4-.6.7-1.4.7-2.5s-.2-1.9-.7-2.5c-.4-.6-1.1-.9-1.8-.9ZM246.5,407.8c1.2,0,2.2.4,2.9,1.2.7.8,1.1,1.9,1.1,3.4s-.4,2.6-1.1,3.4c-.7.8-1.7,1.2-2.9,1.2s-2.2-.4-2.9-1.2c-.7-.8-1.1-1.9-1.1-3.4s.4-2.6,1.1-3.4c.7-.8,1.7-1.2,2.9-1.2Z"/>
              <path id="DejaVuSans-73" class="cls-3" d="M258.5,408.3v1.4c-.4-.2-.8-.4-1.3-.5-.4-.1-.9-.2-1.4-.2-.7,0-1.2.1-1.6.3-.4.2-.5.5-.5,1s.1.6.4.8.8.4,1.5.5h.5c1,.3,1.7.6,2.2,1s.6,1,.6,1.7-.3,1.5-1,1.9c-.6.5-1.5.7-2.7.7s-1,0-1.5-.1c-.5,0-1-.2-1.6-.4v-1.5c.5.3,1.1.5,1.6.6.5.1,1,.2,1.5.2s1.2-.1,1.6-.3c.4-.2.5-.6.5-1s-.1-.7-.4-.9c-.3-.2-.8-.4-1.7-.6h-.5c-.9-.3-1.5-.6-1.9-1-.4-.4-.6-.9-.6-1.6s.3-1.5.9-1.9c.6-.4,1.4-.7,2.5-.7s1,0,1.5.1c.5,0,.9.2,1.3.3Z"/>
              <path id="DejaVuSans-69-5" data-name="DejaVuSans-69" class="cls-3" d="M261.3,408h1.4v8.7h-1.4v-8.7ZM261.3,404.6h1.4v1.8h-1.4v-1.8Z"/>
              <path id="DejaVuSans-74" class="cls-3" d="M267.2,405.5v2.5h3v1.1h-3v4.7c0,.7,0,1.2.3,1.4s.6.3,1.2.3h1.5v1.2h-1.5c-1.1,0-1.9-.2-2.3-.6-.4-.4-.6-1.2-.6-2.3v-4.7h-1.1v-1.1h1.1v-2.5h1.4Z"/>
              <path id="DejaVuSans-69-6" data-name="DejaVuSans-69" class="cls-3" d="M272,408h1.4v8.7h-1.4v-8.7ZM272,404.6h1.4v1.8h-1.4v-1.8Z"/>
              <path id="DejaVuSans-6f-6" data-name="DejaVuSans-6f" class="cls-3" d="M279.8,409c-.8,0-1.4.3-1.8.9s-.7,1.4-.7,2.5.2,1.9.7,2.5c.4.6,1.1.9,1.8.9s1.4-.3,1.8-.9c.4-.6.7-1.4.7-2.5s-.2-1.9-.7-2.5c-.4-.6-1.1-.9-1.8-.9ZM279.8,407.8c1.2,0,2.2.4,2.9,1.2.7.8,1.1,1.9,1.1,3.4s-.4,2.6-1.1,3.4c-.7.8-1.7,1.2-2.9,1.2s-2.2-.4-2.9-1.2c-.7-.8-1.1-1.9-1.1-3.4s.4-2.6,1.1-3.4c.7-.8,1.7-1.2,2.9-1.2Z"/>
              <path id="DejaVuSans-6e" class="cls-3" d="M293.5,411.5v5.3h-1.4v-5.2c0-.8-.2-1.4-.5-1.9-.3-.4-.8-.6-1.5-.6s-1.4.2-1.8.7c-.4.5-.7,1.2-.7,2v4.9h-1.4v-8.7h1.4v1.4c.3-.5.7-.9,1.2-1.2.5-.3,1-.4,1.6-.4,1,0,1.8.3,2.3.9.5.6.8,1.5.8,2.7Z"/>
              <path id="DejaVuSans-20" class="cls-3" d="M294.9,416.8"/>
              <path id="DejaVuSans-63-2" data-name="DejaVuSans-63" class="cls-3" d="M307.8,408.4v1.3c-.4-.2-.8-.4-1.2-.5s-.8-.2-1.2-.2c-.9,0-1.7.3-2.2.9-.5.6-.8,1.4-.8,2.5s.3,1.9.8,2.5c.5.6,1.2.9,2.2.9s.8,0,1.2-.2.8-.3,1.2-.5v1.3c-.4.2-.8.3-1.2.4-.4,0-.9.1-1.4.1-1.3,0-2.4-.4-3.1-1.2-.8-.8-1.2-1.9-1.2-3.4s.4-2.5,1.2-3.4c.8-.8,1.9-1.2,3.2-1.2s.9,0,1.3.1c.4,0,.8.2,1.2.4Z"/>
              <path id="DejaVuSans-65-2" data-name="DejaVuSans-65" class="cls-3" d="M317.7,412v.7h-6.6c0,1,.4,1.7.9,2.3.5.5,1.3.8,2.2.8s1.1,0,1.6-.2,1-.3,1.5-.6v1.4c-.5.2-1,.4-1.6.5s-1.1.2-1.6.2c-1.4,0-2.5-.4-3.3-1.2-.8-.8-1.2-1.9-1.2-3.3s.4-2.6,1.2-3.4c.8-.8,1.8-1.3,3.1-1.3s2.1.4,2.8,1.1c.7.8,1,1.8,1,3.1ZM316.3,411.6c0-.8-.2-1.4-.7-1.9-.4-.5-1-.7-1.7-.7s-1.4.2-1.9.7-.8,1.1-.8,1.9h5.1Z"/>
              <path id="DejaVuSans-6c" class="cls-3" d="M320.1,404.6h1.4v12.2h-1.4v-12.2Z"/>
              <path id="DejaVuSans-6c-2" data-name="DejaVuSans-6c" class="cls-3" d="M324.5,404.6h1.4v12.2h-1.4v-12.2Z"/>
              <path id="DejaVuSans-20-2" data-name="DejaVuSans-20" class="cls-3" d="M327.5,416.8"/>
              <path id="DejaVuSans-74-2" data-name="DejaVuSans-74" class="cls-3" d="M335.5,405.5v2.5h3v1.1h-3v4.7c0,.7,0,1.2.3,1.4s.6.3,1.2.3h1.5v1.2h-1.5c-1.1,0-1.9-.2-2.3-.6-.4-.4-.6-1.2-.6-2.3v-4.7h-1.1v-1.1h1.1v-2.5h1.4Z"/>
              <path id="DejaVuSans-79" class="cls-3" d="M344,417.6c-.4,1-.8,1.7-1.2,2-.4.3-.9.5-1.5.5h-1.1v-1.2h.8c.4,0,.7,0,.9-.3.2-.2.5-.6.7-1.3l.3-.7-3.5-8.6h1.5l2.7,6.8,2.7-6.8h1.5l-3.8,9.6Z"/>
              <path id="DejaVuSans-70-7" data-name="DejaVuSans-70" class="cls-3" d="M351.2,415.5v4.6h-1.4v-12.1h1.4v1.3c.3-.5.7-.9,1.1-1.2.5-.3,1-.4,1.7-.4,1.1,0,1.9.4,2.6,1.3.7.8,1,2,1,3.3s-.3,2.5-1,3.3c-.7.8-1.5,1.3-2.6,1.3s-1.2-.1-1.7-.4c-.5-.3-.8-.6-1.1-1.2ZM356.1,412.4c0-1.1-.2-1.9-.7-2.5s-1-.9-1.8-.9-1.4.3-1.8.9-.7,1.4-.7,2.5.2,1.9.7,2.5c.4.6,1,.9,1.8.9s1.4-.3,1.8-.9c.4-.6.7-1.4.7-2.5Z"/>
              <path id="DejaVuSans-65-3" data-name="DejaVuSans-65" class="cls-3" d="M367.5,412v.7h-6.6c0,1,.4,1.7.9,2.3.5.5,1.3.8,2.2.8s1.1,0,1.6-.2,1-.3,1.5-.6v1.4c-.5.2-1,.4-1.6.5s-1.1.2-1.6.2c-1.4,0-2.5-.4-3.3-1.2-.8-.8-1.2-1.9-1.2-3.3s.4-2.6,1.2-3.4c.8-.8,1.8-1.3,3.1-1.3s2.1.4,2.8,1.1c.7.8,1,1.8,1,3.1ZM366,411.6c0-.8-.2-1.4-.7-1.9-.4-.5-1-.7-1.7-.7s-1.4.2-1.9.7-.8,1.1-.8,1.9h5.1Z"/>
            </g>
          </g>
        </g>
        <g id="matplotlib.axis_2" data-name="matplotlib.axis 2">
          <g id="ytick_1" data-name="ytick 1">
            <g id="line2d_12" data-name="line2d 12">
              <path id="m69008f03f7" class="cls-16" d="M82.9,332.4h-3.5"/>
            </g>
            <g id="text_13" data-name="text 13">
              <path id="DejaVuSans-30-3" data-name="DejaVuSans-30" class="cls-3" d="M71.5,328.4c-.7,0-1.2.4-1.6,1.1-.4.7-.5,1.8-.5,3.2s.2,2.4.5,3.1c.4.7.9,1.1,1.6,1.1s1.3-.4,1.6-1.1c.4-.7.5-1.7.5-3.1s-.2-2.5-.5-3.2c-.4-.7-.9-1.1-1.6-1.1ZM71.5,327.3c1.1,0,2,.5,2.6,1.4.6.9.9,2.2.9,3.9s-.3,3-.9,3.9c-.6.9-1.5,1.4-2.6,1.4s-2-.5-2.6-1.4c-.6-.9-.9-2.2-.9-3.9s.3-3,.9-3.9c.6-.9,1.5-1.4,2.6-1.4Z"/>
            </g>
          </g>
          <g id="ytick_2" data-name="ytick 2">
            <g id="line2d_13" data-name="line2d 13">
              <path id="m69008f03f7-2" data-name="m69008f03f7" class="cls-16" d="M82.9,275.9h-3.5"/>
            </g>
            <g id="text_14" data-name="text 14">
              <g>
                <path id="DejaVuSans-31-7" data-name="DejaVuSans-31" class="cls-3" d="M33.1,280.1h2.3v-7.8l-2.5.5v-1.3l2.4-.5h1.4v9h2.3v1.2h-5.9v-1.2Z"/>
                <path id="DejaVuSans-30-4" data-name="DejaVuSans-30" class="cls-3" d="M44.7,271.9c-.7,0-1.2.4-1.6,1.1-.4.7-.5,1.8-.5,3.2s.2,2.4.5,3.1c.4.7.9,1.1,1.6,1.1s1.3-.4,1.6-1.1c.4-.7.5-1.7.5-3.1s-.2-2.5-.5-3.2c-.4-.7-.9-1.1-1.6-1.1ZM44.7,270.8c1.1,0,2,.5,2.6,1.4.6.9.9,2.2.9,3.9s-.3,3-.9,3.9c-.6.9-1.5,1.4-2.6,1.4s-2-.5-2.6-1.4c-.6-.9-.9-2.2-.9-3.9s.3-3,.9-3.9c.6-.9,1.5-1.4,2.6-1.4Z"/>
                <path id="DejaVuSans-30-5" data-name="DejaVuSans-30" class="cls-3" d="M53.6,271.9c-.7,0-1.2.4-1.6,1.1-.4.7-.5,1.8-.5,3.2s.2,2.4.5,3.1c.4.7.9,1.1,1.6,1.1s1.3-.4,1.6-1.1c.4-.7.5-1.7.5-3.1s-.2-2.5-.5-3.2c-.4-.7-.9-1.1-1.6-1.1ZM53.6,270.8c1.1,0,2,.5,2.6,1.4.6.9.9,2.2.9,3.9s-.3,3-.9,3.9c-.6.9-1.5,1.4-2.6,1.4s-2-.5-2.6-1.4c-.6-.9-.9-2.2-.9-3.9s.3-3,.9-3.9c.6-.9,1.5-1.4,2.6-1.4Z"/>
                <path id="DejaVuSans-30-6" data-name="DejaVuSans-30" class="cls-3" d="M62.5,271.9c-.7,0-1.2.4-1.6,1.1-.4.7-.5,1.8-.5,3.2s.2,2.4.5,3.1c.4.7.9,1.1,1.6,1.1s1.3-.4,1.6-1.1c.4-.7.5-1.7.5-3.1s-.2-2.5-.5-3.2c-.4-.7-.9-1.1-1.6-1.1ZM62.5,270.8c1.1,0,2,.5,2.6,1.4.6.9.9,2.2.9,3.9s-.3,3-.9,3.9c-.6.9-1.5,1.4-2.6,1.4s-2-.5-2.6-1.4c-.6-.9-.9-2.2-.9-3.9s.3-3,.9-3.9c.6-.9,1.5-1.4,2.6-1.4Z"/>
                <path id="DejaVuSans-30-7" data-name="DejaVuSans-30" class="cls-3" d="M71.5,271.9c-.7,0-1.2.4-1.6,1.1-.4.7-.5,1.8-.5,3.2s.2,2.4.5,3.1c.4.7.9,1.1,1.6,1.1s1.3-.4,1.6-1.1c.4-.7.5-1.7.5-3.1s-.2-2.5-.5-3.2c-.4-.7-.9-1.1-1.6-1.1ZM71.5,270.8c1.1,0,2,.5,2.6,1.4.6.9.9,2.2.9,3.9s-.3,3-.9,3.9c-.6.9-1.5,1.4-2.6,1.4s-2-.5-2.6-1.4c-.6-.9-.9-2.2-.9-3.9s.3-3,.9-3.9c.6-.9,1.5-1.4,2.6-1.4Z"/>
              </g>
            </g>
          </g>
          <g id="ytick_3" data-name="ytick 3">
            <g id="line2d_14" data-name="line2d 14">
              <path id="m69008f03f7-3" data-name="m69008f03f7" class="cls-16" d="M82.9,219.4h-3.5"/>
            </g>
            <g id="text_15" data-name="text 15">
              <g>
                <path id="DejaVuSans-32" class="cls-3" d="M34.1,223.6h4.8v1.2h-6.5v-1.2c.5-.5,1.2-1.3,2.1-2.2.9-.9,1.5-1.5,1.7-1.8.4-.5.8-.9.9-1.3.2-.3.3-.7.3-1,0-.5-.2-1-.6-1.3-.4-.3-.9-.5-1.5-.5s-.9,0-1.4.2c-.5.2-1,.4-1.5.7v-1.4c.6-.2,1.1-.4,1.6-.5.5-.1.9-.2,1.3-.2,1.1,0,1.9.3,2.5.8.6.5.9,1.2.9,2.1s0,.8-.2,1.2c-.2.4-.4.8-.9,1.3-.1.1-.5.5-1.1,1.1-.6.6-1.5,1.5-2.6,2.6Z"/>
                <path id="DejaVuSans-30-8" data-name="DejaVuSans-30" class="cls-3" d="M44.7,215.4c-.7,0-1.2.4-1.6,1.1-.4.7-.5,1.8-.5,3.2s.2,2.4.5,3.1c.4.7.9,1.1,1.6,1.1s1.3-.4,1.6-1.1c.4-.7.5-1.7.5-3.1s-.2-2.5-.5-3.2c-.4-.7-.9-1.1-1.6-1.1ZM44.7,214.4c1.1,0,2,.5,2.6,1.4.6.9.9,2.2.9,3.9s-.3,3-.9,3.9c-.6.9-1.5,1.4-2.6,1.4s-2-.5-2.6-1.4c-.6-.9-.9-2.2-.9-3.9s.3-3,.9-3.9c.6-.9,1.5-1.4,2.6-1.4Z"/>
                <path id="DejaVuSans-30-9" data-name="DejaVuSans-30" class="cls-3" d="M53.6,215.4c-.7,0-1.2.4-1.6,1.1-.4.7-.5,1.8-.5,3.2s.2,2.4.5,3.1c.4.7.9,1.1,1.6,1.1s1.3-.4,1.6-1.1c.4-.7.5-1.7.5-3.1s-.2-2.5-.5-3.2c-.4-.7-.9-1.1-1.6-1.1ZM53.6,214.4c1.1,0,2,.5,2.6,1.4.6.9.9,2.2.9,3.9s-.3,3-.9,3.9c-.6.9-1.5,1.4-2.6,1.4s-2-.5-2.6-1.4c-.6-.9-.9-2.2-.9-3.9s.3-3,.9-3.9c.6-.9,1.5-1.4,2.6-1.4Z"/>
                <path id="DejaVuSans-30-10" data-name="DejaVuSans-30" class="cls-3" d="M62.5,215.4c-.7,0-1.2.4-1.6,1.1-.4.7-.5,1.8-.5,3.2s.2,2.4.5,3.1c.4.7.9,1.1,1.6,1.1s1.3-.4,1.6-1.1c.4-.7.5-1.7.5-3.1s-.2-2.5-.5-3.2c-.4-.7-.9-1.1-1.6-1.1ZM62.5,214.4c1.1,0,2,.5,2.6,1.4.6.9.9,2.2.9,3.9s-.3,3-.9,3.9c-.6.9-1.5,1.4-2.6,1.4s-2-.5-2.6-1.4c-.6-.9-.9-2.2-.9-3.9s.3-3,.9-3.9c.6-.9,1.5-1.4,2.6-1.4Z"/>
                <path id="DejaVuSans-30-11" data-name="DejaVuSans-30" class="cls-3" d="M71.5,215.4c-.7,0-1.2.4-1.6,1.1-.4.7-.5,1.8-.5,3.2s.2,2.4.5,3.1c.4.7.9,1.1,1.6,1.1s1.3-.4,1.6-1.1c.4-.7.5-1.7.5-3.1s-.2-2.5-.5-3.2c-.4-.7-.9-1.1-1.6-1.1ZM71.5,214.4c1.1,0,2,.5,2.6,1.4.6.9.9,2.2.9,3.9s-.3,3-.9,3.9c-.6.9-1.5,1.4-2.6,1.4s-2-.5-2.6-1.4c-.6-.9-.9-2.2-.9-3.9s.3-3,.9-3.9c.6-.9,1.5-1.4,2.6-1.4Z"/>
              </g>
            </g>
          </g>
          <g id="ytick_4" data-name="ytick 4">
            <g id="line2d_15" data-name="line2d 15">
              <path id="m69008f03f7-4" data-name="m69008f03f7" class="cls-16" d="M82.9,162.9h-3.5"/>
            </g>
            <g id="text_16" data-name="text 16">
              <g>
                <path id="DejaVuSans-33" class="cls-3" d="M37.1,162.7c.7.1,1.2.4,1.5.9.4.4.6,1,.6,1.7,0,1-.3,1.8-1,2.3-.7.6-1.7.8-3,.8s-.9,0-1.3-.1c-.5,0-.9-.2-1.4-.4v-1.3c.4.2.8.4,1.3.5.5.1.9.2,1.4.2.9,0,1.5-.2,2-.5s.7-.8.7-1.5-.2-1.1-.6-1.4c-.4-.3-1-.5-1.8-.5h-1.2v-1.1h1.2c.7,0,1.2-.1,1.6-.4s.5-.7.5-1.2-.2-.9-.6-1.2c-.4-.3-.9-.4-1.6-.4s-.8,0-1.2.1c-.4,0-.9.2-1.4.4v-1.2c.5-.1,1-.3,1.5-.3s.9-.1,1.3-.1c1,0,1.9.2,2.5.7.6.5.9,1.1.9,1.9s-.2,1-.5,1.4-.8.7-1.4.8Z"/>
                <path id="DejaVuSans-30-12" data-name="DejaVuSans-30" class="cls-3" d="M44.7,158.9c-.7,0-1.2.4-1.6,1.1-.4.7-.5,1.8-.5,3.2s.2,2.4.5,3.1c.4.7.9,1.1,1.6,1.1s1.3-.4,1.6-1.1c.4-.7.5-1.7.5-3.1s-.2-2.5-.5-3.2c-.4-.7-.9-1.1-1.6-1.1ZM44.7,157.9c1.1,0,2,.5,2.6,1.4.6.9.9,2.2.9,3.9s-.3,3-.9,3.9c-.6.9-1.5,1.4-2.6,1.4s-2-.5-2.6-1.4c-.6-.9-.9-2.2-.9-3.9s.3-3,.9-3.9c.6-.9,1.5-1.4,2.6-1.4Z"/>
                <path id="DejaVuSans-30-13" data-name="DejaVuSans-30" class="cls-3" d="M53.6,158.9c-.7,0-1.2.4-1.6,1.1-.4.7-.5,1.8-.5,3.2s.2,2.4.5,3.1c.4.7.9,1.1,1.6,1.1s1.3-.4,1.6-1.1c.4-.7.5-1.7.5-3.1s-.2-2.5-.5-3.2c-.4-.7-.9-1.1-1.6-1.1ZM53.6,157.9c1.1,0,2,.5,2.6,1.4.6.9.9,2.2.9,3.9s-.3,3-.9,3.9c-.6.9-1.5,1.4-2.6,1.4s-2-.5-2.6-1.4c-.6-.9-.9-2.2-.9-3.9s.3-3,.9-3.9c.6-.9,1.5-1.4,2.6-1.4Z"/>
                <path id="DejaVuSans-30-14" data-name="DejaVuSans-30" class="cls-3" d="M62.5,158.9c-.7,0-1.2.4-1.6,1.1-.4.7-.5,1.8-.5,3.2s.2,2.4.5,3.1c.4.7.9,1.1,1.6,1.1s1.3-.4,1.6-1.1c.4-.7.5-1.7.5-3.1s-.2-2.5-.5-3.2c-.4-.7-.9-1.1-1.6-1.1ZM62.5,157.9c1.1,0,2,.5,2.6,1.4.6.9.9,2.2.9,3.9s-.3,3-.9,3.9c-.6.9-1.5,1.4-2.6,1.4s-2-.5-2.6-1.4c-.6-.9-.9-2.2-.9-3.9s.3-3,.9-3.9c.6-.9,1.5-1.4,2.6-1.4Z"/>
                <path id="DejaVuSans-30-15" data-name="DejaVuSans-30" class="cls-3" d="M71.5,158.9c-.7,0-1.2.4-1.6,1.1-.4.7-.5,1.8-.5,3.2s.2,2.4.5,3.1c.4.7.9,1.1,1.6,1.1s1.3-.4,1.6-1.1c.4-.7.5-1.7.5-3.1s-.2-2.5-.5-3.2c-.4-.7-.9-1.1-1.6-1.1ZM71.5,157.9c1.1,0,2,.5,2.6,1.4.6.9.9,2.2.9,3.9s-.3,3-.9,3.9c-.6.9-1.5,1.4-2.6,1.4s-2-.5-2.6-1.4c-.6-.9-.9-2.2-.9-3.9s.3-3,.9-3.9c.6-.9,1.5-1.4,2.6-1.4Z"/>
              </g>
            </g>
          </g>
          <g id="ytick_5" data-name="ytick 5">
            <g id="line2d_16" data-name="line2d 16">
              <path id="m69008f03f7-5" data-name="m69008f03f7" class="cls-16" d="M82.9,106.4h-3.5"/>
            </g>
            <g id="text_17" data-name="text 17">
              <g>
                <path id="DejaVuSans-34-2" data-name="DejaVuSans-34" class="cls-3" d="M36.7,102.7l-3.5,5.4h3.5v-5.4ZM36.3,101.5h1.7v6.7h1.5v1.1h-1.5v2.4h-1.4v-2.4h-4.6v-1.3l4.2-6.5Z"/>
                <path id="DejaVuSans-30-16" data-name="DejaVuSans-30" class="cls-3" d="M44.7,102.5c-.7,0-1.2.4-1.6,1.1-.4.7-.5,1.8-.5,3.2s.2,2.4.5,3.1c.4.7.9,1.1,1.6,1.1s1.3-.4,1.6-1.1c.4-.7.5-1.7.5-3.1s-.2-2.5-.5-3.2c-.4-.7-.9-1.1-1.6-1.1ZM44.7,101.4c1.1,0,2,.5,2.6,1.4.6.9.9,2.2.9,3.9s-.3,3-.9,3.9c-.6.9-1.5,1.4-2.6,1.4s-2-.5-2.6-1.4c-.6-.9-.9-2.2-.9-3.9s.3-3,.9-3.9c.6-.9,1.5-1.4,2.6-1.4Z"/>
                <path id="DejaVuSans-30-17" data-name="DejaVuSans-30" class="cls-3" d="M53.6,102.5c-.7,0-1.2.4-1.6,1.1-.4.7-.5,1.8-.5,3.2s.2,2.4.5,3.1c.4.7.9,1.1,1.6,1.1s1.3-.4,1.6-1.1c.4-.7.5-1.7.5-3.1s-.2-2.5-.5-3.2c-.4-.7-.9-1.1-1.6-1.1ZM53.6,101.4c1.1,0,2,.5,2.6,1.4.6.9.9,2.2.9,3.9s-.3,3-.9,3.9c-.6.9-1.5,1.4-2.6,1.4s-2-.5-2.6-1.4c-.6-.9-.9-2.2-.9-3.9s.3-3,.9-3.9c.6-.9,1.5-1.4,2.6-1.4Z"/>
                <path id="DejaVuSans-30-18" data-name="DejaVuSans-30" class="cls-3" d="M62.5,102.5c-.7,0-1.2.4-1.6,1.1-.4.7-.5,1.8-.5,3.2s.2,2.4.5,3.1c.4.7.9,1.1,1.6,1.1s1.3-.4,1.6-1.1c.4-.7.5-1.7.5-3.1s-.2-2.5-.5-3.2c-.4-.7-.9-1.1-1.6-1.1ZM62.5,101.4c1.1,0,2,.5,2.6,1.4.6.9.9,2.2.9,3.9s-.3,3-.9,3.9c-.6.9-1.5,1.4-2.6,1.4s-2-.5-2.6-1.4c-.6-.9-.9-2.2-.9-3.9s.3-3,.9-3.9c.6-.9,1.5-1.4,2.6-1.4Z"/>
                <path id="DejaVuSans-30-19" data-name="DejaVuSans-30" class="cls-3" d="M71.5,102.5c-.7,0-1.2.4-1.6,1.1-.4.7-.5,1.8-.5,3.2s.2,2.4.5,3.1c.4.7.9,1.1,1.6,1.1s1.3-.4,1.6-1.1c.4-.7.5-1.7.5-3.1s-.2-2.5-.5-3.2c-.4-.7-.9-1.1-1.6-1.1ZM71.5,101.4c1.1,0,2,.5,2.6,1.4.6.9.9,2.2.9,3.9s-.3,3-.9,3.9c-.6.9-1.5,1.4-2.6,1.4s-2-.5-2.6-1.4c-.6-.9-.9-2.2-.9-3.9s.3-3,.9-3.9c.6-.9,1.5-1.4,2.6-1.4Z"/>
              </g>
            </g>
          </g>
          <g id="ytick_6" data-name="ytick 6">
            <g id="line2d_17" data-name="line2d 17">
              <path id="m69008f03f7-6" data-name="m69008f03f7" class="cls-16" d="M82.9,49.9h-3.5"/>
            </g>
            <g id="text_18" data-name="text 18">
              <g>
                <path id="DejaVuSans-35-3" data-name="DejaVuSans-35" class="cls-3" d="M32.9,45h5.4v1.2h-4.2v2.5c.2,0,.4-.1.6-.2.2,0,.4,0,.6,0,1.1,0,2,.3,2.7.9.7.6,1,1.5,1,2.5s-.3,2-1,2.6c-.7.6-1.6.9-2.9.9s-.9,0-1.3-.1c-.4,0-.9-.2-1.4-.3v-1.4c.4.2.8.4,1.3.5s.9.2,1.4.2c.8,0,1.4-.2,1.9-.6.5-.4.7-1,.7-1.7s-.2-1.3-.7-1.7c-.5-.4-1.1-.6-1.9-.6s-.7,0-1.1.1c-.4,0-.7.2-1.1.4v-5.1Z"/>
                <path id="DejaVuSans-30-20" data-name="DejaVuSans-30" class="cls-3" d="M44.7,46c-.7,0-1.2.4-1.6,1.1-.4.7-.5,1.8-.5,3.2s.2,2.4.5,3.1c.4.7.9,1.1,1.6,1.1s1.3-.4,1.6-1.1c.4-.7.5-1.7.5-3.1s-.2-2.5-.5-3.2c-.4-.7-.9-1.1-1.6-1.1ZM44.7,44.9c1.1,0,2,.5,2.6,1.4.6.9.9,2.2.9,3.9s-.3,3-.9,3.9c-.6.9-1.5,1.4-2.6,1.4s-2-.5-2.6-1.4c-.6-.9-.9-2.2-.9-3.9s.3-3,.9-3.9c.6-.9,1.5-1.4,2.6-1.4Z"/>
                <path id="DejaVuSans-30-21" data-name="DejaVuSans-30" class="cls-3" d="M53.6,46c-.7,0-1.2.4-1.6,1.1-.4.7-.5,1.8-.5,3.2s.2,2.4.5,3.1c.4.7.9,1.1,1.6,1.1s1.3-.4,1.6-1.1c.4-.7.5-1.7.5-3.1s-.2-2.5-.5-3.2c-.4-.7-.9-1.1-1.6-1.1ZM53.6,44.9c1.1,0,2,.5,2.6,1.4.6.9.9,2.2.9,3.9s-.3,3-.9,3.9c-.6.9-1.5,1.4-2.6,1.4s-2-.5-2.6-1.4c-.6-.9-.9-2.2-.9-3.9s.3-3,.9-3.9c.6-.9,1.5-1.4,2.6-1.4Z"/>
                <path id="DejaVuSans-30-22" data-name="DejaVuSans-30" class="cls-3" d="M62.5,46c-.7,0-1.2.4-1.6,1.1-.4.7-.5,1.8-.5,3.2s.2,2.4.5,3.1c.4.7.9,1.1,1.6,1.1s1.3-.4,1.6-1.1c.4-.7.5-1.7.5-3.1s-.2-2.5-.5-3.2c-.4-.7-.9-1.1-1.6-1.1ZM62.5,44.9c1.1,0,2,.5,2.6,1.4.6.9.9,2.2.9,3.9s-.3,3-.9,3.9c-.6.9-1.5,1.4-2.6,1.4s-2-.5-2.6-1.4c-.6-.9-.9-2.2-.9-3.9s.3-3,.9-3.9c.6-.9,1.5-1.4,2.6-1.4Z"/>
                <path id="DejaVuSans-30-23" data-name="DejaVuSans-30" class="cls-3" d="M71.5,46c-.7,0-1.2.4-1.6,1.1-.4.7-.5,1.8-.5,3.2s.2,2.4.5,3.1c.4.7.9,1.1,1.6,1.1s1.3-.4,1.6-1.1c.4-.7.5-1.7.5-3.1s-.2-2.5-.5-3.2c-.4-.7-.9-1.1-1.6-1.1ZM71.5,44.9c1.1,0,2,.5,2.6,1.4.6.9.9,2.2.9,3.9s-.3,3-.9,3.9c-.6.9-1.5,1.4-2.6,1.4s-2-.5-2.6-1.4c-.6-.9-.9-2.2-.9-3.9s.3-3,.9-3.9c.6-.9,1.5-1.4,2.6-1.4Z"/>
              </g>
            </g>
          </g>
          <g id="text_19" data-name="text 19">
            <g>
              <path id="DejaVuSans-73-2" data-name="DejaVuSans-73" class="cls-3" d="M15.6,232.5h1.4c-.2.4-.4.8-.5,1.3-.1.4-.2.9-.2,1.4,0,.7.1,1.2.3,1.6.2.4.5.5,1,.5s.6-.1.8-.4.4-.8.5-1.5v-.5c.3-1,.6-1.7,1-2.2s1-.6,1.7-.6,1.5.3,1.9,1c.5.6.7,1.5.7,2.7s0,1-.1,1.5c0,.5-.2,1-.4,1.6h-1.5c.3-.5.5-1.1.6-1.6.1-.5.2-1,.2-1.5s-.1-1.2-.3-1.6c-.2-.4-.6-.5-1-.5s-.7.1-.9.4c-.2.3-.4.8-.6,1.7v.5c-.3.9-.6,1.5-1,1.9-.4.4-.9.6-1.6.6s-1.5-.3-1.9-.9c-.4-.6-.7-1.4-.7-2.5s0-1,.1-1.5c0-.5.2-.9.3-1.3Z"/>
              <path id="DejaVuSans-79-2" data-name="DejaVuSans-79" class="cls-3" d="M24.9,226.1c1,.4,1.7.8,2,1.2.3.4.5.9.5,1.5v1.1h-1.2v-.8c0-.4,0-.7-.3-.9-.2-.2-.6-.5-1.3-.7l-.7-.3-8.6,3.5v-1.5l6.8-2.7-6.8-2.7v-1.5l9.6,3.8Z"/>
              <path id="DejaVuSans-6e-2" data-name="DejaVuSans-6e" class="cls-3" d="M18.8,213h5.3v1.4h-5.2c-.8,0-1.4.2-1.9.5-.4.3-.6.8-.6,1.5s.2,1.4.7,1.8c.5.4,1.2.7,2,.7h4.9v1.4h-8.7v-1.4h1.4c-.5-.3-.9-.7-1.2-1.2-.3-.5-.4-1-.4-1.6,0-1,.3-1.8.9-2.3.6-.5,1.5-.8,2.7-.8Z"/>
              <path id="DejaVuSans-61-3" data-name="DejaVuSans-61" class="cls-3" d="M19.6,206.2c0,1.2.1,2,.4,2.4s.7.7,1.4.7.9-.2,1.2-.5c.3-.3.4-.8.4-1.4s-.3-1.4-.8-1.9-1.3-.7-2.3-.7h-.3v1.4ZM19.1,203.3h5v1.4h-1.3c.5.3.9.7,1.2,1.2.3.5.4,1.1.4,1.8s-.3,1.6-.8,2.1c-.5.5-1.2.8-2,.8s-1.7-.3-2.2-1c-.5-.7-.7-1.6-.7-2.9v-2h-.1c-.7,0-1.2.2-1.5.7s-.5,1-.5,1.8,0,1,.2,1.5c.1.5.3.9.5,1.4h-1.3c-.2-.5-.4-1-.5-1.5-.1-.5-.2-1-.2-1.4,0-1.3.3-2.2,1-2.8.7-.6,1.6-.9,3-.9Z"/>
              <path id="DejaVuSans-70-8" data-name="DejaVuSans-70" class="cls-3" d="M22.7,199h4.6v1.4h-12.1v-1.4h1.3c-.5-.3-.9-.7-1.2-1.1-.3-.5-.4-1-.4-1.7,0-1.1.4-1.9,1.3-2.6.8-.7,2-1,3.3-1s2.5.3,3.3,1c.8.7,1.3,1.5,1.3,2.6s-.1,1.2-.4,1.7c-.3.5-.6.8-1.2,1.1ZM19.7,194.1c-1.1,0-1.9.2-2.5.7s-.9,1-.9,1.8.3,1.4.9,1.8,1.4.7,2.5.7,1.9-.2,2.5-.7c.6-.4.9-1,.9-1.8s-.3-1.4-.9-1.8c-.6-.4-1.4-.7-2.5-.7Z"/>
              <path id="DejaVuSans-73-3" data-name="DejaVuSans-73" class="cls-3" d="M15.6,184.6h1.4c-.2.4-.4.8-.5,1.3-.1.4-.2.9-.2,1.4,0,.7.1,1.2.3,1.6.2.4.5.5,1,.5s.6-.1.8-.4.4-.8.5-1.5v-.5c.3-1,.6-1.7,1-2.2s1-.6,1.7-.6,1.5.3,1.9,1c.5.6.7,1.5.7,2.7s0,1-.1,1.5c0,.5-.2,1-.4,1.6h-1.5c.3-.5.5-1.1.6-1.6.1-.5.2-1,.2-1.5s-.1-1.2-.3-1.6c-.2-.4-.6-.5-1-.5s-.7.1-.9.4c-.2.3-.4.8-.6,1.7v.5c-.3.9-.6,1.5-1,1.9-.4.4-.9.6-1.6.6s-1.5-.3-1.9-.9c-.4-.6-.7-1.4-.7-2.5s0-1,.1-1.5c0-.5.2-.9.3-1.3Z"/>
              <path id="DejaVuSans-65-4" data-name="DejaVuSans-65" class="cls-3" d="M19.3,174.4h.7v6.6c1,0,1.7-.4,2.3-.9.5-.5.8-1.3.8-2.2s0-1.1-.2-1.6-.3-1-.6-1.5h1.4c.2.5.4,1,.5,1.6s.2,1.1.2,1.6c0,1.4-.4,2.5-1.2,3.3-.8.8-1.9,1.2-3.3,1.2s-2.6-.4-3.4-1.2c-.8-.8-1.3-1.8-1.3-3.1s.4-2.1,1.1-2.8c.8-.7,1.8-1,3.1-1ZM18.9,175.8c-.8,0-1.4.2-1.9.7-.5.4-.7,1-.7,1.7s.2,1.4.7,1.9,1.1.8,1.9.8v-5.1Z"/>
              <path id="DejaVuSans-20-3" data-name="DejaVuSans-20" class="cls-3" d="M24,173.5"/>
              <path id="DejaVuSans-63-3" data-name="DejaVuSans-63" class="cls-3" d="M15.6,160.6h1.3c-.2.4-.4.8-.5,1.2s-.2.8-.2,1.2c0,.9.3,1.7.9,2.2.6.5,1.4.8,2.5.8s1.9-.3,2.5-.8c.6-.5.9-1.2.9-2.2s0-.8-.2-1.2-.3-.8-.5-1.2h1.3c.2.4.3.8.4,1.2,0,.4.1.9.1,1.4,0,1.3-.4,2.4-1.2,3.1-.8.8-1.9,1.2-3.4,1.2s-2.5-.4-3.4-1.2c-.8-.8-1.2-1.9-1.2-3.2s0-.9.1-1.3c0-.4.2-.8.4-1.2Z"/>
              <path id="DejaVuSans-6f-7" data-name="DejaVuSans-6f" class="cls-3" d="M16.3,154.7c0,.8.3,1.4.9,1.8s1.4.7,2.5.7,1.9-.2,2.5-.7c.6-.4.9-1.1.9-1.8s-.3-1.4-.9-1.8c-.6-.4-1.4-.7-2.5-.7s-1.9.2-2.5.7c-.6.4-.9,1.1-.9,1.8ZM15.1,154.7c0-1.2.4-2.2,1.2-2.9.8-.7,1.9-1.1,3.4-1.1s2.6.4,3.4,1.1c.8.7,1.2,1.7,1.2,2.9s-.4,2.2-1.2,2.9c-.8.7-1.9,1.1-3.4,1.1s-2.6-.4-3.4-1.1c-.8-.7-1.2-1.7-1.2-2.9Z"/>
              <path id="DejaVuSans-75" class="cls-3" d="M20.6,148.5h-5.3v-1.4h5.2c.8,0,1.4-.2,1.9-.5.4-.3.6-.8.6-1.5s-.2-1.4-.7-1.8c-.5-.5-1.2-.7-2-.7h-5v-1.4h8.7v1.4h-1.3c.5.3.9.8,1.2,1.2.3.5.4,1,.4,1.6,0,1-.3,1.8-.9,2.3-.6.5-1.5.8-2.7.8ZM15.1,144.9h0Z"/>
              <path id="DejaVuSans-6e-3" data-name="DejaVuSans-6e" class="cls-3" d="M18.8,130.9h5.3v1.4h-5.2c-.8,0-1.4.2-1.9.5-.4.3-.6.8-.6,1.5s.2,1.4.7,1.8c.5.4,1.2.7,2,.7h4.9v1.4h-8.7v-1.4h1.4c-.5-.3-.9-.7-1.2-1.2-.3-.5-.4-1-.4-1.6,0-1,.3-1.8.9-2.3.6-.5,1.5-.8,2.7-.8Z"/>
              <path id="DejaVuSans-74-3" data-name="DejaVuSans-74" class="cls-3" d="M12.8,126.6h2.5v-3h1.1v3h4.7c.7,0,1.2,0,1.4-.3s.3-.6.3-1.2v-1.5h1.2v1.5c0,1.1-.2,1.9-.6,2.3-.4.4-1.2.6-2.3.6h-4.7v1.1h-1.1v-1.1h-2.5v-1.4Z"/>
            </g>
          </g>
        </g>
        <g id="patch_14" data-name="patch 14">
          <path class="cls-6" d="M82.9,332.4V30.5"/>
        </g>
        <g id="patch_15" data-name="patch 15">
          <path class="cls-6" d="M493.2,332.4V30.5"/>
        </g>
        <g id="patch_16" data-name="patch 16">
          <path class="cls-6" d="M82.9,332.4h410.3"/>
        </g>
        <g id="patch_17" data-name="patch 17">
          <path class="cls-6" d="M82.9,30.5h410.3"/>
        </g>
        <g id="text_20" data-name="text 20">
          <g>
            <path id="DejaVuSans-54" class="cls-3" d="M80.9,11.4h11.1v1.5h-4.7v11.6h-1.8v-11.6h-4.7v-1.5Z"/>
            <path id="DejaVuSans-6f-8" data-name="DejaVuSans-6f" class="cls-3" d="M94.4,15.8c-.9,0-1.6.3-2.1,1s-.8,1.6-.8,2.8.3,2.1.8,2.8c.5.7,1.2,1,2.1,1s1.5-.3,2-1c.5-.7.8-1.6.8-2.8s-.3-2.1-.8-2.8c-.5-.7-1.2-1-2-1ZM94.4,14.4c1.4,0,2.5.5,3.3,1.4.8.9,1.2,2.2,1.2,3.8s-.4,2.9-1.2,3.8c-.8.9-1.9,1.4-3.3,1.4s-2.5-.5-3.3-1.4c-.8-.9-1.2-2.2-1.2-3.8s.4-2.9,1.2-3.8c.8-.9,1.9-1.4,3.3-1.4Z"/>
            <path id="DejaVuSans-74-4" data-name="DejaVuSans-74" class="cls-3" d="M103.2,11.8v2.8h3.3v1.3h-3.3v5.3c0,.8.1,1.3.3,1.5s.7.3,1.3.3h1.7v1.4h-1.7c-1.2,0-2.1-.2-2.6-.7-.5-.5-.7-1.3-.7-2.5v-5.3h-1.2v-1.3h1.2v-2.8h1.6Z"/>
            <path id="DejaVuSans-61-4" data-name="DejaVuSans-61" class="cls-3" d="M113.2,19.5c-1.3,0-2.2.1-2.7.4s-.8.8-.8,1.5.2,1,.6,1.4c.4.3.9.5,1.5.5s1.6-.3,2.2-1,.8-1.5.8-2.5v-.4h-1.6ZM116.4,18.9v5.6h-1.6v-1.5c-.4.6-.8,1-1.4,1.3-.6.3-1.2.4-2,.4s-1.8-.3-2.4-.8c-.6-.6-.9-1.3-.9-2.3s.4-1.9,1.1-2.5c.7-.6,1.8-.8,3.3-.8h2.3v-.2c0-.7-.2-1.3-.7-1.7s-1.2-.6-2.1-.6-1.1,0-1.6.2c-.5.1-1,.3-1.5.6v-1.5c.6-.2,1.2-.4,1.7-.5.6-.1,1.1-.2,1.6-.2,1.4,0,2.5.4,3.2,1.1.7.7,1.1,1.9,1.1,3.4Z"/>
            <path id="DejaVuSans-6c-3" data-name="DejaVuSans-6c" class="cls-3" d="M119.7,10.8h1.6v13.7h-1.6v-13.7Z"/>
            <path id="DejaVuSans-20-4" data-name="DejaVuSans-20" class="cls-3" d="M123,24.5"/>
            <path id="DejaVuSans-73-4" data-name="DejaVuSans-73" class="cls-3" d="M136.7,14.9v1.5c-.5-.2-.9-.4-1.4-.5-.5-.1-1-.2-1.5-.2-.8,0-1.4.1-1.8.4-.4.2-.6.6-.6,1.1s.1.7.4.9.9.4,1.7.6h.6c1.1.4,2,.7,2.4,1.2s.7,1.1.7,1.9-.4,1.6-1.1,2.2c-.7.5-1.7.8-3,.8s-1.1,0-1.6-.2c-.6-.1-1.2-.3-1.8-.5v-1.7c.6.3,1.2.5,1.8.7.6.2,1.2.2,1.7.2s1.3-.1,1.8-.4c.4-.3.6-.6.6-1.1s-.1-.8-.4-1c-.3-.2-.9-.5-1.9-.7h-.6c-1-.3-1.7-.7-2.2-1.1-.4-.4-.7-1-.7-1.8s.3-1.6,1-2.1c.7-.5,1.6-.8,2.8-.8s1.2,0,1.7.1c.5,0,1,.2,1.5.4Z"/>
            <path id="DejaVuSans-79-3" data-name="DejaVuSans-79" class="cls-3" d="M143.9,25.4c-.5,1.2-.9,1.9-1.3,2.3-.4.4-1,.5-1.7.5h-1.3v-1.4h1c.4,0,.8-.1,1-.3.2-.2.5-.7.8-1.5l.3-.7-4-9.7h1.7l3.1,7.7,3.1-7.7h1.7l-4.3,10.8Z"/>
            <path id="DejaVuSans-6e-4" data-name="DejaVuSans-6e" class="cls-3" d="M158.7,18.5v5.9h-1.6v-5.9c0-.9-.2-1.6-.5-2.1-.4-.5-.9-.7-1.6-.7s-1.6.3-2.1.8c-.5.6-.8,1.3-.8,2.3v5.6h-1.6v-9.8h1.6v1.5c.4-.6.8-1,1.4-1.3.5-.3,1.1-.4,1.8-.4,1.1,0,2,.3,2.6,1,.6.7.9,1.7.9,3.1Z"/>
            <path id="DejaVuSans-61-5" data-name="DejaVuSans-61" class="cls-3" d="M166.3,19.5c-1.3,0-2.2.1-2.7.4s-.8.8-.8,1.5.2,1,.6,1.4c.4.3.9.5,1.5.5s1.6-.3,2.2-1,.8-1.5.8-2.5v-.4h-1.6ZM169.6,18.9v5.6h-1.6v-1.5c-.4.6-.8,1-1.4,1.3-.6.3-1.2.4-2,.4s-1.8-.3-2.4-.8c-.6-.6-.9-1.3-.9-2.3s.4-1.9,1.1-2.5c.7-.6,1.8-.8,3.3-.8h2.3v-.2c0-.7-.2-1.3-.7-1.7s-1.2-.6-2.1-.6-1.1,0-1.6.2c-.5.1-1,.3-1.5.6v-1.5c.6-.2,1.2-.4,1.7-.5.6-.1,1.1-.2,1.6-.2,1.4,0,2.5.4,3.2,1.1.7.7,1.1,1.9,1.1,3.4Z"/>
            <path id="DejaVuSans-70-9" data-name="DejaVuSans-70" class="cls-3" d="M174.5,23v5.2h-1.6v-13.6h1.6v1.5c.3-.6.8-1,1.3-1.3.5-.3,1.1-.4,1.9-.4,1.2,0,2.2.5,2.9,1.4.7.9,1.1,2.2,1.1,3.7s-.4,2.8-1.1,3.7c-.7.9-1.7,1.4-2.9,1.4s-1.3-.1-1.9-.4c-.5-.3-.9-.7-1.3-1.3ZM180,19.6c0-1.2-.2-2.1-.7-2.8s-1.2-1-2-1-1.5.3-2,1-.7,1.6-.7,2.8.2,2.1.7,2.8c.5.7,1.2,1,2,1s1.5-.3,2-1c.5-.7.7-1.6.7-2.8Z"/>
            <path id="DejaVuSans-73-5" data-name="DejaVuSans-73" class="cls-3" d="M190.6,14.9v1.5c-.5-.2-.9-.4-1.4-.5-.5-.1-1-.2-1.5-.2-.8,0-1.4.1-1.8.4-.4.2-.6.6-.6,1.1s.1.7.4.9.9.4,1.7.6h.6c1.1.4,2,.7,2.4,1.2s.7,1.1.7,1.9-.4,1.6-1.1,2.2c-.7.5-1.7.8-3,.8s-1.1,0-1.6-.2c-.6-.1-1.2-.3-1.8-.5v-1.7c.6.3,1.2.5,1.8.7.6.2,1.2.2,1.7.2s1.3-.1,1.8-.4c.4-.3.6-.6.6-1.1s-.1-.8-.4-1c-.3-.2-.9-.5-1.9-.7h-.6c-1-.3-1.7-.7-2.2-1.1-.4-.4-.7-1-.7-1.8s.3-1.6,1-2.1c.7-.5,1.6-.8,2.8-.8s1.2,0,1.7.1c.5,0,1,.2,1.5.4Z"/>
            <path id="DejaVuSans-65-5" data-name="DejaVuSans-65" class="cls-3" d="M202.1,19.2v.8h-7.4c0,1.1.4,2,1,2.5.6.6,1.4.9,2.5.9s1.2,0,1.8-.2,1.2-.4,1.7-.7v1.5c-.6.2-1.2.4-1.8.6s-1.2.2-1.9.2c-1.6,0-2.8-.5-3.7-1.4-.9-.9-1.4-2.2-1.4-3.7s.4-2.9,1.3-3.8c.9-.9,2-1.4,3.5-1.4s2.4.4,3.1,1.3c.8.9,1.2,2,1.2,3.5ZM200.5,18.7c0-.9-.3-1.6-.7-2.1-.5-.5-1.1-.8-1.9-.8s-1.6.3-2.2.8-.9,1.2-.9,2.2h5.8Z"/>
            <path id="DejaVuSans-20-5" data-name="DejaVuSans-20" class="cls-3" d="M203.1,24.5"/>
            <path id="DejaVuSans-63-4" data-name="DejaVuSans-63" class="cls-3" d="M217.6,15v1.5c-.5-.3-.9-.4-1.4-.6s-.9-.2-1.4-.2c-1.1,0-1.9.3-2.4,1-.6.7-.9,1.6-.9,2.8s.3,2.1.9,2.8c.6.7,1.4,1,2.4,1s.9,0,1.4-.2.9-.3,1.4-.6v1.5c-.5.2-.9.4-1.4.5-.5.1-1,.2-1.5.2-1.5,0-2.7-.5-3.5-1.4-.9-.9-1.3-2.2-1.3-3.8s.4-2.9,1.3-3.8c.9-.9,2.1-1.4,3.6-1.4s1,0,1.5.2c.5.1.9.3,1.4.5Z"/>
            <path id="DejaVuSans-6f-9" data-name="DejaVuSans-6f" class="cls-3" d="M224.2,15.8c-.9,0-1.6.3-2.1,1s-.8,1.6-.8,2.8.3,2.1.8,2.8c.5.7,1.2,1,2.1,1s1.5-.3,2-1c.5-.7.8-1.6.8-2.8s-.3-2.1-.8-2.8c-.5-.7-1.2-1-2-1ZM224.2,14.4c1.4,0,2.5.5,3.3,1.4.8.9,1.2,2.2,1.2,3.8s-.4,2.9-1.2,3.8c-.8.9-1.9,1.4-3.3,1.4s-2.5-.5-3.3-1.4c-.8-.9-1.2-2.2-1.2-3.8s.4-2.9,1.2-3.8c.8-.9,1.9-1.4,3.3-1.4Z"/>
            <path id="DejaVuSans-75-2" data-name="DejaVuSans-75" class="cls-3" d="M231.2,20.6v-6h1.6v5.9c0,.9.2,1.6.5,2.1.4.5.9.7,1.6.7s1.6-.3,2.1-.8c.5-.6.8-1.3.8-2.3v-5.6h1.6v9.8h-1.6v-1.5c-.4.6-.8,1-1.4,1.3-.5.3-1.1.4-1.8.4-1.1,0-2-.4-2.6-1.1-.6-.7-.9-1.7-.9-3.1ZM235.3,14.4h0Z"/>
            <path id="DejaVuSans-6e-5" data-name="DejaVuSans-6e" class="cls-3" d="M251,18.5v5.9h-1.6v-5.9c0-.9-.2-1.6-.5-2.1-.4-.5-.9-.7-1.6-.7s-1.6.3-2.1.8c-.5.6-.8,1.3-.8,2.3v5.6h-1.6v-9.8h1.6v1.5c.4-.6.8-1,1.4-1.3.5-.3,1.1-.4,1.8-.4,1.1,0,2,.3,2.6,1,.6.7.9,1.7.9,3.1Z"/>
            <path id="DejaVuSans-74-5" data-name="DejaVuSans-74" class="cls-3" d="M255.8,11.8v2.8h3.3v1.3h-3.3v5.3c0,.8.1,1.3.3,1.5s.7.3,1.3.3h1.7v1.4h-1.7c-1.2,0-2.1-.2-2.6-.7-.5-.5-.7-1.3-.7-2.5v-5.3h-1.2v-1.3h1.2v-2.8h1.6Z"/>
            <path id="DejaVuSans-73-6" data-name="DejaVuSans-73" class="cls-3" d="M267.6,14.9v1.5c-.5-.2-.9-.4-1.4-.5-.5-.1-1-.2-1.5-.2-.8,0-1.4.1-1.8.4-.4.2-.6.6-.6,1.1s.1.7.4.9.9.4,1.7.6h.6c1.1.4,2,.7,2.4,1.2s.7,1.1.7,1.9-.4,1.6-1.1,2.2c-.7.5-1.7.8-3,.8s-1.1,0-1.6-.2c-.6-.1-1.2-.3-1.8-.5v-1.7c.6.3,1.2.5,1.8.7.6.2,1.2.2,1.7.2s1.3-.1,1.8-.4c.4-.3.6-.6.6-1.1s-.1-.8-.4-1c-.3-.2-.9-.5-1.9-.7h-.6c-1-.3-1.7-.7-2.2-1.1-.4-.4-.7-1-.7-1.8s.3-1.6,1-2.1c.7-.5,1.6-.8,2.8-.8s1.2,0,1.7.1c.5,0,1,.2,1.5.4Z"/>
            <path id="DejaVuSans-20-6" data-name="DejaVuSans-20" class="cls-3" d="M269,24.5"/>
            <path id="DejaVuSans-66" class="cls-3" d="M281.4,10.8v1.3h-1.5c-.6,0-1,.1-1.2.4-.2.2-.3.7-.3,1.3v.9h2.7v1.3h-2.7v8.6h-1.6v-8.6h-1.5v-1.3h1.5v-.7c0-1.1.3-1.9.8-2.4.5-.5,1.3-.8,2.4-.8h1.5Z"/>
            <path id="DejaVuSans-6f-10" data-name="DejaVuSans-6f" class="cls-3" d="M286.5,15.8c-.9,0-1.6.3-2.1,1s-.8,1.6-.8,2.8.3,2.1.8,2.8c.5.7,1.2,1,2.1,1s1.5-.3,2-1c.5-.7.8-1.6.8-2.8s-.3-2.1-.8-2.8c-.5-.7-1.2-1-2-1ZM286.5,14.4c1.4,0,2.5.5,3.3,1.4.8.9,1.2,2.2,1.2,3.8s-.4,2.9-1.2,3.8c-.8.9-1.9,1.4-3.3,1.4s-2.5-.5-3.3-1.4c-.8-.9-1.2-2.2-1.2-3.8s.4-2.9,1.2-3.8c.8-.9,1.9-1.4,3.3-1.4Z"/>
            <path id="DejaVuSans-72" class="cls-3" d="M299.4,16.1c-.2-.1-.4-.2-.6-.2-.2,0-.4,0-.7,0-.9,0-1.6.3-2.1.9s-.7,1.4-.7,2.6v5.2h-1.6v-9.8h1.6v1.5c.3-.6.8-1,1.3-1.3.5-.3,1.2-.4,2-.4s.2,0,.4,0c.1,0,.3,0,.4,0v1.7Z"/>
            <path id="DejaVuSans-20-7" data-name="DejaVuSans-20" class="cls-3" d="M299.4,24.5"/>
            <path id="DejaVuSans-6f-11" data-name="DejaVuSans-6f" class="cls-3" d="M310.7,15.8c-.9,0-1.6.3-2.1,1s-.8,1.6-.8,2.8.3,2.1.8,2.8c.5.7,1.2,1,2.1,1s1.5-.3,2-1c.5-.7.8-1.6.8-2.8s-.3-2.1-.8-2.8c-.5-.7-1.2-1-2-1ZM310.7,14.4c1.4,0,2.5.5,3.3,1.4.8.9,1.2,2.2,1.2,3.8s-.4,2.9-1.2,3.8c-.8.9-1.9,1.4-3.3,1.4s-2.5-.5-3.3-1.4c-.8-.9-1.2-2.2-1.2-3.8s.4-2.9,1.2-3.8c.8-.9,1.9-1.4,3.3-1.4Z"/>
            <path id="DejaVuSans-76-5" data-name="DejaVuSans-76" class="cls-3" d="M316.7,14.6h1.7l3.1,8.3,3.1-8.3h1.7l-3.7,9.8h-2.2l-3.7-9.8Z"/>
            <path id="DejaVuSans-69-7" data-name="DejaVuSans-69" class="cls-3" d="M328.5,14.6h1.6v9.8h-1.6v-9.8ZM328.5,10.8h1.6v2.1h-1.6v-2.1Z"/>
            <path id="DejaVuSans-70-10" data-name="DejaVuSans-70" class="cls-3" d="M335.1,23v5.2h-1.6v-13.6h1.6v1.5c.3-.6.8-1,1.3-1.3.5-.3,1.1-.4,1.9-.4,1.2,0,2.2.5,2.9,1.4.7.9,1.1,2.2,1.1,3.7s-.4,2.8-1.1,3.7c-.7.9-1.7,1.4-2.9,1.4s-1.3-.1-1.9-.4c-.5-.3-.9-.7-1.3-1.3ZM340.6,19.6c0-1.2-.2-2.1-.7-2.8s-1.2-1-2-1-1.5.3-2,1-.7,1.6-.7,2.8.2,2.1.7,2.8c.5.7,1.2,1,2,1s1.5-.3,2-1c.5-.7.7-1.6.7-2.8Z"/>
            <path id="DejaVuSans-6f-12" data-name="DejaVuSans-6f" class="cls-3" d="M348.8,15.8c-.9,0-1.6.3-2.1,1s-.8,1.6-.8,2.8.3,2.1.8,2.8c.5.7,1.2,1,2.1,1s1.5-.3,2-1c.5-.7.8-1.6.8-2.8s-.3-2.1-.8-2.8c-.5-.7-1.2-1-2-1ZM348.8,14.4c1.4,0,2.5.5,3.3,1.4.8.9,1.2,2.2,1.2,3.8s-.4,2.9-1.2,3.8c-.8.9-1.9,1.4-3.3,1.4s-2.5-.5-3.3-1.4c-.8-.9-1.2-2.2-1.2-3.8s.4-2.9,1.2-3.8c.8-.9,1.9-1.4,3.3-1.4Z"/>
            <path id="DejaVuSans-73-7" data-name="DejaVuSans-73" class="cls-3" d="M362.2,14.9v1.5c-.5-.2-.9-.4-1.4-.5-.5-.1-1-.2-1.5-.2-.8,0-1.4.1-1.8.4-.4.2-.6.6-.6,1.1s.1.7.4.9.9.4,1.7.6h.6c1.1.4,2,.7,2.4,1.2s.7,1.1.7,1.9-.4,1.6-1.1,2.2c-.7.5-1.7.8-3,.8s-1.1,0-1.6-.2c-.6-.1-1.2-.3-1.8-.5v-1.7c.6.3,1.2.5,1.8.7.6.2,1.2.2,1.7.2s1.3-.1,1.8-.4c.4-.3.6-.6.6-1.1s-.1-.8-.4-1c-.3-.2-.9-.5-1.9-.7h-.6c-1-.3-1.7-.7-2.2-1.1-.4-.4-.7-1-.7-1.8s.3-1.6,1-2.1c.7-.5,1.6-.8,2.8-.8s1.2,0,1.7.1c.5,0,1,.2,1.5.4Z"/>
            <path id="DejaVuSans-69-8" data-name="DejaVuSans-69" class="cls-3" d="M365.3,14.6h1.6v9.8h-1.6v-9.8ZM365.3,10.8h1.6v2.1h-1.6v-2.1Z"/>
            <path id="DejaVuSans-74-6" data-name="DejaVuSans-74" class="cls-3" d="M371.9,11.8v2.8h3.3v1.3h-3.3v5.3c0,.8.1,1.3.3,1.5s.7.3,1.3.3h1.7v1.4h-1.7c-1.2,0-2.1-.2-2.6-.7-.5-.5-.7-1.3-.7-2.5v-5.3h-1.2v-1.3h1.2v-2.8h1.6Z"/>
            <path id="DejaVuSans-69-9" data-name="DejaVuSans-69" class="cls-3" d="M377.4,14.6h1.6v9.8h-1.6v-9.8ZM377.4,10.8h1.6v2.1h-1.6v-2.1Z"/>
            <path id="DejaVuSans-6f-13" data-name="DejaVuSans-6f" class="cls-3" d="M386.2,15.8c-.9,0-1.6.3-2.1,1s-.8,1.6-.8,2.8.3,2.1.8,2.8c.5.7,1.2,1,2.1,1s1.5-.3,2-1c.5-.7.8-1.6.8-2.8s-.3-2.1-.8-2.8c-.5-.7-1.2-1-2-1ZM386.2,14.4c1.4,0,2.5.5,3.3,1.4.8.9,1.2,2.2,1.2,3.8s-.4,2.9-1.2,3.8c-.8.9-1.9,1.4-3.3,1.4s-2.5-.5-3.3-1.4c-.8-.9-1.2-2.2-1.2-3.8s.4-2.9,1.2-3.8c.8-.9,1.9-1.4,3.3-1.4Z"/>
            <path id="DejaVuSans-6e-6" data-name="DejaVuSans-6e" class="cls-3" d="M401.6,18.5v5.9h-1.6v-5.9c0-.9-.2-1.6-.5-2.1-.4-.5-.9-.7-1.6-.7s-1.6.3-2.1.8c-.5.6-.8,1.3-.8,2.3v5.6h-1.6v-9.8h1.6v1.5c.4-.6.8-1,1.4-1.3.5-.3,1.1-.4,1.8-.4,1.1,0,2,.3,2.6,1,.6.7.9,1.7.9,3.1Z"/>
            <path id="DejaVuSans-20-8" data-name="DejaVuSans-20" class="cls-3" d="M403.1,24.5"/>
            <path id="DejaVuSans-63-5" data-name="DejaVuSans-63" class="cls-3" d="M417.6,15v1.5c-.5-.3-.9-.4-1.4-.6s-.9-.2-1.4-.2c-1.1,0-1.9.3-2.4,1-.6.7-.9,1.6-.9,2.8s.3,2.1.9,2.8c.6.7,1.4,1,2.4,1s.9,0,1.4-.2.9-.3,1.4-.6v1.5c-.5.2-.9.4-1.4.5-.5.1-1,.2-1.5.2-1.5,0-2.7-.5-3.5-1.4-.9-.9-1.3-2.2-1.3-3.8s.4-2.9,1.3-3.8c.9-.9,2.1-1.4,3.6-1.4s1,0,1.5.2c.5.1.9.3,1.4.5Z"/>
            <path id="DejaVuSans-65-6" data-name="DejaVuSans-65" class="cls-3" d="M428.9,19.2v.8h-7.4c0,1.1.4,2,1,2.5.6.6,1.4.9,2.5.9s1.2,0,1.8-.2,1.2-.4,1.7-.7v1.5c-.6.2-1.2.4-1.8.6s-1.2.2-1.9.2c-1.6,0-2.8-.5-3.7-1.4-.9-.9-1.4-2.2-1.4-3.7s.4-2.9,1.3-3.8c.9-.9,2-1.4,3.5-1.4s2.4.4,3.1,1.3c.8.9,1.2,2,1.2,3.5ZM427.2,18.7c0-.9-.3-1.6-.7-2.1-.5-.5-1.1-.8-1.9-.8s-1.6.3-2.2.8-.9,1.2-.9,2.2h5.8Z"/>
            <path id="DejaVuSans-6c-4" data-name="DejaVuSans-6c" class="cls-3" d="M431.5,10.8h1.6v13.7h-1.6v-13.7Z"/>
            <path id="DejaVuSans-6c-5" data-name="DejaVuSans-6c" class="cls-3" d="M436.5,10.8h1.6v13.7h-1.6v-13.7Z"/>
            <path id="DejaVuSans-20-9" data-name="DejaVuSans-20" class="cls-3" d="M439.8,24.5"/>
            <path id="DejaVuSans-74-7" data-name="DejaVuSans-74" class="cls-3" d="M448.8,11.8v2.8h3.3v1.3h-3.3v5.3c0,.8.1,1.3.3,1.5s.7.3,1.3.3h1.7v1.4h-1.7c-1.2,0-2.1-.2-2.6-.7-.5-.5-.7-1.3-.7-2.5v-5.3h-1.2v-1.3h1.2v-2.8h1.6Z"/>
            <path id="DejaVuSans-79-4" data-name="DejaVuSans-79" class="cls-3" d="M458.4,25.4c-.5,1.2-.9,1.9-1.3,2.3-.4.4-1,.5-1.7.5h-1.3v-1.4h1c.4,0,.8-.1,1-.3.2-.2.5-.7.8-1.5l.3-.7-4-9.7h1.7l3.1,7.7,3.1-7.7h1.7l-4.3,10.8Z"/>
            <path id="DejaVuSans-70-11" data-name="DejaVuSans-70" class="cls-3" d="M466.5,23v5.2h-1.6v-13.6h1.6v1.5c.3-.6.8-1,1.3-1.3.5-.3,1.1-.4,1.9-.4,1.2,0,2.2.5,2.9,1.4.7.9,1.1,2.2,1.1,3.7s-.4,2.8-1.1,3.7c-.7.9-1.7,1.4-2.9,1.4s-1.3-.1-1.9-.4c-.5-.3-.9-.7-1.3-1.3ZM472,19.6c0-1.2-.2-2.1-.7-2.8s-1.2-1-2-1-1.5.3-2,1-.7,1.6-.7,2.8.2,2.1.7,2.8c.5.7,1.2,1,2,1s1.5-.3,2-1c.5-.7.7-1.6.7-2.8Z"/>
            <path id="DejaVuSans-65-7" data-name="DejaVuSans-65" class="cls-3" d="M484.8,19.2v.8h-7.4c0,1.1.4,2,1,2.5.6.6,1.4.9,2.5.9s1.2,0,1.8-.2,1.2-.4,1.7-.7v1.5c-.6.2-1.2.4-1.8.6s-1.2.2-1.9.2c-1.6,0-2.8-.5-3.7-1.4-.9-.9-1.4-2.2-1.4-3.7s.4-2.9,1.3-3.8c.9-.9,2-1.4,3.5-1.4s2.4.4,3.1,1.3c.8.9,1.2,2,1.2,3.5ZM483.2,18.7c0-.9-.3-1.6-.7-2.1-.5-.5-1.1-.8-1.9-.8s-1.6.3-2.2.8-.9,1.2-.9,2.2h5.8Z"/>
            <path id="DejaVuSans-73-8" data-name="DejaVuSans-73" class="cls-3" d="M493.7,14.9v1.5c-.5-.2-.9-.4-1.4-.5-.5-.1-1-.2-1.5-.2-.8,0-1.4.1-1.8.4-.4.2-.6.6-.6,1.1s.1.7.4.9.9.4,1.7.6h.6c1.1.4,2,.7,2.4,1.2s.7,1.1.7,1.9-.4,1.6-1.1,2.2c-.7.5-1.7.8-3,.8s-1.1,0-1.6-.2c-.6-.1-1.2-.3-1.8-.5v-1.7c.6.3,1.2.5,1.8.7.6.2,1.2.2,1.7.2s1.3-.1,1.8-.4c.4-.3.6-.6.6-1.1s-.1-.8-.4-1c-.3-.2-.9-.5-1.9-.7h-.6c-1-.3-1.7-.7-2.2-1.1-.4-.4-.7-1-.7-1.8s.3-1.6,1-2.1c.7-.5,1.6-.8,2.8-.8s1.2,0,1.7.1c.5,0,1,.2,1.5.4Z"/>
          </g>
        </g>
      </g>
    </g>
  </g>
  <g id="Layer_2" data-name="Layer 2">
    <text class="cls-18" transform="translate(126.2 413.3) rotate(-45)"><tspan x="0" y="0">oviEN</tspan></text>
    <text class="cls-18" transform="translate(88 413.3) rotate(-45)"><tspan x="0" y="0">oviDNa</tspan></text>
  </g>
</svg>